<svg width="64" height="64" viewBox="0 0 64 64" fill="none" xmlns="http://www.w3.org/2000/svg">
<path d="M31.9995 56C45.2543 56 55.9995 45.2548 55.9995 32C55.9995 18.7452 45.2543 8 31.9995 8C18.7447 8 7.99951 18.7452 7.99951 32C7.99951 45.2548 18.7447 56 31.9995 56Z" fill="url(#paint0_radial_97_50)"/>
<path d="M31.9995 18V22" stroke="black" stroke-width="4" stroke-linecap="round" stroke-linejoin="round"/>
<path d="M31.9995 42V46" stroke="black" stroke-width="4" stroke-linecap="round" stroke-linejoin="round"/>
<path d="M31.9995 56C45.2543 56 55.9995 45.2548 55.9995 32C55.9995 18.7452 45.2543 8 31.9995 8C18.7447 8 7.99951 18.7452 7.99951 32C7.99951 45.2548 18.7447 56 31.9995 56Z" stroke="black" stroke-width="4" stroke-linecap="round" stroke-linejoin="round"/>
<path d="M25.9995 42H34.9995C36.3256 42 37.5974 41.4732 38.535 40.5355C39.4727 39.5979 39.9995 38.3261 39.9995 37C39.9995 35.6739 39.4727 34.4021 38.535 33.4645C37.5974 32.5268 36.3256 32 34.9995 32H28.9995C27.6734 32 26.4017 31.4732 25.464 30.5355C24.5263 29.5979 23.9995 28.3261 23.9995 27C23.9995 25.6739 24.5263 24.4021 25.464 23.4645C26.4017 22.5268 27.6734 22 28.9995 22H37.9995" stroke="black" stroke-width="4" stroke-linecap="round" stroke-linejoin="round"/>
<defs>
<radialGradient id="paint0_radial_97_50" cx="0" cy="0" r="1" gradientUnits="userSpaceOnUse" gradientTransform="translate(31.9995 32) rotate(90) scale(24)">
<stop stop-color="#FF512F" stop-opacity="0.59"/>
<stop offset="1" stop-color="#E4492A"/>
</radialGradient>
</defs>
</svg>
