<svg width="245" height="233" viewBox="0 0 245 233" fill="none" xmlns="http://www.w3.org/2000/svg">
<path d="M234.307 195.085C235.238 195.085 235.955 195.515 236.456 196.374C237.029 197.234 237.316 198.416 237.316 199.92C237.316 202.714 236.635 204.934 235.274 206.582C231.836 210.737 228.361 213.96 224.851 216.252C221.341 218.473 217.187 219.583 212.387 219.583C207.731 219.583 203.755 218.33 200.46 215.823C197.237 213.316 194.157 209.018 191.22 202.929C188.856 198.058 186.993 194.476 185.632 192.184C184.271 189.82 182.91 188.136 181.549 187.134C180.26 186.131 178.648 185.522 176.714 185.307C176.427 186.811 175.604 191.539 174.243 199.49C173.67 203.072 173.311 205.257 173.168 206.045C172.452 210.414 171.019 213.781 168.87 216.145C166.721 218.437 163.462 219.583 159.092 219.583C154.293 219.583 150.031 218.187 146.306 215.393C142.652 212.528 139.823 208.588 137.817 203.573C135.812 198.487 134.809 192.721 134.809 186.274C134.809 174.24 136.886 163.853 141.041 155.114C145.267 146.374 151.141 139.713 158.662 135.128C166.256 130.472 174.995 128.144 184.88 128.144C191.757 128.144 197.523 129.183 202.18 131.26C206.836 133.337 210.274 136.203 212.495 139.856C214.787 143.509 215.933 147.628 215.933 152.213C215.933 156.224 214.966 160.164 213.032 164.032C211.169 167.829 208.34 171.195 204.543 174.132C200.747 177.069 196.127 179.254 190.682 180.687C194.121 181.618 196.771 183.122 198.634 185.2C200.496 187.277 202.359 190.321 204.221 194.333C206.227 198.631 208.197 201.783 210.131 203.788C212.137 205.794 214.429 206.797 217.008 206.797C219.3 206.797 221.485 206.045 223.562 204.54C225.639 202.965 228.254 200.314 231.406 196.589C232.265 195.586 233.232 195.085 234.307 195.085ZM161.886 185.2C159.45 185.2 157.767 184.626 156.836 183.48C155.976 182.334 155.546 181.045 155.546 179.612C155.546 177.893 156.084 176.532 157.158 175.529C158.304 174.526 159.594 174.025 161.026 174.025H163.713C164.859 167.005 165.933 160.952 166.936 155.866C167.867 151.21 170.876 148.882 175.962 148.882C180.045 148.882 182.086 150.708 182.086 154.362C182.086 155.149 182.051 155.758 181.979 156.188L178.756 174.025C182.624 173.81 186.134 172.879 189.286 171.231C192.509 169.584 195.052 167.291 196.915 164.354C198.849 161.417 199.816 158.086 199.816 154.362C199.816 149.849 198.276 146.303 195.195 143.724C192.115 141.145 187.602 139.856 181.657 139.856C174.637 139.856 168.476 141.611 163.175 145.121C157.946 148.559 153.863 153.717 150.926 160.594C147.989 167.399 146.521 175.708 146.521 185.522C146.521 190.106 146.986 194.046 147.918 197.341C148.849 200.636 149.995 203.108 151.356 204.755C152.717 206.403 154.006 207.227 155.224 207.227C156.155 207.227 156.907 206.761 157.481 205.83C158.125 204.899 158.627 203.394 158.985 201.317L161.886 185.2Z" fill="#FF512F"/>
<path d="M236.456 196.374L234.522 197.502L234.556 197.56L234.593 197.616L236.456 196.374ZM235.274 206.582L236.999 208.009L237 208.008L235.274 206.582ZM224.851 216.252L226.048 218.144L226.062 218.136L226.075 218.127L224.851 216.252ZM200.46 215.823L199.086 217.59L199.095 217.597L199.105 217.604L200.46 215.823ZM191.22 202.929L193.236 201.956L193.234 201.951L191.22 202.929ZM185.632 192.184L183.692 193.301L183.7 193.314L183.707 193.327L185.632 192.184ZM181.549 187.134L180.175 188.901L180.198 188.918L180.221 188.936L181.549 187.134ZM176.714 185.307L176.961 183.082L174.903 182.853L174.515 184.888L176.714 185.307ZM174.243 199.49L172.036 199.113L172.034 199.125L172.032 199.137L174.243 199.49ZM173.168 206.045L170.966 205.644L170.962 205.663L170.959 205.683L173.168 206.045ZM168.87 216.145L170.503 217.676L170.515 217.664L170.527 217.651L168.87 216.145ZM146.306 215.393L144.924 217.154L144.943 217.169L144.963 217.184L146.306 215.393ZM137.817 203.573L135.735 204.395L135.739 204.405L137.817 203.573ZM141.041 155.114L139.026 154.139L139.022 154.146L139.019 154.153L141.041 155.114ZM158.662 135.128L159.828 137.04L159.833 137.036L158.662 135.128ZM212.495 139.856L210.582 141.019L210.59 141.032L210.599 141.046L212.495 139.856ZM213.032 164.032L211.03 163.031L211.026 163.038L211.022 163.046L213.032 164.032ZM204.543 174.132L205.913 175.903H205.913L204.543 174.132ZM190.682 180.687L190.113 178.522L182.005 180.656L190.097 182.847L190.682 180.687ZM198.634 185.2L200.3 183.705H200.3L198.634 185.2ZM204.221 194.333L202.191 195.275L202.193 195.279L204.221 194.333ZM210.131 203.788L208.519 205.342L208.534 205.357L208.548 205.371L210.131 203.788ZM223.562 204.54L224.875 206.354L224.895 206.339L224.915 206.324L223.562 204.54ZM231.406 196.589L229.706 195.132L229.702 195.138L229.697 195.143L231.406 196.589ZM161.886 185.2L164.089 185.596L164.563 182.961H161.886V185.2ZM156.836 183.48L155.045 184.823L155.071 184.858L155.098 184.892L156.836 183.48ZM157.158 175.529L155.684 173.844L155.657 173.868L155.631 173.893L157.158 175.529ZM163.713 174.025V176.263H165.615L165.922 174.385L163.713 174.025ZM166.936 155.866L164.741 155.427L164.74 155.433L166.936 155.866ZM181.979 156.188L184.182 156.586L184.185 156.571L184.187 156.556L181.979 156.188ZM178.756 174.025L176.553 173.627L176.048 176.417L178.88 176.26L178.756 174.025ZM189.286 171.231L188.267 169.238L188.258 169.243L188.249 169.247L189.286 171.231ZM196.915 164.354L195.045 163.123L195.034 163.139L195.024 163.156L196.915 164.354ZM195.195 143.724L196.632 142.008L195.195 143.724ZM163.175 145.121L164.405 146.991L164.411 146.987L163.175 145.121ZM150.926 160.594L152.981 161.481L152.985 161.473L150.926 160.594ZM147.918 197.341L145.763 197.95L147.918 197.341ZM151.356 204.755L149.63 206.181V206.181L151.356 204.755ZM157.481 205.83L155.64 204.556L155.606 204.605L155.574 204.657L157.481 205.83ZM158.985 201.317L156.782 200.92L156.78 200.929L156.779 200.937L158.985 201.317ZM234.307 197.323C234.367 197.323 234.395 197.33 234.4 197.332C234.404 197.332 234.398 197.331 234.391 197.327C234.369 197.314 234.425 197.336 234.522 197.502L238.39 195.246C237.521 193.757 236.099 192.846 234.307 192.846V197.323ZM234.593 197.616C234.833 197.976 235.077 198.666 235.077 199.92H239.554C239.554 198.165 239.225 196.492 238.319 195.133L234.593 197.616ZM235.077 199.92C235.077 202.355 234.488 204.019 233.548 205.156L237 208.008C238.782 205.85 239.554 203.072 239.554 199.92H235.077ZM233.549 205.155C230.216 209.183 226.904 212.238 223.627 214.378L226.075 218.127C229.819 215.682 233.456 212.29 236.999 208.009L233.549 205.155ZM223.655 214.361C220.556 216.321 216.83 217.345 212.387 217.345V221.822C217.543 221.822 222.127 220.625 226.048 218.144L223.655 214.361ZM212.387 217.345C208.157 217.345 204.673 216.215 201.816 214.041L199.105 217.604C202.838 220.444 207.306 221.822 212.387 221.822V217.345ZM201.835 214.056C199.006 211.856 196.109 207.913 193.236 201.956L189.203 203.901C192.204 210.122 195.468 214.775 199.086 217.59L201.835 214.056ZM193.234 201.951C190.864 197.069 188.968 193.418 187.557 191.041L183.707 193.327C185.018 195.535 186.847 199.046 189.206 203.906L193.234 201.951ZM187.572 191.067C186.14 188.58 184.594 186.596 182.877 185.331L180.221 188.936C181.227 189.677 182.402 191.06 183.692 193.301L187.572 191.067ZM182.924 185.367C181.25 184.065 179.227 183.334 176.961 183.082L176.467 187.532C178.069 187.71 179.269 188.196 180.175 188.901L182.924 185.367ZM174.515 184.888C174.224 186.418 173.395 191.173 172.036 199.113L176.449 199.868C177.812 191.905 178.631 187.204 178.913 185.726L174.515 184.888ZM172.032 199.137C171.457 202.729 171.104 204.885 170.966 205.644L175.371 206.445C175.519 205.628 175.882 203.415 176.453 199.844L172.032 199.137ZM170.959 205.683C170.287 209.784 168.98 212.696 167.214 214.639L170.527 217.651C173.058 214.866 174.617 211.044 175.377 206.407L170.959 205.683ZM167.237 214.614C165.656 216.301 163.092 217.345 159.092 217.345V221.822C163.832 221.822 167.787 220.574 170.503 217.676L167.237 214.614ZM159.092 217.345C154.761 217.345 150.974 216.096 147.649 213.602L144.963 217.184C149.088 220.277 153.825 221.822 159.092 221.822V217.345ZM147.687 213.631C144.392 211.047 141.779 207.451 139.896 202.742L135.739 204.405C137.867 209.725 140.913 214.008 144.924 217.154L147.687 213.631ZM139.9 202.752C138.014 197.97 137.047 192.489 137.047 186.274H132.57C132.57 192.953 133.609 199.005 135.735 204.395L139.9 202.752ZM137.047 186.274C137.047 174.493 139.081 164.45 143.062 156.075L139.019 154.153C134.691 163.256 132.57 173.986 132.57 186.274H137.047ZM143.056 156.088C147.115 147.696 152.711 141.377 159.828 137.04L157.497 133.217C149.571 138.048 143.419 145.053 139.026 154.139L143.056 156.088ZM159.833 137.036C167.036 132.619 175.361 130.382 184.88 130.382V125.905C174.628 125.905 165.475 128.324 157.492 133.22L159.833 137.036ZM184.88 130.382C191.546 130.382 196.98 131.391 201.267 133.304L203.092 129.216C198.067 126.974 191.968 125.905 184.88 125.905V130.382ZM201.267 133.304C205.59 135.233 208.64 137.824 210.582 141.019L214.408 138.693C211.908 134.581 208.082 131.442 203.092 129.216L201.267 133.304ZM210.599 141.046C212.653 144.32 213.695 148.021 213.695 152.213H218.172C218.172 147.235 216.921 142.699 214.391 138.666L210.599 141.046ZM213.695 152.213C213.695 155.85 212.821 159.449 211.03 163.031L215.034 165.033C217.111 160.879 218.172 156.598 218.172 152.213H213.695ZM211.022 163.046C209.33 166.496 206.737 169.606 203.174 172.362L205.913 175.903C209.943 172.785 213.009 169.161 215.042 165.018L211.022 163.046ZM203.174 172.362C199.652 175.086 195.316 177.153 190.113 178.522L191.252 182.851C196.937 181.355 201.842 179.052 205.913 175.903L203.174 172.362ZM190.097 182.847C193.233 183.697 195.463 185.017 196.967 186.694L200.3 183.705C198.079 181.228 195.009 179.539 191.268 178.526L190.097 182.847ZM196.967 186.694C198.621 188.539 200.374 191.362 202.191 195.275L206.251 193.39C204.343 189.281 202.371 186.015 200.3 183.705L196.967 186.694ZM202.193 195.279C204.24 199.667 206.335 203.076 208.519 205.342L211.742 202.234C210.059 200.489 208.213 197.594 206.25 193.386L202.193 195.279ZM208.548 205.371C210.927 207.751 213.773 209.035 217.008 209.035V204.558C215.085 204.558 213.346 203.837 211.714 202.205L208.548 205.371ZM217.008 209.035C219.827 209.035 222.463 208.1 224.875 206.354L222.249 202.727C220.506 203.99 218.773 204.558 217.008 204.558V209.035ZM224.915 206.324C227.191 204.597 229.932 201.797 233.115 198.035L229.697 195.143C226.576 198.831 224.088 201.332 222.209 202.757L224.915 206.324ZM233.105 198.046C233.646 197.415 234.033 197.323 234.307 197.323V192.846C232.432 192.846 230.885 193.757 229.706 195.132L233.105 198.046ZM161.886 182.961C159.695 182.961 158.867 182.431 158.573 182.069L155.098 184.892C156.667 186.822 159.206 187.438 161.886 187.438V182.961ZM158.627 182.137C158.058 181.379 157.785 180.56 157.785 179.612H153.308C153.308 181.529 153.895 183.29 155.045 184.823L158.627 182.137ZM157.785 179.612C157.785 178.399 158.142 177.673 158.686 177.166L155.631 173.893C154.025 175.391 153.308 177.387 153.308 179.612H157.785ZM158.632 177.214C159.398 176.543 160.172 176.263 161.026 176.263V171.786C159.015 171.786 157.21 172.509 155.684 173.844L158.632 177.214ZM161.026 176.263H163.713V171.786H161.026V176.263ZM165.922 174.385C167.065 167.381 168.136 161.354 169.132 156.299L164.74 155.433C163.731 160.55 162.652 166.628 161.503 173.664L165.922 174.385ZM169.131 156.305C169.518 154.37 170.281 153.156 171.261 152.398C172.259 151.626 173.748 151.12 175.962 151.12V146.643C173.089 146.643 170.531 147.302 168.521 148.857C166.492 150.427 165.285 152.706 164.741 155.427L169.131 156.305ZM175.962 151.12C177.716 151.12 178.613 151.518 179.063 151.92C179.465 152.279 179.848 152.948 179.848 154.362H184.325C184.325 152.121 183.688 150.05 182.048 148.583C180.456 147.159 178.291 146.643 175.962 146.643V151.12ZM179.848 154.362C179.848 155.108 179.812 155.572 179.771 155.82L184.187 156.556C184.289 155.945 184.325 155.191 184.325 154.362H179.848ZM179.776 155.79L176.553 173.627L180.958 174.423L184.182 156.586L179.776 155.79ZM178.88 176.26C183.038 176.029 186.863 175.023 190.323 173.215L188.249 169.247C185.404 170.734 182.21 171.591 178.631 171.79L178.88 176.26ZM190.304 173.224C193.869 171.402 196.719 168.842 198.805 165.553L195.024 163.156C193.385 165.74 191.149 167.765 188.267 169.238L190.304 173.224ZM198.784 165.586C200.973 162.261 202.054 158.497 202.054 154.362H197.577C197.577 157.676 196.724 160.574 195.045 163.123L198.784 165.586ZM202.054 154.362C202.054 149.278 200.287 145.067 196.632 142.008L193.758 145.44C196.264 147.538 197.577 150.419 197.577 154.362H202.054ZM196.632 142.008C192.995 138.962 187.883 137.617 181.657 137.617V142.094C187.321 142.094 191.235 143.328 193.758 145.44L196.632 142.008ZM181.657 137.617C174.245 137.617 167.645 139.477 161.939 143.254L164.411 146.987C169.308 143.745 175.029 142.094 181.657 142.094V137.617ZM161.945 143.25C156.282 146.974 151.943 152.513 148.867 159.714L152.985 161.473C155.783 154.921 159.61 150.144 164.405 146.991L161.945 143.25ZM148.871 159.707C145.781 166.867 144.282 175.497 144.282 185.522H148.759C148.759 175.919 150.198 167.931 152.981 161.481L148.871 159.707ZM144.282 185.522C144.282 190.247 144.761 194.403 145.763 197.95L150.072 196.733C149.212 193.69 148.759 189.965 148.759 185.522H144.282ZM145.763 197.95C146.734 201.385 147.988 204.193 149.63 206.181L153.082 203.33C152.002 202.023 150.963 199.888 150.072 196.733L145.763 197.95ZM149.63 206.181C151.111 207.973 152.974 209.465 155.224 209.465V204.988C155.039 204.988 154.323 204.832 153.082 203.33L149.63 206.181ZM155.224 209.465C157.079 209.465 158.49 208.461 159.387 207.003L155.574 204.657C155.428 204.894 155.326 204.963 155.308 204.974C155.299 204.98 155.295 204.981 155.292 204.982C155.289 204.983 155.269 204.988 155.224 204.988V209.465ZM159.321 207.104C160.249 205.763 160.817 203.866 161.191 201.697L156.779 200.937C156.436 202.923 156.001 204.034 155.64 204.556L159.321 207.104ZM161.188 201.714L164.089 185.596L159.683 184.803L156.782 200.92L161.188 201.714Z" fill="url(#paint0_radial_151_69)" fill-opacity="0.25"/>
<path d="M234.307 195.085C235.238 195.085 235.955 195.515 236.456 196.374C237.029 197.234 237.316 198.416 237.316 199.92C237.316 202.714 236.635 204.934 235.274 206.582C231.836 210.737 228.361 213.96 224.851 216.252C221.341 218.473 217.187 219.583 212.387 219.583C207.731 219.583 203.755 218.33 200.46 215.823C197.237 213.316 194.157 209.018 191.22 202.929C188.856 198.058 186.993 194.476 185.632 192.184C184.271 189.82 182.91 188.136 181.549 187.134C180.26 186.131 178.648 185.522 176.714 185.307C176.427 186.811 175.604 191.539 174.243 199.49C173.67 203.072 173.311 205.257 173.168 206.045C172.452 210.414 171.019 213.781 168.87 216.145C166.721 218.437 163.462 219.583 159.092 219.583C154.293 219.583 150.031 218.187 146.306 215.393C142.652 212.528 139.823 208.588 137.817 203.573C135.812 198.487 134.809 192.721 134.809 186.274C134.809 174.24 136.886 163.853 141.041 155.114C145.267 146.374 151.141 139.713 158.662 135.128C166.256 130.472 174.995 128.144 184.88 128.144C191.757 128.144 197.523 129.183 202.18 131.26C206.836 133.337 210.274 136.203 212.495 139.856C214.787 143.509 215.933 147.628 215.933 152.213C215.933 156.224 214.966 160.164 213.032 164.032C211.169 167.829 208.34 171.195 204.543 174.132C200.747 177.069 196.127 179.254 190.682 180.687C194.121 181.618 196.771 183.122 198.634 185.2C200.496 187.277 202.359 190.321 204.221 194.333C206.227 198.631 208.197 201.783 210.131 203.788C212.137 205.794 214.429 206.797 217.008 206.797C219.3 206.797 221.485 206.045 223.562 204.54C225.639 202.965 228.254 200.314 231.406 196.589C232.265 195.586 233.232 195.085 234.307 195.085ZM161.886 185.2C159.45 185.2 157.767 184.626 156.836 183.48C155.976 182.334 155.546 181.045 155.546 179.612C155.546 177.893 156.084 176.532 157.158 175.529C158.304 174.526 159.594 174.025 161.026 174.025H163.713C164.859 167.005 165.933 160.952 166.936 155.866C167.867 151.21 170.876 148.882 175.962 148.882C180.045 148.882 182.086 150.708 182.086 154.362C182.086 155.149 182.051 155.758 181.979 156.188L178.756 174.025C182.624 173.81 186.134 172.879 189.286 171.231C192.509 169.584 195.052 167.291 196.915 164.354C198.849 161.417 199.816 158.086 199.816 154.362C199.816 149.849 198.276 146.303 195.195 143.724C192.115 141.145 187.602 139.856 181.657 139.856C174.637 139.856 168.476 141.611 163.175 145.121C157.946 148.559 153.863 153.717 150.926 160.594C147.989 167.399 146.521 175.708 146.521 185.522C146.521 190.106 146.986 194.046 147.918 197.341C148.849 200.636 149.995 203.108 151.356 204.755C152.717 206.403 154.006 207.227 155.224 207.227C156.155 207.227 156.907 206.761 157.481 205.83C158.125 204.899 158.627 203.394 158.985 201.317L161.886 185.2Z" fill="#FF512F"/>
<path d="M236.456 196.374L234.522 197.502L234.556 197.56L234.593 197.616L236.456 196.374ZM235.274 206.582L236.999 208.009L237 208.008L235.274 206.582ZM224.851 216.252L226.048 218.144L226.062 218.136L226.075 218.127L224.851 216.252ZM200.46 215.823L199.086 217.59L199.095 217.597L199.105 217.604L200.46 215.823ZM191.22 202.929L193.236 201.956L193.234 201.951L191.22 202.929ZM185.632 192.184L183.692 193.301L183.7 193.314L183.707 193.327L185.632 192.184ZM181.549 187.134L180.175 188.901L180.198 188.918L180.221 188.936L181.549 187.134ZM176.714 185.307L176.961 183.082L174.903 182.853L174.515 184.888L176.714 185.307ZM174.243 199.49L172.036 199.113L172.034 199.125L172.032 199.137L174.243 199.49ZM173.168 206.045L170.966 205.644L170.962 205.663L170.959 205.683L173.168 206.045ZM168.87 216.145L170.503 217.676L170.515 217.664L170.527 217.651L168.87 216.145ZM146.306 215.393L144.924 217.154L144.943 217.169L144.963 217.184L146.306 215.393ZM137.817 203.573L135.735 204.395L135.739 204.405L137.817 203.573ZM141.041 155.114L139.026 154.139L139.022 154.146L139.019 154.153L141.041 155.114ZM158.662 135.128L159.828 137.04L159.833 137.036L158.662 135.128ZM212.495 139.856L210.582 141.019L210.59 141.032L210.599 141.046L212.495 139.856ZM213.032 164.032L211.03 163.031L211.026 163.038L211.022 163.046L213.032 164.032ZM204.543 174.132L205.913 175.903H205.913L204.543 174.132ZM190.682 180.687L190.113 178.522L182.005 180.656L190.097 182.847L190.682 180.687ZM198.634 185.2L200.3 183.705H200.3L198.634 185.2ZM204.221 194.333L202.191 195.275L202.193 195.279L204.221 194.333ZM210.131 203.788L208.519 205.342L208.534 205.357L208.548 205.371L210.131 203.788ZM223.562 204.54L224.875 206.354L224.895 206.339L224.915 206.324L223.562 204.54ZM231.406 196.589L229.706 195.132L229.702 195.138L229.697 195.143L231.406 196.589ZM161.886 185.2L164.089 185.596L164.563 182.961H161.886V185.2ZM156.836 183.48L155.045 184.823L155.071 184.858L155.098 184.892L156.836 183.48ZM157.158 175.529L155.684 173.844L155.657 173.868L155.631 173.893L157.158 175.529ZM163.713 174.025V176.263H165.615L165.922 174.385L163.713 174.025ZM166.936 155.866L164.741 155.427L164.74 155.433L166.936 155.866ZM181.979 156.188L184.182 156.586L184.185 156.571L184.187 156.556L181.979 156.188ZM178.756 174.025L176.553 173.627L176.048 176.417L178.88 176.26L178.756 174.025ZM189.286 171.231L188.267 169.238L188.258 169.243L188.249 169.247L189.286 171.231ZM196.915 164.354L195.045 163.123L195.034 163.139L195.024 163.156L196.915 164.354ZM195.195 143.724L196.632 142.008L195.195 143.724ZM163.175 145.121L164.405 146.991L164.411 146.987L163.175 145.121ZM150.926 160.594L152.981 161.481L152.985 161.473L150.926 160.594ZM147.918 197.341L145.763 197.95L147.918 197.341ZM151.356 204.755L149.63 206.181V206.181L151.356 204.755ZM157.481 205.83L155.64 204.556L155.606 204.605L155.574 204.657L157.481 205.83ZM158.985 201.317L156.782 200.92L156.78 200.929L156.779 200.937L158.985 201.317ZM234.307 197.323C234.367 197.323 234.395 197.33 234.4 197.332C234.404 197.332 234.398 197.331 234.391 197.327C234.369 197.314 234.425 197.336 234.522 197.502L238.39 195.246C237.521 193.757 236.099 192.846 234.307 192.846V197.323ZM234.593 197.616C234.833 197.976 235.077 198.666 235.077 199.92H239.554C239.554 198.165 239.225 196.492 238.319 195.133L234.593 197.616ZM235.077 199.92C235.077 202.355 234.488 204.019 233.548 205.156L237 208.008C238.782 205.85 239.554 203.072 239.554 199.92H235.077ZM233.549 205.155C230.216 209.183 226.904 212.238 223.627 214.378L226.075 218.127C229.819 215.682 233.456 212.29 236.999 208.009L233.549 205.155ZM223.655 214.361C220.556 216.321 216.83 217.345 212.387 217.345V221.822C217.543 221.822 222.127 220.625 226.048 218.144L223.655 214.361ZM212.387 217.345C208.157 217.345 204.673 216.215 201.816 214.041L199.105 217.604C202.838 220.444 207.306 221.822 212.387 221.822V217.345ZM201.835 214.056C199.006 211.856 196.109 207.913 193.236 201.956L189.203 203.901C192.204 210.122 195.468 214.775 199.086 217.59L201.835 214.056ZM193.234 201.951C190.864 197.069 188.968 193.418 187.557 191.041L183.707 193.327C185.018 195.535 186.847 199.046 189.206 203.906L193.234 201.951ZM187.572 191.067C186.14 188.58 184.594 186.596 182.877 185.331L180.221 188.936C181.227 189.677 182.402 191.06 183.692 193.301L187.572 191.067ZM182.924 185.367C181.25 184.065 179.227 183.334 176.961 183.082L176.467 187.532C178.069 187.71 179.269 188.196 180.175 188.901L182.924 185.367ZM174.515 184.888C174.224 186.418 173.395 191.173 172.036 199.113L176.449 199.868C177.812 191.905 178.631 187.204 178.913 185.726L174.515 184.888ZM172.032 199.137C171.457 202.729 171.104 204.885 170.966 205.644L175.371 206.445C175.519 205.628 175.882 203.415 176.453 199.844L172.032 199.137ZM170.959 205.683C170.287 209.784 168.98 212.696 167.214 214.639L170.527 217.651C173.058 214.866 174.617 211.044 175.377 206.407L170.959 205.683ZM167.237 214.614C165.656 216.301 163.092 217.345 159.092 217.345V221.822C163.832 221.822 167.787 220.574 170.503 217.676L167.237 214.614ZM159.092 217.345C154.761 217.345 150.974 216.096 147.649 213.602L144.963 217.184C149.088 220.277 153.825 221.822 159.092 221.822V217.345ZM147.687 213.631C144.392 211.047 141.779 207.451 139.896 202.742L135.739 204.405C137.867 209.725 140.913 214.008 144.924 217.154L147.687 213.631ZM139.9 202.752C138.014 197.97 137.047 192.489 137.047 186.274H132.57C132.57 192.953 133.609 199.005 135.735 204.395L139.9 202.752ZM137.047 186.274C137.047 174.493 139.081 164.45 143.062 156.075L139.019 154.153C134.691 163.256 132.57 173.986 132.57 186.274H137.047ZM143.056 156.088C147.115 147.696 152.711 141.377 159.828 137.04L157.497 133.217C149.571 138.048 143.419 145.053 139.026 154.139L143.056 156.088ZM159.833 137.036C167.036 132.619 175.361 130.382 184.88 130.382V125.905C174.628 125.905 165.475 128.324 157.492 133.22L159.833 137.036ZM184.88 130.382C191.546 130.382 196.98 131.391 201.267 133.304L203.092 129.216C198.067 126.974 191.968 125.905 184.88 125.905V130.382ZM201.267 133.304C205.59 135.233 208.64 137.824 210.582 141.019L214.408 138.693C211.908 134.581 208.082 131.442 203.092 129.216L201.267 133.304ZM210.599 141.046C212.653 144.32 213.695 148.021 213.695 152.213H218.172C218.172 147.235 216.921 142.699 214.391 138.666L210.599 141.046ZM213.695 152.213C213.695 155.85 212.821 159.449 211.03 163.031L215.034 165.033C217.111 160.879 218.172 156.598 218.172 152.213H213.695ZM211.022 163.046C209.33 166.496 206.737 169.606 203.174 172.362L205.913 175.903C209.943 172.785 213.009 169.161 215.042 165.018L211.022 163.046ZM203.174 172.362C199.652 175.086 195.316 177.153 190.113 178.522L191.252 182.851C196.937 181.355 201.842 179.052 205.913 175.903L203.174 172.362ZM190.097 182.847C193.233 183.697 195.463 185.017 196.967 186.694L200.3 183.705C198.079 181.228 195.009 179.539 191.268 178.526L190.097 182.847ZM196.967 186.694C198.621 188.539 200.374 191.362 202.191 195.275L206.251 193.39C204.343 189.281 202.371 186.015 200.3 183.705L196.967 186.694ZM202.193 195.279C204.24 199.667 206.335 203.076 208.519 205.342L211.742 202.234C210.059 200.489 208.213 197.594 206.25 193.386L202.193 195.279ZM208.548 205.371C210.927 207.751 213.773 209.035 217.008 209.035V204.558C215.085 204.558 213.346 203.837 211.714 202.205L208.548 205.371ZM217.008 209.035C219.827 209.035 222.463 208.1 224.875 206.354L222.249 202.727C220.506 203.99 218.773 204.558 217.008 204.558V209.035ZM224.915 206.324C227.191 204.597 229.932 201.797 233.115 198.035L229.697 195.143C226.576 198.831 224.088 201.332 222.209 202.757L224.915 206.324ZM233.105 198.046C233.646 197.415 234.033 197.323 234.307 197.323V192.846C232.432 192.846 230.885 193.757 229.706 195.132L233.105 198.046ZM161.886 182.961C159.695 182.961 158.867 182.431 158.573 182.069L155.098 184.892C156.667 186.822 159.206 187.438 161.886 187.438V182.961ZM158.627 182.137C158.058 181.379 157.785 180.56 157.785 179.612H153.308C153.308 181.529 153.895 183.29 155.045 184.823L158.627 182.137ZM157.785 179.612C157.785 178.399 158.142 177.673 158.686 177.166L155.631 173.893C154.025 175.391 153.308 177.387 153.308 179.612H157.785ZM158.632 177.214C159.398 176.543 160.172 176.263 161.026 176.263V171.786C159.015 171.786 157.21 172.509 155.684 173.844L158.632 177.214ZM161.026 176.263H163.713V171.786H161.026V176.263ZM165.922 174.385C167.065 167.381 168.136 161.354 169.132 156.299L164.74 155.433C163.731 160.55 162.652 166.628 161.503 173.664L165.922 174.385ZM169.131 156.305C169.518 154.37 170.281 153.156 171.261 152.398C172.259 151.626 173.748 151.12 175.962 151.12V146.643C173.089 146.643 170.531 147.302 168.521 148.857C166.492 150.427 165.285 152.706 164.741 155.427L169.131 156.305ZM175.962 151.12C177.716 151.12 178.613 151.518 179.063 151.92C179.465 152.279 179.848 152.948 179.848 154.362H184.325C184.325 152.121 183.688 150.05 182.048 148.583C180.456 147.159 178.291 146.643 175.962 146.643V151.12ZM179.848 154.362C179.848 155.108 179.812 155.572 179.771 155.82L184.187 156.556C184.289 155.945 184.325 155.191 184.325 154.362H179.848ZM179.776 155.79L176.553 173.627L180.958 174.423L184.182 156.586L179.776 155.79ZM178.88 176.26C183.038 176.029 186.863 175.023 190.323 173.215L188.249 169.247C185.404 170.734 182.21 171.591 178.631 171.79L178.88 176.26ZM190.304 173.224C193.869 171.402 196.719 168.842 198.805 165.553L195.024 163.156C193.385 165.74 191.149 167.765 188.267 169.238L190.304 173.224ZM198.784 165.586C200.973 162.261 202.054 158.497 202.054 154.362H197.577C197.577 157.676 196.724 160.574 195.045 163.123L198.784 165.586ZM202.054 154.362C202.054 149.278 200.287 145.067 196.632 142.008L193.758 145.44C196.264 147.538 197.577 150.419 197.577 154.362H202.054ZM196.632 142.008C192.995 138.962 187.883 137.617 181.657 137.617V142.094C187.321 142.094 191.235 143.328 193.758 145.44L196.632 142.008ZM181.657 137.617C174.245 137.617 167.645 139.477 161.939 143.254L164.411 146.987C169.308 143.745 175.029 142.094 181.657 142.094V137.617ZM161.945 143.25C156.282 146.974 151.943 152.513 148.867 159.714L152.985 161.473C155.783 154.921 159.61 150.144 164.405 146.991L161.945 143.25ZM148.871 159.707C145.781 166.867 144.282 175.497 144.282 185.522H148.759C148.759 175.919 150.198 167.931 152.981 161.481L148.871 159.707ZM144.282 185.522C144.282 190.247 144.761 194.403 145.763 197.95L150.072 196.733C149.212 193.69 148.759 189.965 148.759 185.522H144.282ZM145.763 197.95C146.734 201.385 147.988 204.193 149.63 206.181L153.082 203.33C152.002 202.023 150.963 199.888 150.072 196.733L145.763 197.95ZM149.63 206.181C151.111 207.973 152.974 209.465 155.224 209.465V204.988C155.039 204.988 154.323 204.832 153.082 203.33L149.63 206.181ZM155.224 209.465C157.079 209.465 158.49 208.461 159.387 207.003L155.574 204.657C155.428 204.894 155.326 204.963 155.308 204.974C155.299 204.98 155.295 204.981 155.292 204.982C155.289 204.983 155.269 204.988 155.224 204.988V209.465ZM159.321 207.104C160.249 205.763 160.817 203.866 161.191 201.697L156.779 200.937C156.436 202.923 156.001 204.034 155.64 204.556L159.321 207.104ZM161.188 201.714L164.089 185.596L159.683 184.803L156.782 200.92L161.188 201.714Z" fill="url(#paint1_radial_151_69)" fill-opacity="0.25"/>
<path d="M116.42 140.537C112.265 140.537 107.573 140.179 102.344 139.463C99.4789 139.105 97.509 138.352 96.4345 137.206C95.36 136.06 94.8944 134.198 95.0377 131.619C95.5391 124.527 96.7211 115.788 98.5835 105.401C100.446 94.9428 102.702 84.8784 105.353 75.2079C105.854 73.4171 106.857 72.1635 108.361 71.4472C109.866 70.7309 111.836 70.3727 114.271 70.3727C118.641 70.3727 120.826 71.5905 120.826 74.026C120.826 75.0288 120.611 76.175 120.181 77.4644C118.318 83.195 116.456 90.8956 114.593 100.566C112.731 110.165 111.406 119.334 110.618 128.073C112.767 128.288 115.202 128.395 117.924 128.395C130.46 128.395 139.808 124.599 145.969 117.006C152.201 109.413 155.317 99.2766 155.317 86.5976C155.317 78.0732 152.881 71.483 148.01 66.8269C143.139 62.1707 136.262 59.8426 127.38 59.8426C121.649 59.8426 115.955 60.7381 110.296 62.5289C104.708 64.3197 99.658 66.6836 95.1451 69.6206C94.2139 70.2653 93.211 70.5876 92.1365 70.5876C90.9188 70.5876 89.9517 70.0862 89.2354 69.0833C88.5191 68.0088 88.1609 66.7194 88.1609 65.2151C88.1609 63.4959 88.4474 62.0991 89.0205 61.0246C89.5936 59.8785 90.5606 58.8398 91.9216 57.9086C96.8643 54.5418 102.667 51.9988 109.328 50.2796C115.99 48.4888 122.401 47.5934 128.562 47.5934C137.301 47.5934 144.858 49.1335 151.234 52.2137C157.609 55.2223 162.516 59.6636 165.954 65.5375C169.393 71.4114 171.112 78.5031 171.112 86.8125C171.112 97.6291 168.963 107.085 164.665 115.179C160.367 123.202 154.099 129.434 145.861 133.875C137.624 138.317 127.81 140.537 116.42 140.537Z" fill="#FF512F"/>
<path d="M102.344 139.463L102.648 137.245L102.635 137.243L102.622 137.242L102.344 139.463ZM96.4345 137.206L94.8014 138.737H94.8014L96.4345 137.206ZM95.0377 131.619L92.8047 131.461L92.8035 131.478L92.8026 131.495L95.0377 131.619ZM98.5835 105.401L100.787 105.796L100.787 105.794L98.5835 105.401ZM105.353 75.2079L103.197 74.6043L103.194 74.6162L105.353 75.2079ZM120.181 77.4644L118.057 76.7565L118.055 76.7645L118.052 76.7725L120.181 77.4644ZM114.593 100.566L116.791 100.992L116.792 100.989L114.593 100.566ZM110.618 128.073L108.388 127.872L108.189 130.08L110.395 130.301L110.618 128.073ZM145.969 117.006L144.238 115.586L144.23 115.595L145.969 117.006ZM148.01 66.8269L149.557 65.2087L148.01 66.8269ZM110.296 62.5289L109.62 60.3947L109.612 60.3972L110.296 62.5289ZM95.1451 69.6206L93.9241 67.7444L93.8973 67.7618L93.8709 67.7801L95.1451 69.6206ZM89.2354 69.0833L87.3728 70.325L87.3929 70.3551L87.4138 70.3844L89.2354 69.0833ZM89.0205 61.0246L90.9957 62.078L91.0095 62.052L91.0227 62.0257L89.0205 61.0246ZM91.9216 57.9086L90.6614 56.0584L90.6576 56.0611L91.9216 57.9086ZM109.328 50.2796L109.888 52.4472L109.899 52.4443L109.91 52.4414L109.328 50.2796ZM151.234 52.2137L150.26 54.2293L150.269 54.2338L150.278 54.2382L151.234 52.2137ZM165.954 65.5375L167.886 64.4066L167.886 64.4066L165.954 65.5375ZM164.665 115.179L166.638 116.236L166.642 116.229L164.665 115.179ZM145.861 133.875L144.799 131.905L145.861 133.875ZM116.42 138.299C112.39 138.299 107.802 137.951 102.648 137.245L102.04 141.681C107.345 142.407 112.141 142.776 116.42 142.776V138.299ZM102.622 137.242C99.8919 136.9 98.5884 136.231 98.0676 135.675L94.8014 138.737C96.4296 140.474 99.0659 141.309 102.067 141.684L102.622 137.242ZM98.0676 135.675C97.6137 135.191 97.1425 134.088 97.2728 131.743L92.8026 131.495C92.6463 134.308 93.1063 136.929 94.8014 138.737L98.0676 135.675ZM97.2706 131.777C97.7645 124.793 98.9325 116.138 100.787 105.796L96.3801 105.006C94.5096 115.438 93.3138 124.262 92.8047 131.461L97.2706 131.777ZM100.787 105.794C102.639 95.3984 104.88 85.4007 107.512 75.7996L103.194 74.6162C100.524 84.3561 98.2534 94.4872 96.3797 105.009L100.787 105.794ZM107.508 75.8115C107.858 74.5624 108.475 73.8724 109.324 73.4683L107.399 69.4261C105.239 70.4546 103.85 72.2718 103.197 74.6044L107.508 75.8115ZM109.324 73.4683C110.421 72.9456 112.027 72.6112 114.271 72.6112V68.1342C111.644 68.1342 109.31 68.5161 107.399 69.4261L109.324 73.4683ZM114.271 72.6112C116.321 72.6112 117.502 72.9096 118.097 73.2413C118.361 73.3883 118.456 73.5119 118.495 73.5766C118.532 73.6383 118.587 73.7622 118.587 74.026H123.064C123.064 73.072 122.846 72.1304 122.337 71.2787C121.83 70.4301 121.106 69.7926 120.277 69.3307C118.687 68.4446 116.591 68.1342 114.271 68.1342V72.6112ZM118.587 74.026C118.587 74.7198 118.436 75.6199 118.057 76.7565L122.305 78.1723C122.785 76.7301 123.064 75.3379 123.064 74.026H118.587ZM118.052 76.7725C116.149 82.6285 114.266 90.4305 112.395 100.143L116.792 100.989C118.646 91.3606 120.488 83.7615 122.31 78.1563L118.052 76.7725ZM112.396 100.14C110.521 109.805 109.184 119.049 108.388 127.872L112.847 128.274C113.628 119.618 114.941 110.525 116.791 100.992L112.396 100.14ZM110.395 130.301C112.634 130.524 115.146 130.634 117.924 130.634V126.157C115.259 126.157 112.899 126.052 110.841 125.846L110.395 130.301ZM117.924 130.634C130.929 130.634 141.007 126.675 147.707 118.416L144.23 115.595C138.61 122.523 129.992 126.157 117.924 126.157V130.634ZM147.699 118.426C154.345 110.328 157.555 99.6416 157.555 86.5976H153.078C153.078 98.9116 150.056 108.497 144.238 115.586L147.699 118.426ZM157.555 86.5976C157.555 77.6337 154.98 70.3927 149.557 65.2087L146.464 68.445C150.782 72.5733 153.078 78.5128 153.078 86.5976H157.555ZM149.557 65.2087C144.151 60.0406 136.65 57.6041 127.38 57.6041V62.0812C135.875 62.0812 142.128 64.3008 146.464 68.445L149.557 65.2087ZM127.38 57.6041C121.412 57.6041 115.49 58.5372 109.62 60.3947L110.971 64.6631C116.419 62.9389 121.887 62.0812 127.38 62.0812V57.6041ZM109.612 60.3972C103.852 62.2434 98.6183 64.6894 93.9241 67.7444L96.3662 71.4968C100.698 68.6778 105.564 66.396 110.979 64.6606L109.612 60.3972ZM93.8709 67.7801C93.2926 68.1804 92.7303 68.3491 92.1365 68.3491V72.8261C93.6918 72.8261 95.1352 72.3501 96.4193 71.4611L93.8709 67.7801ZM92.1365 68.3491C91.652 68.3491 91.3591 68.2052 91.057 67.7822L87.4138 70.3844C88.5443 71.9671 90.1855 72.8261 92.1365 72.8261V68.3491ZM91.098 67.8416C90.6652 67.1924 90.3994 66.3521 90.3994 65.2151H85.9224C85.9224 67.0867 86.373 68.8253 87.3728 70.325L91.098 67.8416ZM90.3994 65.2151C90.3994 63.721 90.652 62.7224 90.9957 62.078L87.0453 59.9712C86.2429 61.4757 85.9224 63.2709 85.9224 65.2151H90.3994ZM91.0227 62.0257C91.3836 61.3038 92.0508 60.5326 93.1857 59.756L90.6576 56.0611C89.0705 57.147 87.8035 58.4531 87.0183 60.0235L91.0227 62.0257ZM93.1819 59.7587C97.8815 56.5575 103.439 54.1113 109.888 52.4472L108.769 48.1121C101.894 49.8863 95.8471 52.5261 90.6614 56.0584L93.1819 59.7587ZM109.91 52.4414C116.404 50.6955 122.62 49.8319 128.562 49.8319V45.3549C122.183 45.3549 115.576 46.2821 108.747 48.1179L109.91 52.4414ZM128.562 49.8319C137.041 49.8319 144.251 51.3261 150.26 54.2293L152.208 50.1981C145.466 46.9409 137.561 45.3549 128.562 45.3549V49.8319ZM150.278 54.2382C156.261 57.0615 160.821 61.1984 164.022 66.6683L167.886 64.4066C164.211 58.1287 158.957 53.3832 152.189 50.1893L150.278 54.2382ZM164.022 66.6683C167.22 72.1308 168.873 78.813 168.873 86.8125H173.35C173.35 78.1931 171.565 70.6919 167.886 64.4066L164.022 66.6683ZM168.873 86.8125C168.873 97.3289 166.786 106.412 162.688 114.129L166.642 116.229C171.14 107.758 173.35 97.9292 173.35 86.8125H168.873ZM162.692 114.122C158.607 121.746 152.662 127.666 144.799 131.905L146.924 135.846C155.537 131.202 162.127 124.658 166.638 116.236L162.692 114.122ZM144.799 131.905C136.951 136.136 127.519 138.299 116.42 138.299V142.776C128.101 142.776 138.296 140.497 146.924 135.846L144.799 131.905Z" fill="url(#paint2_radial_151_69)" fill-opacity="0.25"/>
<path d="M116.42 140.537C112.265 140.537 107.573 140.179 102.344 139.463C99.4789 139.105 97.509 138.352 96.4345 137.206C95.36 136.06 94.8944 134.198 95.0377 131.619C95.5391 124.527 96.7211 115.788 98.5835 105.401C100.446 94.9428 102.702 84.8784 105.353 75.2079C105.854 73.4171 106.857 72.1635 108.361 71.4472C109.866 70.7309 111.836 70.3727 114.271 70.3727C118.641 70.3727 120.826 71.5905 120.826 74.026C120.826 75.0288 120.611 76.175 120.181 77.4644C118.318 83.195 116.456 90.8956 114.593 100.566C112.731 110.165 111.406 119.334 110.618 128.073C112.767 128.288 115.202 128.395 117.924 128.395C130.46 128.395 139.808 124.599 145.969 117.006C152.201 109.413 155.317 99.2766 155.317 86.5976C155.317 78.0732 152.881 71.483 148.01 66.8269C143.139 62.1707 136.262 59.8426 127.38 59.8426C121.649 59.8426 115.955 60.7381 110.296 62.5289C104.708 64.3197 99.658 66.6836 95.1451 69.6206C94.2139 70.2653 93.211 70.5876 92.1365 70.5876C90.9188 70.5876 89.9517 70.0862 89.2354 69.0833C88.5191 68.0088 88.1609 66.7194 88.1609 65.2151C88.1609 63.4959 88.4474 62.0991 89.0205 61.0246C89.5936 59.8785 90.5606 58.8398 91.9216 57.9086C96.8643 54.5418 102.667 51.9988 109.328 50.2796C115.99 48.4888 122.401 47.5934 128.562 47.5934C137.301 47.5934 144.858 49.1335 151.234 52.2137C157.609 55.2223 162.516 59.6636 165.954 65.5375C169.393 71.4114 171.112 78.5031 171.112 86.8125C171.112 97.6291 168.963 107.085 164.665 115.179C160.367 123.202 154.099 129.434 145.861 133.875C137.624 138.317 127.81 140.537 116.42 140.537Z" fill="#FF512F"/>
<path d="M102.344 139.463L102.648 137.245L102.635 137.243L102.622 137.242L102.344 139.463ZM96.4345 137.206L94.8014 138.737H94.8014L96.4345 137.206ZM95.0377 131.619L92.8047 131.461L92.8035 131.478L92.8026 131.495L95.0377 131.619ZM98.5835 105.401L100.787 105.796L100.787 105.794L98.5835 105.401ZM105.353 75.2079L103.197 74.6043L103.194 74.6162L105.353 75.2079ZM120.181 77.4644L118.057 76.7565L118.055 76.7645L118.052 76.7725L120.181 77.4644ZM114.593 100.566L116.791 100.992L116.792 100.989L114.593 100.566ZM110.618 128.073L108.388 127.872L108.189 130.08L110.395 130.301L110.618 128.073ZM145.969 117.006L144.238 115.586L144.23 115.595L145.969 117.006ZM148.01 66.8269L149.557 65.2087L148.01 66.8269ZM110.296 62.5289L109.62 60.3947L109.612 60.3972L110.296 62.5289ZM95.1451 69.6206L93.9241 67.7444L93.8973 67.7618L93.8709 67.7801L95.1451 69.6206ZM89.2354 69.0833L87.3728 70.325L87.3929 70.3551L87.4138 70.3844L89.2354 69.0833ZM89.0205 61.0246L90.9957 62.078L91.0095 62.052L91.0227 62.0257L89.0205 61.0246ZM91.9216 57.9086L90.6614 56.0584L90.6576 56.0611L91.9216 57.9086ZM109.328 50.2796L109.888 52.4472L109.899 52.4443L109.91 52.4414L109.328 50.2796ZM151.234 52.2137L150.26 54.2293L150.269 54.2338L150.278 54.2382L151.234 52.2137ZM165.954 65.5375L167.886 64.4066L167.886 64.4066L165.954 65.5375ZM164.665 115.179L166.638 116.236L166.642 116.229L164.665 115.179ZM145.861 133.875L144.799 131.905L145.861 133.875ZM116.42 138.299C112.39 138.299 107.802 137.951 102.648 137.245L102.04 141.681C107.345 142.407 112.141 142.776 116.42 142.776V138.299ZM102.622 137.242C99.8919 136.9 98.5884 136.231 98.0676 135.675L94.8014 138.737C96.4296 140.474 99.0659 141.309 102.067 141.684L102.622 137.242ZM98.0676 135.675C97.6137 135.191 97.1425 134.088 97.2728 131.743L92.8026 131.495C92.6463 134.308 93.1063 136.929 94.8014 138.737L98.0676 135.675ZM97.2706 131.777C97.7645 124.793 98.9325 116.138 100.787 105.796L96.3801 105.006C94.5096 115.438 93.3138 124.262 92.8047 131.461L97.2706 131.777ZM100.787 105.794C102.639 95.3984 104.88 85.4007 107.512 75.7996L103.194 74.6162C100.524 84.3561 98.2534 94.4872 96.3797 105.009L100.787 105.794ZM107.508 75.8115C107.858 74.5624 108.475 73.8724 109.324 73.4683L107.399 69.4261C105.239 70.4546 103.85 72.2718 103.197 74.6044L107.508 75.8115ZM109.324 73.4683C110.421 72.9456 112.027 72.6112 114.271 72.6112V68.1342C111.644 68.1342 109.31 68.5161 107.399 69.4261L109.324 73.4683ZM114.271 72.6112C116.321 72.6112 117.502 72.9096 118.097 73.2413C118.361 73.3883 118.456 73.5119 118.495 73.5766C118.532 73.6383 118.587 73.7622 118.587 74.026H123.064C123.064 73.072 122.846 72.1304 122.337 71.2787C121.83 70.4301 121.106 69.7926 120.277 69.3307C118.687 68.4446 116.591 68.1342 114.271 68.1342V72.6112ZM118.587 74.026C118.587 74.7198 118.436 75.6199 118.057 76.7565L122.305 78.1723C122.785 76.7301 123.064 75.3379 123.064 74.026H118.587ZM118.052 76.7725C116.149 82.6285 114.266 90.4305 112.395 100.143L116.792 100.989C118.646 91.3606 120.488 83.7615 122.31 78.1563L118.052 76.7725ZM112.396 100.14C110.521 109.805 109.184 119.049 108.388 127.872L112.847 128.274C113.628 119.618 114.941 110.525 116.791 100.992L112.396 100.14ZM110.395 130.301C112.634 130.524 115.146 130.634 117.924 130.634V126.157C115.259 126.157 112.899 126.052 110.841 125.846L110.395 130.301ZM117.924 130.634C130.929 130.634 141.007 126.675 147.707 118.416L144.23 115.595C138.61 122.523 129.992 126.157 117.924 126.157V130.634ZM147.699 118.426C154.345 110.328 157.555 99.6416 157.555 86.5976H153.078C153.078 98.9116 150.056 108.497 144.238 115.586L147.699 118.426ZM157.555 86.5976C157.555 77.6337 154.98 70.3927 149.557 65.2087L146.464 68.445C150.782 72.5733 153.078 78.5128 153.078 86.5976H157.555ZM149.557 65.2087C144.151 60.0406 136.65 57.6041 127.38 57.6041V62.0812C135.875 62.0812 142.128 64.3008 146.464 68.445L149.557 65.2087ZM127.38 57.6041C121.412 57.6041 115.49 58.5372 109.62 60.3947L110.971 64.6631C116.419 62.9389 121.887 62.0812 127.38 62.0812V57.6041ZM109.612 60.3972C103.852 62.2434 98.6183 64.6894 93.9241 67.7444L96.3662 71.4968C100.698 68.6778 105.564 66.396 110.979 64.6606L109.612 60.3972ZM93.8709 67.7801C93.2926 68.1804 92.7303 68.3491 92.1365 68.3491V72.8261C93.6918 72.8261 95.1352 72.3501 96.4193 71.4611L93.8709 67.7801ZM92.1365 68.3491C91.652 68.3491 91.3591 68.2052 91.057 67.7822L87.4138 70.3844C88.5443 71.9671 90.1855 72.8261 92.1365 72.8261V68.3491ZM91.098 67.8416C90.6652 67.1924 90.3994 66.3521 90.3994 65.2151H85.9224C85.9224 67.0867 86.373 68.8253 87.3728 70.325L91.098 67.8416ZM90.3994 65.2151C90.3994 63.721 90.652 62.7224 90.9957 62.078L87.0453 59.9712C86.2429 61.4757 85.9224 63.2709 85.9224 65.2151H90.3994ZM91.0227 62.0257C91.3836 61.3038 92.0508 60.5326 93.1857 59.756L90.6576 56.0611C89.0705 57.147 87.8035 58.4531 87.0183 60.0235L91.0227 62.0257ZM93.1819 59.7587C97.8815 56.5575 103.439 54.1113 109.888 52.4472L108.769 48.1121C101.894 49.8863 95.8471 52.5261 90.6614 56.0584L93.1819 59.7587ZM109.91 52.4414C116.404 50.6955 122.62 49.8319 128.562 49.8319V45.3549C122.183 45.3549 115.576 46.2821 108.747 48.1179L109.91 52.4414ZM128.562 49.8319C137.041 49.8319 144.251 51.3261 150.26 54.2293L152.208 50.1981C145.466 46.9409 137.561 45.3549 128.562 45.3549V49.8319ZM150.278 54.2382C156.261 57.0615 160.821 61.1984 164.022 66.6683L167.886 64.4066C164.211 58.1287 158.957 53.3832 152.189 50.1893L150.278 54.2382ZM164.022 66.6683C167.22 72.1308 168.873 78.813 168.873 86.8125H173.35C173.35 78.1931 171.565 70.6919 167.886 64.4066L164.022 66.6683ZM168.873 86.8125C168.873 97.3289 166.786 106.412 162.688 114.129L166.642 116.229C171.14 107.758 173.35 97.9292 173.35 86.8125H168.873ZM162.692 114.122C158.607 121.746 152.662 127.666 144.799 131.905L146.924 135.846C155.537 131.202 162.127 124.658 166.638 116.236L162.692 114.122ZM144.799 131.905C136.951 136.136 127.519 138.299 116.42 138.299V142.776C128.101 142.776 138.296 140.497 146.924 135.846L144.799 131.905Z" fill="url(#paint3_radial_151_69)" fill-opacity="0.25"/>
<path d="M77.0462 139.411L84.6792 154.677C85.7077 156.788 88.4686 158.791 90.7964 159.224L104.601 161.498C113.425 162.96 115.482 169.347 109.148 175.735L98.3752 186.508C96.5888 188.295 95.5602 191.813 96.1557 194.358L99.2413 207.675C101.677 218.177 96.0474 222.291 86.7904 216.769L73.8523 209.082C71.5245 207.675 67.6268 207.675 65.299 209.082L52.3609 216.769C43.1039 222.237 37.4739 218.177 39.9099 207.675L42.9956 194.358C43.4828 191.759 42.4542 188.24 40.6678 186.454L29.895 175.681C23.5613 169.347 25.6184 162.96 34.4423 161.444L48.2466 159.17C50.5744 158.791 53.3353 156.734 54.3638 154.623L61.9968 139.357C66.1652 131.129 72.8778 131.129 77.0462 139.411V139.411ZM37.0408 142.329H4.56009C2.34057 142.329 0.5 140.488 0.5 138.269C0.5 136.049 2.34057 134.209 4.56009 134.209H37.0408C39.2603 134.209 41.1009 136.049 41.1009 138.269C41.1009 140.488 39.2603 142.329 37.0408 142.329ZM20.8004 218.117H4.56009C2.34057 218.117 0.5 216.277 0.5 214.057C0.5 211.838 2.34057 209.997 4.56009 209.997H20.8004C23.02 209.997 24.8605 211.838 24.8605 214.057C24.8605 216.277 23.02 218.117 20.8004 218.117ZM9.97354 180.223H4.56009C2.34057 180.223 0.5 178.383 0.5 176.163C0.5 173.944 2.34057 172.103 4.56009 172.103H9.97354C12.1931 172.103 14.0336 173.944 14.0336 176.163C14.0336 178.383 12.1931 180.223 9.97354 180.223Z" fill="#FF512F"/>
<defs>
<radialGradient id="paint0_radial_151_69" cx="0" cy="0" r="1" gradientUnits="userSpaceOnUse" gradientTransform="translate(143.905 139.684) rotate(65.3189) scale(102.485 76.3654)">
<stop stop-color="#FDE047"/>
<stop offset="0.544351" stop-opacity="0"/>
</radialGradient>
<radialGradient id="paint1_radial_151_69" cx="0" cy="0" r="1" gradientUnits="userSpaceOnUse" gradientTransform="translate(143.905 139.684) rotate(65.3189) scale(102.485 76.3654)">
<stop stop-color="#FDE047"/>
<stop offset="0.544351" stop-opacity="0"/>
</radialGradient>
<radialGradient id="paint2_radial_151_69" cx="0" cy="0" r="1" gradientUnits="userSpaceOnUse" gradientTransform="translate(98.3316 60.6382) rotate(65.3189) scale(102.485 76.3654)">
<stop stop-color="#FDE047"/>
<stop offset="0.544351" stop-opacity="0"/>
</radialGradient>
<radialGradient id="paint3_radial_151_69" cx="0" cy="0" r="1" gradientUnits="userSpaceOnUse" gradientTransform="translate(98.3316 60.6382) rotate(65.3189) scale(102.485 76.3654)">
<stop stop-color="#FDE047"/>
<stop offset="0.544351" stop-opacity="0"/>
</radialGradient>
</defs>
</svg>
