<svg width="293" height="293" viewBox="0 0 293 293" fill="none" xmlns="http://www.w3.org/2000/svg">
<path d="M147.5 198.757C120.754 278.291 14.709 278.291 14.709 278.291C14.709 278.291 14.709 172.246 94.2428 145.5L147.5 198.757Z" fill="url(#paint0_linear_143_2)"/>
<path d="M234.39 128.153V227.324C234.344 230.564 233.019 233.654 230.705 235.921L181.12 285.66C179.547 287.231 177.577 288.346 175.419 288.886C173.262 289.425 170.999 289.368 168.872 288.722C166.744 288.076 164.832 286.864 163.339 285.217C161.846 283.569 160.829 281.547 160.395 279.366L147.5 215.043L234.39 128.153Z" fill="#212121"/>
<path d="M164.848 58.6101H115.262H65.6765C62.4371 58.6562 59.3472 59.9805 57.0797 62.2945L7.3406 111.88C5.76927 113.453 4.6545 115.423 4.11521 117.58C3.57593 119.738 3.63236 122.001 4.2785 124.128C4.92463 126.256 6.13623 128.168 7.78401 129.661C9.4318 131.154 11.454 132.171 13.6347 132.605L77.9578 145.5L164.848 58.6101Z" fill="#212121"/>
<path d="M145.197 198.757C118.451 278.291 12.4062 278.291 12.4062 278.291C12.4062 278.291 12.4062 172.246 91.9401 145.5" stroke="#131313" stroke-width="6.76642" stroke-linecap="round" stroke-linejoin="round"/>
<path d="M251.737 110.805L147.5 215.042L77.9577 145.5L182.195 41.2626C221.648 1.80912 261.102 2.26967 277.989 4.72592C280.594 5.07357 283.013 6.26906 284.872 8.12793C286.731 9.98679 287.926 12.4057 288.274 15.0115C290.73 31.8982 291.191 71.3517 251.737 110.805Z" fill="url(#paint1_linear_143_2)" stroke="#131313" stroke-width="6.14062" stroke-linecap="round" stroke-linejoin="round"/>
<path d="M234.39 128.153V227.324C234.344 230.564 233.019 233.654 230.705 235.921L181.12 285.66C179.547 287.231 177.577 288.346 175.419 288.886C173.262 289.425 170.999 289.368 168.872 288.722C166.744 288.076 164.832 286.864 163.339 285.217C161.846 283.569 160.829 281.547 160.395 279.366L147.5 215.043" stroke="#131313" stroke-width="6.14062" stroke-linecap="round" stroke-linejoin="round"/>
<path d="M164.848 58.6101H65.6765C62.4371 58.6562 59.3472 59.9805 57.0797 62.2945L7.3406 111.88C5.76927 113.453 4.6545 115.423 4.11521 117.58C3.57593 119.738 3.63236 122.001 4.2785 124.128C4.92463 126.256 6.13622 128.168 7.78401 129.661C9.4318 131.154 11.454 132.171 13.6347 132.605L77.9578 145.5" stroke="#131313" stroke-width="6.14062" stroke-linecap="round" stroke-linejoin="round"/>
<defs>
<linearGradient id="paint0_linear_143_2" x1="108.5" y1="185.5" x2="12" y2="281.5" gradientUnits="userSpaceOnUse">
<stop stop-color="#FF512F"/>
<stop offset="1" stop-color="#DD2476"/>
</linearGradient>
<linearGradient id="paint1_linear_143_2" x1="334.789" y1="-78.6328" x2="79.9531" y2="243.75" gradientUnits="userSpaceOnUse">
<stop stop-color="#A3A3A3" stop-opacity="0.07"/>
<stop offset="0.640849" stop-color="#A3A3A3"/>
</linearGradient>
</defs>
</svg>
