<svg width="522" height="523" viewBox="0 0 522 523" fill="none" xmlns="http://www.w3.org/2000/svg">
<path d="M262.83 354.976C214.967 497.305 25.1948 497.305 25.1948 497.305C25.1948 497.305 25.1948 307.532 167.524 259.67L262.83 354.976Z" fill="url(#paint0_linear_148_25)"/>
<path d="M418.323 228.627V406.097C418.24 411.894 415.87 417.424 411.729 421.482L322.994 510.492C320.179 513.304 316.653 515.299 312.793 516.264C308.933 517.229 304.883 517.128 301.076 515.972C297.268 514.815 293.846 512.647 291.175 509.698C288.503 506.75 286.682 503.131 285.906 499.228L262.83 384.12L418.323 228.627Z" fill="#212121"/>
<path d="M293.874 104.177H205.139H116.403C110.606 104.259 105.077 106.629 101.019 110.77L12.0088 199.505C9.19682 202.32 7.20188 205.846 6.2368 209.706C5.27173 213.567 5.37273 217.616 6.52901 221.424C7.6853 225.231 9.85349 228.653 12.8023 231.324C15.7511 233.996 19.3698 235.817 23.2724 236.593L138.381 259.669L293.874 104.177Z" fill="#212121"/>
<path d="M258.709 354.975C210.846 497.305 21.0739 497.305 21.0739 497.305C21.0739 497.305 21.0739 307.532 163.403 259.67" stroke="#131313" stroke-width="12.1088" stroke-linecap="round" stroke-linejoin="round"/>
<path d="M449.367 197.582L262.83 384.118L138.381 259.669L324.918 73.1326C395.521 2.52891 466.125 3.35308 496.344 7.74864C501.007 8.37077 505.336 10.5101 508.663 13.8367C511.989 17.1632 514.129 21.492 514.751 26.1551C519.146 56.3745 519.971 126.978 449.367 197.582Z" fill="#A3A3A3" stroke="#131313" stroke-width="10.9889" stroke-linecap="round" stroke-linejoin="round"/>
<path d="M418.323 228.627V406.097C418.24 411.894 415.87 417.424 411.729 421.482L322.994 510.492C320.179 513.304 316.653 515.299 312.793 516.264C308.933 517.229 304.883 517.128 301.076 515.972C297.268 514.815 293.846 512.647 291.175 509.698C288.503 506.75 286.682 503.131 285.906 499.228L262.83 384.12" stroke="#131313" stroke-width="10.9889" stroke-linecap="round" stroke-linejoin="round"/>
<path d="M293.874 104.177H116.403C110.606 104.259 105.077 106.629 101.019 110.77L12.0088 199.505C9.19682 202.32 7.20188 205.846 6.2368 209.706C5.27173 213.567 5.37273 217.616 6.52901 221.424C7.6853 225.231 9.85349 228.653 12.8023 231.324C15.7511 233.996 19.3698 235.817 23.2724 236.593L138.381 259.669" stroke="#131313" stroke-width="10.9889" stroke-linecap="round" stroke-linejoin="round"/>
<path d="M341.24 208.959C341.853 208.291 342.509 207.829 343.208 207.573C343.906 207.306 344.605 207.256 345.305 207.423C346.01 207.584 346.676 207.952 347.304 208.528C347.931 209.103 348.356 209.735 348.577 210.424C348.798 211.101 348.805 211.799 348.6 212.518C348.394 213.225 347.985 213.913 347.372 214.582L345.621 216.49L339.49 210.868L341.24 208.959ZM346.712 213.977C347.438 213.185 347.784 212.39 347.749 211.592C347.709 210.788 347.31 210.04 346.554 209.346C345.791 208.647 345.002 208.312 344.187 208.342C343.377 208.366 342.612 208.77 341.891 209.556L340.875 210.665L345.695 215.085L346.712 213.977ZM346.578 204.445L348.628 206.325L350.677 204.09L351.336 204.695L349.288 206.929L351.399 208.865L353.69 206.367L354.349 206.972L351.324 210.271L345.184 204.641L348.209 201.342L348.869 201.947L346.578 204.445ZM353.975 195.072L357.985 203.008L357.138 203.931L348.885 200.622L349.668 199.769L356.721 202.691L353.201 195.916L353.975 195.072ZM356.165 193.99L358.215 195.87L360.263 193.635L360.923 194.24L358.874 196.475L360.986 198.411L363.276 195.913L363.936 196.518L360.911 199.816L354.771 194.186L357.796 190.887L358.456 191.492L356.165 193.99ZM365.13 193.909L367.098 191.762L367.749 192.359L365.047 195.306L358.916 189.684L359.65 188.883L365.13 193.909ZM371.139 188.786C370.618 189.355 370.01 189.753 369.316 189.98C368.616 190.202 367.902 190.233 367.174 190.073C366.446 189.902 365.783 189.542 365.184 188.993C364.586 188.445 364.173 187.818 363.946 187.112C363.717 186.396 363.687 185.682 363.853 184.971C364.013 184.254 364.354 183.611 364.876 183.043C365.403 182.468 366.017 182.07 366.716 181.848C367.411 181.621 368.119 181.59 368.841 181.756C369.564 181.922 370.227 182.282 370.831 182.835C371.435 183.389 371.851 184.019 372.078 184.724C372.306 185.43 372.34 186.141 372.179 186.857C372.013 187.568 371.666 188.211 371.139 188.786ZM370.444 188.149C370.837 187.721 371.089 187.245 371.202 186.722C371.32 186.193 371.283 185.663 371.091 185.13C370.904 184.592 370.567 184.1 370.081 183.654C369.588 183.202 369.069 182.909 368.522 182.775C367.975 182.63 367.446 182.636 366.935 182.793C366.424 182.95 365.969 183.246 365.571 183.68C365.173 184.114 364.918 184.592 364.805 185.115C364.693 185.638 364.73 186.169 364.916 186.707C365.103 187.234 365.442 187.723 365.935 188.175C366.421 188.621 366.938 188.917 367.485 189.062C368.037 189.202 368.569 189.193 369.08 189.036C369.597 188.872 370.052 188.577 370.444 188.149ZM374.292 176.518C374.802 176.986 375.066 177.552 375.084 178.215C375.101 178.868 374.781 179.552 374.125 180.267L373.044 181.446L375.604 183.793L374.87 184.594L368.739 178.972L370.554 176.992C371.188 176.3 371.837 175.929 372.499 175.877C373.167 175.82 373.764 176.034 374.292 176.518ZM373.465 179.662C373.874 179.217 374.078 178.799 374.078 178.411C374.079 178.022 373.9 177.664 373.542 177.336C372.785 176.642 372.009 176.729 371.213 177.597L370.132 178.776L372.384 180.841L373.465 179.662ZM374.795 173.674L376.845 175.553L378.893 173.319L379.553 173.924L377.504 176.158L379.616 178.094L381.906 175.596L382.566 176.201L379.541 179.5L373.401 173.869L376.426 170.571L377.086 171.176L374.795 173.674ZM386.637 171.761L382.791 170.923L381.904 171.89L384.411 174.189L383.677 174.99L377.546 169.367L379.361 167.388C379.785 166.925 380.222 166.607 380.671 166.436C381.125 166.259 381.56 166.214 381.975 166.303C382.389 166.392 382.77 166.596 383.116 166.913C383.538 167.3 383.798 167.765 383.894 168.307C383.996 168.843 383.877 169.403 383.536 169.986L387.517 170.802L386.637 171.761ZM381.262 171.301L382.343 170.123C382.741 169.689 382.933 169.266 382.921 168.856C382.903 168.44 382.715 168.068 382.358 167.74C381.994 167.406 381.613 167.257 381.215 167.291C380.822 167.319 380.424 167.553 380.02 167.993L378.939 169.172L381.262 171.301ZM392.695 162.418L390.243 165.092L391.155 166.835L390.38 167.68L386.317 159.873L387.164 158.949L395.285 162.331L394.51 163.176L392.695 162.418ZM391.834 162.05L387.721 160.319L389.802 164.267L391.834 162.05ZM392.826 158.849C392.228 158.3 391.815 157.674 391.587 156.968C391.354 156.257 391.315 155.547 391.47 154.836C391.63 154.12 391.971 153.477 392.493 152.908C393.106 152.239 393.802 151.804 394.582 151.601C395.362 151.398 396.152 151.454 396.954 151.769L396.075 152.728C395.55 152.559 395.039 152.544 394.544 152.684C394.055 152.818 393.605 153.108 393.197 153.553C392.804 153.981 392.551 154.457 392.439 154.98C392.326 155.503 392.366 156.031 392.558 156.563C392.744 157.09 393.084 157.579 393.576 158.031C394.063 158.477 394.58 158.773 395.127 158.918C395.668 159.058 396.194 159.05 396.705 158.892C397.217 158.735 397.669 158.442 398.061 158.014C398.47 157.568 398.723 157.098 398.82 156.604C398.916 156.099 398.857 155.592 398.644 155.083L399.523 154.124C399.9 154.891 400.021 155.671 399.886 156.465C399.746 157.254 399.369 157.983 398.756 158.651C398.234 159.22 397.627 159.618 396.932 159.845C396.238 160.061 395.529 160.086 394.807 159.921C394.085 159.755 393.424 159.398 392.826 158.849ZM404.361 149.695L401.909 152.37L402.821 154.113L402.047 154.957L397.983 147.15L398.83 146.227L406.951 149.609L406.177 150.453L404.361 149.695ZM403.501 149.327L399.388 147.596L401.468 151.544L403.501 149.327ZM403.456 141.111C404.069 140.443 404.725 139.981 405.423 139.725C406.121 139.459 406.82 139.409 407.52 139.575C408.226 139.736 408.892 140.104 409.519 140.68C410.147 141.255 410.571 141.887 410.793 142.576C411.013 143.254 411.021 143.952 410.816 144.67C410.61 145.377 410.2 146.065 409.587 146.734L407.837 148.643L401.706 143.02L403.456 141.111ZM408.928 146.129C409.654 145.337 409.999 144.542 409.965 143.744C409.924 142.94 409.526 142.192 408.769 141.498C408.007 140.799 407.218 140.464 406.403 140.494C405.593 140.518 404.828 140.922 404.107 141.708L403.091 142.817L407.911 147.237L408.928 146.129ZM408.794 136.597L410.843 138.477L412.892 136.242L413.552 136.847L411.503 139.082L413.614 141.018L415.905 138.519L416.565 139.124L413.54 142.423L407.4 136.793L410.425 133.494L411.085 134.099L408.794 136.597ZM417.291 126.112L423.379 131.694L422.645 132.494L418.106 128.332L420.789 134.517L420.273 135.08L413.862 132.942L418.41 137.113L417.676 137.913L411.588 132.331L412.379 131.469L419.476 133.831L416.509 126.965L417.291 126.112ZM422.429 120.421L424.415 125.919L426.729 128.04L425.995 128.841L423.681 126.719L418.024 125.224L418.839 124.336L423.332 125.67L421.614 121.31L422.429 120.421Z" fill="#18181B"/>
<path d="M276.754 272.283C275.507 273.644 273.981 275.072 272.176 276.57C271.198 277.401 270.36 277.82 269.662 277.827C268.964 277.835 268.214 277.428 267.413 276.607C265.241 274.313 262.734 271.302 259.892 267.573C257.027 263.823 254.408 260.061 252.037 256.29C251.602 255.588 251.492 254.883 251.709 254.175C251.926 253.467 252.401 252.715 253.132 251.917C254.444 250.486 255.499 250.136 256.297 250.868C256.625 251.169 256.936 251.583 257.229 252.111C258.546 254.442 260.509 257.364 263.116 260.878C265.7 264.371 268.305 267.558 270.93 270.44C271.646 269.801 272.413 269.036 273.23 268.144C276.994 264.039 278.558 259.838 277.922 255.54C277.306 251.219 274.923 247.155 270.771 243.348C267.979 240.788 265.09 239.607 262.102 239.804C259.115 240.001 256.288 241.554 253.62 244.462C251.899 246.339 250.483 248.473 249.37 250.864C248.278 253.231 247.536 255.595 247.142 257.955C247.074 258.453 246.878 258.878 246.556 259.23C246.19 259.629 245.735 259.795 245.192 259.728C244.625 259.64 244.095 259.37 243.603 258.919C243.04 258.403 242.668 257.889 242.488 257.379C242.285 256.847 242.235 256.218 242.339 255.493C242.721 252.864 243.63 250.2 245.068 247.502C246.482 244.783 248.114 242.414 249.964 240.397C252.588 237.535 255.362 235.523 258.285 234.36C261.185 233.176 264.112 232.902 267.069 233.54C270.025 234.178 272.863 235.745 275.584 238.24C279.126 241.488 281.578 245.031 282.938 248.869C284.274 252.686 284.433 256.61 283.414 260.641C282.394 264.673 280.175 268.553 276.754 272.283ZM301.705 228.968C301.985 228.663 302.341 228.557 302.773 228.651C303.227 228.722 303.7 228.983 304.192 229.434C305.131 230.295 305.653 231.185 305.761 232.103C306.021 233.939 305.865 236.064 305.293 238.476C304.744 240.865 303.641 242.963 301.984 244.769C299.726 247.232 297.304 248.531 294.719 248.665C292.135 248.8 289.681 247.802 287.359 245.673C285.74 244.189 284.551 242.472 283.79 240.522C283.007 238.551 282.753 236.591 283.029 234.642C283.327 232.669 284.174 230.921 285.573 229.396C286.82 228.035 288.231 227.321 289.805 227.253C291.355 227.163 292.822 227.753 294.207 229.022C295.825 230.506 296.683 232.373 296.78 234.621C296.876 236.825 295.995 239.622 294.137 243.014C295.753 243.417 297.315 242.798 298.82 241.155C299.788 240.1 300.522 238.57 301.021 236.566C301.518 234.517 301.62 232.452 301.327 230.369C301.257 229.787 301.383 229.32 301.705 228.968ZM288.472 233.156C287.676 234.024 287.503 235.226 287.953 236.76C288.424 238.272 289.374 239.684 290.805 240.996L290.876 241.06C291.817 239.375 292.324 237.833 292.399 236.433C292.473 235.033 292.077 233.935 291.209 233.139C290.763 232.73 290.293 232.537 289.798 232.558C289.301 232.535 288.86 232.734 288.472 233.156ZM311.711 234.162C310.808 235.147 309.734 235.588 308.491 235.484C307.224 235.358 305.705 234.613 303.934 233.248C300.392 230.518 297.389 228.024 294.926 225.765L293.694 224.636C292.942 223.903 292.596 223.197 292.656 222.519C292.717 221.84 293.113 221.102 293.845 220.305C294.404 219.695 294.953 219.378 295.493 219.355C296.031 219.286 296.616 219.543 297.249 220.123C299.947 222.597 303.605 225.649 308.222 229.278C307.411 226.678 306.624 224.358 305.859 222.318C305.093 220.234 303.924 217.672 302.35 214.631C301.883 213.728 301.726 212.958 301.879 212.32C302.008 211.661 302.363 211.015 302.944 210.382C304.127 209.092 305.129 208.823 305.95 209.576C306.231 209.834 306.532 210.283 306.853 210.922C309.544 216.888 311.476 221.963 312.648 226.147C313.232 228.194 313.427 229.819 313.231 231.021C313.035 232.223 312.528 233.27 311.711 234.162ZM352.332 173.759C352.611 173.454 352.967 173.348 353.399 173.442C353.853 173.513 354.326 173.774 354.818 174.225C355.733 175.064 356.256 175.954 356.387 176.894C356.715 179.268 356.727 181.374 356.424 183.211C356.097 185.028 355.213 186.722 353.772 188.293C352.374 189.818 350.769 190.744 348.959 191.07C347.17 191.372 344.837 191.091 341.962 190.224C339.657 189.535 337.924 189.07 336.765 188.827C335.582 188.563 334.622 188.503 333.885 188.648C333.17 188.769 332.486 189.114 331.835 189.683C332.242 190.228 333.542 191.918 335.738 194.751C336.738 196.014 337.346 196.787 337.561 197.071C338.777 198.618 339.449 200.098 339.578 201.511C339.684 202.904 339.08 204.315 337.768 205.746C336.327 207.318 334.589 208.294 332.556 208.675C330.521 209.011 328.381 208.754 326.137 207.905C323.869 207.035 321.679 205.632 319.568 203.696C315.627 200.082 312.85 196.283 311.235 192.298C309.643 188.29 309.225 184.365 309.982 180.526C310.738 176.641 312.599 173.08 315.568 169.843C317.633 167.591 319.705 166.014 321.783 165.114C323.862 164.213 325.832 163.947 327.696 164.317C329.58 164.663 331.273 165.525 332.775 166.901C334.088 168.106 335.088 169.606 335.774 171.401C336.458 173.151 336.711 175.088 336.532 177.213C336.354 179.339 335.682 181.508 334.517 183.721C335.854 182.874 337.143 182.458 338.382 182.472C339.622 182.486 341.178 182.79 343.051 183.385C345.061 184.019 346.684 184.32 347.922 184.289C349.181 184.235 350.198 183.785 350.972 182.941C351.66 182.19 352.07 181.249 352.201 180.117C352.309 178.963 352.226 177.311 351.953 175.16C351.883 174.578 352.009 174.11 352.332 173.759ZM327.347 194.506C326.616 195.304 325.923 195.683 325.268 195.644C324.634 195.581 324.083 195.334 323.614 194.904C323.051 194.388 322.766 193.803 322.761 193.15C322.776 192.474 322.999 191.901 323.43 191.432L324.236 190.552C322.282 188.069 320.622 185.899 319.258 184.044C318.013 182.341 318.154 180.656 319.681 178.991C320.907 177.654 322.118 177.534 323.315 178.631C323.573 178.867 323.761 179.062 323.88 179.214L328.753 185.626C329.845 184.295 330.594 182.866 331.001 181.339C331.429 179.788 331.442 178.267 331.04 176.776C330.659 175.26 329.858 173.943 328.638 172.825C327.161 171.47 325.537 170.909 323.767 171.144C321.998 171.378 320.221 172.468 318.435 174.415C316.327 176.714 315.052 179.259 314.61 182.049C314.165 184.794 314.628 187.679 315.998 190.706C317.345 193.711 319.625 196.688 322.839 199.635C324.34 201.011 325.77 202.042 327.129 202.726C328.487 203.411 329.641 203.778 330.589 203.827C331.537 203.876 332.194 203.701 332.56 203.302C332.84 202.997 332.913 202.611 332.78 202.144C332.669 201.653 332.327 201.037 331.754 200.296L327.347 194.506ZM361.931 179.395C360.963 180.451 359.687 180.878 358.101 180.676C356.513 180.429 354.993 179.639 353.538 178.306C351.779 176.692 350.279 175.102 349.04 173.533C347.777 171.944 346.572 170.126 345.425 168.081C344.937 167.201 344.733 166.41 344.816 165.708C344.898 165.006 345.358 164.198 346.197 163.283C346.671 162.767 347.075 162.49 347.412 162.453C347.769 162.393 348.112 162.513 348.441 162.814C348.629 162.986 349.144 163.696 349.986 164.944C350.639 165.974 351.253 166.882 351.827 167.668C353.86 170.396 355.287 172.137 356.108 172.889C356.601 173.341 357.006 173.605 357.325 173.681C357.62 173.736 357.886 173.635 358.123 173.377C358.445 173.025 358.492 172.268 358.261 171.107C358.052 169.922 357.501 168.38 356.608 166.482C355.736 164.56 354.515 162.36 352.943 159.882C352.411 159.049 352.165 158.305 352.204 157.65C352.265 156.972 352.65 156.246 353.36 155.472C353.855 154.932 354.27 154.621 354.604 154.539C354.915 154.436 355.246 154.545 355.598 154.868C356.184 155.406 357.522 157.172 359.612 160.168C362.012 163.578 363.564 165.606 364.268 166.251C364.714 166.66 365.152 166.889 365.582 166.938C365.988 166.965 366.332 166.826 366.611 166.521C367.041 166.052 367.265 165.243 367.283 164.093C367.299 162.899 367.157 161.17 366.856 158.908C366.786 158.326 366.912 157.858 367.235 157.506C367.514 157.201 367.87 157.096 368.302 157.19C368.756 157.26 369.229 157.521 369.721 157.973C370.66 158.834 371.183 159.723 371.29 160.642C371.608 162.791 371.628 164.817 371.35 166.722C371.094 168.602 370.288 170.282 368.933 171.76C367.901 172.886 366.703 173.32 365.34 173.064C363.999 172.784 362.543 171.924 360.971 170.483C362.2 172.344 362.883 174.072 363.02 175.665C363.133 177.237 362.77 178.48 361.931 179.395ZM375.835 164.233C375.018 165.124 373.968 165.327 372.685 164.842C371.424 164.334 369.762 163.133 367.697 161.24C364.648 158.444 362.149 155.353 360.2 151.968C359.713 151.133 359.533 150.342 359.658 149.593C359.781 148.799 360.241 147.968 361.037 147.1C361.467 146.631 361.827 146.356 362.116 146.276C362.406 146.196 362.714 146.307 363.043 146.608C363.418 146.952 364.101 147.902 365.092 149.459C365.815 150.554 366.464 151.494 367.039 152.28C367.614 153.066 368.374 153.98 369.32 155.02C368.013 152.396 367.167 150.022 366.782 147.899C366.397 145.776 366.354 144.009 366.654 142.6C366.975 141.166 367.49 140.063 368.2 139.289C369.598 137.764 371.059 137.701 372.584 139.099C373.499 139.938 374.916 141.712 376.836 144.423C378.468 146.74 379.612 148.199 380.269 148.802C381.207 149.662 381.988 149.752 382.612 149.072C383.043 148.603 383.267 147.793 383.284 146.644C383.3 145.449 383.158 143.721 382.857 141.459C382.787 140.876 382.913 140.409 383.236 140.057C383.515 139.752 383.871 139.646 384.303 139.74C384.757 139.811 385.23 140.072 385.722 140.524C386.661 141.384 387.184 142.274 387.291 143.193C387.609 145.341 387.629 147.368 387.352 149.272C387.095 151.153 386.289 152.832 384.934 154.31C383.837 155.506 382.669 156.098 381.429 156.084C380.166 156.048 378.878 155.428 377.564 154.224C376.907 153.621 375.885 152.382 374.497 150.505C373.299 148.844 372.418 147.756 371.855 147.24C371.48 146.896 371.174 146.853 370.938 147.111C370.658 147.416 370.659 148.215 370.94 149.51C371.219 150.759 371.735 152.269 372.488 154.038C373.262 155.784 374.203 157.489 375.311 159.153C376.177 160.422 376.648 161.416 376.724 162.133C376.798 162.806 376.502 163.506 375.835 164.233ZM391.842 146.777C391.025 147.668 389.975 147.871 388.692 147.386C387.431 146.878 385.769 145.677 383.704 143.784C380.655 140.988 378.156 137.897 376.207 134.512C375.72 133.678 375.54 132.886 375.665 132.137C375.788 131.343 376.248 130.512 377.044 129.644C377.474 129.175 377.834 128.901 378.123 128.82C378.412 128.74 378.721 128.851 379.05 129.152C379.425 129.496 380.108 130.446 381.099 132.003C381.822 133.098 382.471 134.038 383.046 134.825C383.621 135.611 384.381 136.524 385.327 137.564C384.02 134.94 383.173 132.566 382.789 130.443C382.404 128.32 382.361 126.553 382.661 125.144C382.981 123.711 383.497 122.607 384.207 121.833C385.605 120.308 387.066 120.245 388.591 121.643C389.506 122.482 390.923 124.256 392.843 126.967C394.475 129.284 395.619 130.743 396.276 131.346C397.214 132.206 397.995 132.296 398.619 131.616C399.049 131.147 399.273 130.337 399.291 129.188C399.307 127.993 399.165 126.265 398.864 124.003C398.794 123.42 398.92 122.953 399.242 122.601C399.522 122.296 399.878 122.19 400.31 122.284C400.764 122.355 401.237 122.616 401.729 123.068C402.668 123.928 403.19 124.818 403.298 125.737C403.616 127.885 403.636 129.912 403.358 131.816C403.102 133.697 402.296 135.376 400.941 136.854C399.844 138.05 398.676 138.642 397.436 138.628C396.173 138.592 394.885 137.972 393.571 136.768C392.914 136.165 391.892 134.926 390.504 133.049C389.306 131.388 388.425 130.3 387.862 129.784C387.487 129.44 387.181 129.397 386.944 129.655C386.665 129.96 386.666 130.759 386.947 132.054C387.226 133.303 387.742 134.813 388.495 136.582C389.269 138.328 390.21 140.033 391.318 141.697C392.184 142.966 392.655 143.96 392.731 144.677C392.805 145.35 392.509 146.05 391.842 146.777ZM390.89 109.883C389.986 110.868 389.086 111.403 388.188 111.487C387.267 111.549 386.396 111.204 385.575 110.451C384.754 109.698 384.364 108.758 384.406 107.629C384.445 106.456 384.906 105.389 385.788 104.427C386.583 103.559 387.44 103.049 388.357 102.897C389.274 102.744 390.119 103.023 390.894 103.733C391.832 104.593 392.303 105.587 392.307 106.713C392.287 107.818 391.814 108.874 390.89 109.883ZM409.527 127.491C408.128 129.016 406.567 129.635 404.843 129.35C403.14 129.04 401.397 128.068 399.614 126.434C398.559 125.466 397.328 124.1 395.923 122.336C394.515 120.527 393.29 118.756 392.246 117.021C391.689 116.122 391.431 115.367 391.472 114.757C391.513 114.147 391.889 113.455 392.599 112.681C393.696 111.485 394.643 111.252 395.441 111.984C396.027 112.521 397.183 113.992 398.909 116.395C400.973 119.324 402.463 121.208 403.378 122.047C404.081 122.692 404.707 123.093 405.254 123.25C405.802 123.406 406.28 123.262 406.689 122.816C407.076 122.394 407.267 121.597 407.261 120.426C407.255 119.255 407.103 117.561 406.804 115.343C406.734 114.761 406.86 114.294 407.183 113.942C407.463 113.637 407.818 113.531 408.25 113.625C408.704 113.696 409.177 113.957 409.67 114.408C410.608 115.269 411.131 116.159 411.238 117.077C411.947 122.003 411.377 125.474 409.527 127.491ZM415.789 120.662C414.972 121.553 413.922 121.756 412.639 121.271C411.378 120.763 409.716 119.562 407.652 117.669C404.602 114.872 402.103 111.782 400.154 108.397C399.668 107.562 399.487 106.77 399.612 106.022C399.735 105.228 400.195 104.397 400.991 103.529C401.421 103.06 401.781 102.785 402.07 102.705C402.36 102.625 402.669 102.736 402.997 103.037C403.372 103.381 404.055 104.331 405.046 105.888C405.77 106.983 406.419 107.923 406.993 108.709C407.568 109.495 408.328 110.409 409.274 111.449C407.967 108.825 407.121 106.451 406.736 104.328C406.351 102.204 406.308 100.438 406.608 99.0284C406.929 97.5954 407.444 96.4918 408.154 95.7177C409.552 94.1929 411.014 94.1296 412.538 95.5278C413.453 96.3667 414.87 98.1413 416.79 100.851C418.422 103.169 419.566 104.628 420.223 105.231C421.162 106.091 421.943 106.181 422.566 105.501C422.997 105.032 423.221 104.222 423.238 103.073C423.254 101.878 423.112 100.15 422.811 97.8875C422.741 97.3049 422.867 96.8376 423.19 96.4857C423.469 96.1808 423.825 96.0753 424.257 96.1692C424.711 96.2397 425.184 96.5008 425.677 96.9525C426.615 97.8129 427.138 98.7026 427.245 99.6215C427.563 101.77 427.584 103.797 427.306 105.701C427.049 107.582 426.243 109.261 424.888 110.739C423.791 111.935 422.623 112.527 421.383 112.513C420.12 112.477 418.832 111.857 417.518 110.653C416.862 110.05 415.839 108.811 414.451 106.933C413.253 105.273 412.373 104.185 411.81 103.669C411.434 103.325 411.128 103.282 410.892 103.54C410.612 103.845 410.613 104.644 410.894 105.939C411.174 107.188 411.689 108.697 412.442 110.467C413.216 112.213 414.157 113.918 415.265 115.582C416.131 116.851 416.602 117.844 416.678 118.562C416.752 119.235 416.456 119.934 415.789 120.662ZM425.032 79.6432C425.569 79.0568 426.04 78.7323 426.442 78.6698C426.843 78.5623 427.302 78.7452 427.818 79.2185C428.099 79.4766 428.311 79.6927 428.454 79.8667C429.095 80.6274 430.703 82.6414 433.277 85.9089C434.995 88.1322 436.14 89.5919 436.711 90.288C441.945 96.7291 445.611 102.315 447.708 107.044C449.85 111.772 449.76 115.403 447.437 117.936C446.34 119.133 445.072 119.762 443.633 119.824C442.217 119.908 440.911 119.402 439.715 118.305C438.049 116.777 436.857 114.475 436.138 111.397C435.443 108.341 435.355 103.727 435.877 97.5551L434.698 96.0856C434.966 97.0652 434.974 98.0447 434.724 99.0242C434.471 99.9587 434.055 100.743 433.474 101.376C432.14 102.83 430.548 103.508 428.696 103.408C426.845 103.307 425.063 102.472 423.35 100.902C421.474 99.1812 420.101 97.1232 419.231 94.728C418.338 92.3113 418.043 89.925 418.347 87.5691C418.648 85.1683 419.541 83.1586 421.025 81.54C421.498 81.0239 421.916 80.7806 422.278 80.8099C422.637 80.7944 423.129 80.9645 423.753 81.3205C424.068 80.7888 424.494 80.2297 425.032 79.6432ZM431.082 96.8504C431.576 96.3109 431.721 95.4937 431.516 94.3987C431.311 93.3038 430.695 92.0915 429.669 90.7619L424.685 84.1184C423.826 85.1017 423.384 86.3373 423.359 87.8251C423.309 89.2915 423.645 90.8087 424.367 92.3769C425.088 93.945 426.105 95.3314 427.419 96.536C428.146 97.2028 428.815 97.5568 429.425 97.598C430.056 97.6157 430.608 97.3665 431.082 96.8504ZM444.378 114.42C444.916 113.833 444.815 112.531 444.074 110.513C443.355 108.472 441.771 105.702 439.322 102.204C439.214 105.43 439.415 108.012 439.927 109.949C440.439 111.887 441.164 113.286 442.103 114.146C442.501 114.512 442.894 114.743 443.281 114.839C443.69 114.911 444.056 114.771 444.378 114.42Z" fill="#18181B"/>
<path d="M228.759 273.665L235.187 275.503C236.068 275.765 237.377 275.498 238.119 274.941L242.429 271.557C245.187 269.397 247.576 270.494 247.744 274.014L248.002 279.976C248.044 280.964 248.788 282.193 249.68 282.694L254.342 285.329C258.018 287.406 257.716 290.12 253.671 291.331L248.027 293.031C247.004 293.331 245.972 294.456 245.762 295.5L244.557 301.271C243.684 305.39 241.022 305.941 238.635 302.458L235.607 298.041C234.986 297.213 233.698 296.578 232.709 296.621L226.747 296.879C223.242 297.031 221.943 294.746 223.841 291.797L226.839 287.21C227.346 286.438 227.483 285.096 227.146 284.24L224.759 277.996C223.487 274.614 225.264 272.676 228.759 273.665ZM219.01 285.987L210.412 295.364C209.824 296.005 208.806 296.049 208.165 295.461C207.524 294.874 207.48 293.855 208.068 293.214L216.666 283.837C217.254 283.197 218.272 283.152 218.913 283.74C219.554 284.328 219.598 285.346 219.01 285.987ZM236.591 310.739L232.292 315.427C231.704 316.068 230.685 316.112 230.045 315.525C229.404 314.937 229.36 313.918 229.947 313.278L234.247 308.589C234.834 307.948 235.853 307.904 236.494 308.492C237.134 309.079 237.178 310.098 236.591 310.739ZM222.785 303.833L221.352 305.396C220.764 306.036 219.746 306.08 219.105 305.493C218.464 304.905 218.42 303.887 219.007 303.246L220.441 301.683C221.028 301.042 222.047 300.998 222.688 301.586C223.328 302.173 223.372 303.192 222.785 303.833Z" fill="#18181B"/>
<defs>
<linearGradient id="paint0_linear_148_25" x1="193.038" y1="331.251" x2="20.347" y2="503.047" gradientUnits="userSpaceOnUse">
<stop stop-color="#FF512F"/>
<stop offset="1" stop-color="#DD2476"/>
</linearGradient>
</defs>
</svg>
