<svg width="293" height="293" viewBox="0 0 293 293" fill="none" xmlns="http://www.w3.org/2000/svg">
<path d="M147.5 198.757C120.754 278.291 14.709 278.291 14.709 278.291C14.709 278.291 14.709 172.246 94.2428 145.5L147.5 198.757Z" fill="url(#paint0_linear_133_191)"/>
<path d="M234.39 128.153V227.324C234.344 230.564 233.019 233.654 230.705 235.921L181.12 285.66C179.547 287.231 177.577 288.346 175.419 288.886C173.262 289.425 170.999 289.368 168.872 288.722C166.744 288.076 164.832 286.864 163.339 285.217C161.846 283.569 160.829 281.547 160.395 279.366L147.5 215.043L234.39 128.153Z" fill="#212121"/>
<path d="M164.848 58.6101H115.262H65.6765C62.4371 58.6562 59.3472 59.9805 57.0797 62.2945L7.3406 111.88C5.76927 113.453 4.6545 115.423 4.11521 117.58C3.57593 119.738 3.63236 122.001 4.2785 124.128C4.92463 126.256 6.13623 128.168 7.78401 129.661C9.4318 131.154 11.454 132.171 13.6347 132.605L77.9578 145.5L164.848 58.6101Z" fill="#212121"/>
<path d="M145.197 198.757C118.451 278.291 12.4062 278.291 12.4062 278.291C12.4062 278.291 12.4062 172.246 91.9401 145.5" stroke="#131313" stroke-width="6.76642" stroke-linecap="round" stroke-linejoin="round"/>
<path d="M251.737 110.805L147.5 215.042L77.9577 145.5L182.195 41.2626C221.648 1.80912 261.102 2.26967 277.989 4.72592C280.594 5.07357 283.013 6.26906 284.872 8.12793C286.731 9.98679 287.926 12.4057 288.274 15.0115C290.73 31.8982 291.191 71.3517 251.737 110.805Z" fill="url(#paint1_linear_133_191)" stroke="#131313" stroke-width="6.14062" stroke-linecap="round" stroke-linejoin="round"/>
<path d="M234.39 128.153V227.324C234.344 230.564 233.019 233.654 230.705 235.921L181.12 285.66C179.547 287.231 177.577 288.346 175.419 288.886C173.262 289.425 170.999 289.368 168.872 288.722C166.744 288.076 164.832 286.864 163.339 285.217C161.846 283.569 160.829 281.547 160.395 279.366L147.5 215.043" stroke="#131313" stroke-width="6.14062" stroke-linecap="round" stroke-linejoin="round"/>
<path d="M164.848 58.6101H65.6765C62.4371 58.6562 59.3472 59.9805 57.0797 62.2945L7.3406 111.88C5.76927 113.453 4.6545 115.423 4.11521 117.58C3.57593 119.738 3.63236 122.001 4.2785 124.128C4.92463 126.256 6.13622 128.168 7.78401 129.661C9.4318 131.154 11.454 132.171 13.6347 132.605L77.9578 145.5" stroke="#131313" stroke-width="6.14062" stroke-linecap="round" stroke-linejoin="round"/>
<g filter="url(#filter0_d_133_191)">
<path d="M191.121 116.984C191.464 116.611 191.83 116.353 192.221 116.21C192.611 116.061 193.001 116.033 193.392 116.126C193.786 116.216 194.159 116.422 194.509 116.743C194.86 117.065 195.097 117.418 195.221 117.803C195.344 118.181 195.349 118.571 195.234 118.973C195.119 119.368 194.89 119.753 194.547 120.126L193.569 121.193L190.143 118.051L191.121 116.984ZM194.179 119.788C194.584 119.346 194.778 118.901 194.758 118.455C194.736 118.006 194.513 117.588 194.09 117.2C193.664 116.81 193.223 116.623 192.768 116.639C192.315 116.653 191.888 116.879 191.485 117.318L190.917 117.937L193.611 120.407L194.179 119.788ZM194.104 114.462L195.249 115.512L196.394 114.263L196.763 114.602L195.618 115.85L196.798 116.932L198.078 115.536L198.447 115.874L196.756 117.717L193.325 114.571L195.015 112.728L195.384 113.066L194.104 114.462ZM198.237 109.224L200.478 113.659L200.005 114.175L195.393 112.326L195.83 111.849L199.772 113.481L197.805 109.696L198.237 109.224ZM199.461 108.62L200.606 109.67L201.751 108.421L202.12 108.759L200.975 110.008L202.155 111.09L203.435 109.694L203.804 110.032L202.113 111.875L198.682 108.729L200.373 106.886L200.741 107.224L199.461 108.62ZM204.471 108.574L205.571 107.375L205.934 107.708L204.424 109.355L200.998 106.213L201.408 105.766L204.471 108.574ZM207.829 105.711C207.537 106.029 207.198 106.252 206.81 106.379C206.419 106.503 206.02 106.52 205.613 106.43C205.206 106.335 204.835 106.134 204.501 105.827C204.167 105.521 203.936 105.17 203.809 104.776C203.681 104.376 203.664 103.977 203.757 103.579C203.847 103.179 204.037 102.82 204.329 102.502C204.623 102.181 204.966 101.958 205.357 101.834C205.745 101.708 206.141 101.69 206.545 101.783C206.948 101.876 207.319 102.077 207.656 102.386C207.994 102.696 208.226 103.048 208.354 103.442C208.481 103.836 208.5 104.233 208.41 104.634C208.317 105.031 208.123 105.39 207.829 105.711ZM207.44 105.355C207.66 105.116 207.801 104.85 207.864 104.558C207.93 104.263 207.909 103.966 207.802 103.669C207.697 103.368 207.509 103.093 207.237 102.843C206.962 102.591 206.672 102.427 206.366 102.352C206.061 102.271 205.765 102.275 205.479 102.363C205.194 102.45 204.94 102.616 204.717 102.858C204.495 103.101 204.352 103.368 204.289 103.66C204.226 103.953 204.247 104.249 204.351 104.55C204.455 104.844 204.645 105.118 204.92 105.37C205.192 105.619 205.481 105.785 205.787 105.866C206.095 105.944 206.393 105.939 206.678 105.851C206.967 105.76 207.221 105.595 207.44 105.355ZM209.591 98.856C209.876 99.1174 210.023 99.4336 210.033 99.8045C210.042 100.169 209.864 100.551 209.497 100.951L208.893 101.61L210.324 102.922L209.913 103.369L206.487 100.227L207.501 99.1211C207.856 98.7344 208.218 98.5268 208.589 98.4982C208.962 98.4663 209.296 98.5856 209.591 98.856ZM209.129 100.613C209.357 100.364 209.471 100.131 209.471 99.9138C209.471 99.6967 209.371 99.4965 209.171 99.3132C208.749 98.9255 208.315 98.9742 207.87 99.4592L207.266 100.118L208.525 101.272L209.129 100.613ZM209.872 97.2667L211.017 98.317L212.162 97.0684L212.53 97.4065L211.386 98.6551L212.565 99.7369L213.845 98.3408L214.214 98.6789L212.524 100.522L209.093 97.376L210.783 95.5326L211.152 95.8707L209.872 97.2667ZM216.489 96.198L214.34 95.7294L213.844 96.2701L215.245 97.5547L214.835 98.0021L211.409 94.8603L212.423 93.7543C212.66 93.4954 212.904 93.318 213.155 93.2222C213.409 93.1231 213.652 93.0984 213.884 93.1482C214.115 93.1979 214.328 93.3115 214.521 93.4888C214.757 93.7051 214.902 93.9648 214.956 94.2677C215.013 94.5673 214.947 94.8802 214.756 95.2063L216.98 95.6622L216.489 96.198ZM213.485 95.941L214.089 95.2823C214.312 95.0398 214.419 94.8039 214.413 94.5744C214.403 94.342 214.298 94.1341 214.098 93.9508C213.894 93.7645 213.682 93.6809 213.459 93.7C213.239 93.7158 213.017 93.8466 212.792 94.0923L212.187 94.751L213.485 95.941ZM219.874 90.977L218.504 92.4713L219.013 93.4453L218.581 93.9172L216.31 89.5547L216.783 89.0386L221.321 90.9285L220.888 91.4004L219.874 90.977ZM219.393 90.7712L217.095 89.8039L218.257 92.01L219.393 90.7712ZM219.947 88.9826C219.613 88.6761 219.382 88.3258 219.255 87.9316C219.125 87.5345 219.103 87.1373 219.189 86.7402C219.279 86.3398 219.47 85.9807 219.761 85.6628C220.104 85.2892 220.493 85.0458 220.929 84.9325C221.364 84.8192 221.806 84.8504 222.254 85.0261L221.763 85.5619C221.469 85.4677 221.184 85.4595 220.908 85.5376C220.634 85.6124 220.383 85.7743 220.154 86.0234C219.935 86.2626 219.794 86.5283 219.731 86.8206C219.668 87.1128 219.69 87.4077 219.798 87.7051C219.902 87.9996 220.091 88.273 220.367 88.5255C220.639 88.7749 220.927 88.9402 221.233 89.0214C221.535 89.0995 221.829 89.0947 222.115 89.0068C222.401 88.9189 222.653 88.7553 222.873 88.5161C223.101 88.267 223.242 88.0044 223.297 87.7283C223.35 87.4459 223.318 87.1625 223.198 86.8781L223.69 86.3423C223.9 86.7707 223.968 87.2067 223.893 87.6505C223.814 88.0914 223.604 88.4986 223.261 88.8722C222.97 89.19 222.63 89.4124 222.242 89.5394C221.854 89.66 221.458 89.674 221.054 89.5814C220.651 89.4887 220.282 89.2891 219.947 88.9826ZM226.393 83.8676L225.023 85.3619L225.533 86.3359L225.1 86.8078L222.829 82.4453L223.302 81.9292L227.84 83.8191L227.408 84.291L226.393 83.8676ZM225.912 83.6618L223.614 82.6946L224.776 84.9006L225.912 83.6618ZM225.887 79.0708C226.23 78.6972 226.596 78.439 226.987 78.2962C227.377 78.1472 227.767 78.1192 228.159 78.2124C228.553 78.3024 228.925 78.5081 229.276 78.8296C229.626 79.1512 229.863 79.5044 229.987 79.8892C230.111 80.2678 230.115 80.6579 230 81.0594C229.885 81.4546 229.656 81.839 229.314 82.2125L228.335 83.2792L224.909 80.1375L225.887 79.0708ZM228.945 81.8745C229.351 81.4321 229.544 80.9878 229.524 80.5418C229.502 80.0928 229.279 79.6744 228.856 79.2868C228.43 78.8961 227.99 78.7091 227.534 78.7257C227.081 78.739 226.654 78.9652 226.251 79.4043L225.683 80.0237L228.377 82.4938L228.945 81.8745ZM228.87 76.5482L230.016 77.5985L231.16 76.3499L231.529 76.688L230.384 77.9365L231.564 79.0183L232.844 77.6223L233.213 77.9604L231.522 79.8037L228.091 76.6575L229.782 74.8141L230.15 75.1522L228.87 76.5482ZM233.619 70.689L237.02 73.8082L236.61 74.2555L234.074 71.9296L235.573 75.3861L235.285 75.7007L231.702 74.5058L234.244 76.8362L233.833 77.2835L230.432 74.1643L230.874 73.6826L234.839 75.0025L233.181 71.1658L233.619 70.689ZM236.489 67.509L237.6 70.5811L238.892 71.7666L238.482 72.2139L237.189 71.0284L234.028 70.1929L234.484 69.6964L236.994 70.4421L236.034 68.0055L236.489 67.509Z" fill="#18181B"/>
<path d="M155.542 152.788C154.845 153.548 153.992 154.347 152.984 155.183C152.437 155.648 151.969 155.882 151.579 155.886C151.189 155.89 150.77 155.663 150.322 155.204C149.109 153.922 147.708 152.24 146.12 150.156C144.518 148.06 143.055 145.958 141.73 143.851C141.487 143.458 141.426 143.065 141.547 142.669C141.668 142.274 141.933 141.853 142.342 141.407C143.075 140.608 143.665 140.412 144.11 140.821C144.294 140.989 144.468 141.221 144.631 141.516C145.368 142.818 146.464 144.451 147.921 146.415C149.365 148.366 150.821 150.147 152.288 151.758C152.688 151.401 153.116 150.973 153.573 150.475C155.676 148.181 156.55 145.834 156.194 143.432C155.851 141.018 154.519 138.746 152.199 136.619C150.639 135.188 149.024 134.528 147.355 134.638C145.685 134.748 144.105 135.616 142.615 137.242C141.653 138.29 140.861 139.483 140.24 140.819C139.63 142.142 139.215 143.462 138.995 144.781C138.957 145.06 138.847 145.297 138.667 145.494C138.463 145.717 138.209 145.81 137.905 145.772C137.588 145.723 137.292 145.572 137.017 145.32C136.702 145.031 136.495 144.745 136.394 144.459C136.281 144.162 136.253 143.811 136.311 143.406C136.524 141.936 137.032 140.448 137.836 138.94C138.626 137.421 139.538 136.097 140.572 134.97C142.038 133.371 143.588 132.246 145.221 131.596C146.842 130.935 148.478 130.782 150.13 131.138C151.782 131.495 153.368 132.37 154.888 133.765C156.868 135.58 158.237 137.56 158.997 139.704C159.744 141.837 159.833 144.03 159.263 146.282C158.694 148.535 157.453 150.704 155.542 152.788ZM169.485 128.583C169.641 128.413 169.84 128.354 170.081 128.406C170.335 128.446 170.599 128.592 170.875 128.844C171.399 129.325 171.691 129.822 171.751 130.335C171.896 131.361 171.809 132.548 171.49 133.897C171.183 135.232 170.566 136.404 169.641 137.413C168.379 138.789 167.025 139.515 165.581 139.59C164.137 139.665 162.766 139.108 161.468 137.918C160.563 137.089 159.899 136.129 159.474 135.04C159.036 133.939 158.894 132.843 159.048 131.754C159.215 130.652 159.689 129.675 160.47 128.823C161.167 128.062 161.955 127.663 162.835 127.625C163.701 127.575 164.521 127.904 165.295 128.614C166.199 129.443 166.678 130.486 166.733 131.742C166.786 132.974 166.294 134.537 165.255 136.432C166.159 136.658 167.031 136.311 167.873 135.394C168.414 134.804 168.824 133.949 169.102 132.829C169.38 131.684 169.437 130.53 169.273 129.366C169.234 129.041 169.305 128.78 169.485 128.583ZM162.09 130.924C161.646 131.409 161.549 132.08 161.8 132.938C162.063 133.782 162.594 134.571 163.394 135.304L163.433 135.341C163.959 134.399 164.243 133.537 164.284 132.755C164.326 131.972 164.104 131.359 163.619 130.914C163.37 130.686 163.107 130.578 162.831 130.59C162.554 130.576 162.307 130.688 162.09 130.924ZM175.076 131.486C174.571 132.036 173.971 132.282 173.277 132.224C172.569 132.154 171.72 131.738 170.73 130.975C168.751 129.45 167.073 128.056 165.696 126.794L165.008 126.163C164.588 125.753 164.394 125.358 164.428 124.979C164.462 124.6 164.684 124.188 165.092 123.742C165.405 123.401 165.712 123.224 166.013 123.211C166.314 123.173 166.641 123.316 166.995 123.641C168.502 125.023 170.546 126.728 173.126 128.757C172.673 127.304 172.233 126.007 171.806 124.868C171.378 123.703 170.725 122.271 169.845 120.572C169.584 120.067 169.496 119.637 169.582 119.28C169.654 118.912 169.852 118.551 170.177 118.197C170.838 117.476 171.398 117.326 171.857 117.747C172.014 117.891 172.182 118.142 172.361 118.499C173.865 121.833 174.945 124.669 175.6 127.007C175.926 128.151 176.035 129.059 175.925 129.731C175.816 130.402 175.533 130.987 175.076 131.486ZM197.775 97.7322C197.931 97.5618 198.13 97.5028 198.371 97.5553C198.625 97.5947 198.889 97.7406 199.165 97.993C199.676 98.4618 199.968 98.9589 200.041 99.4844C200.224 100.811 200.231 101.987 200.062 103.014C199.879 104.029 199.385 104.976 198.58 105.854C197.798 106.706 196.902 107.223 195.89 107.406C194.891 107.575 193.587 107.417 191.98 106.933C190.692 106.548 189.724 106.288 189.076 106.152C188.415 106.005 187.879 105.971 187.467 106.052C187.067 106.12 186.685 106.313 186.321 106.63C186.549 106.935 187.276 107.879 188.502 109.463C189.061 110.169 189.401 110.601 189.521 110.759C190.201 111.624 190.576 112.451 190.648 113.241C190.707 114.018 190.37 114.807 189.637 115.607C188.831 116.485 187.861 117.031 186.724 117.243C185.587 117.431 184.391 117.288 183.137 116.813C181.87 116.327 180.646 115.543 179.467 114.461C177.264 112.442 175.712 110.319 174.81 108.092C173.92 105.852 173.687 103.659 174.11 101.514C174.532 99.3429 175.573 97.353 177.231 95.5441C178.385 94.2857 179.543 93.4048 180.704 92.9013C181.866 92.3978 182.967 92.2494 184.008 92.4561C185.061 92.6497 186.007 93.1311 186.846 93.9004C187.58 94.5735 188.139 95.4116 188.522 96.4146C188.905 97.3925 189.046 98.4752 188.946 99.6628C188.847 100.85 188.471 102.062 187.82 103.299C188.567 102.826 189.287 102.594 189.98 102.601C190.673 102.609 191.542 102.779 192.589 103.111C193.712 103.466 194.619 103.634 195.311 103.617C196.014 103.586 196.583 103.335 197.015 102.863C197.4 102.444 197.629 101.918 197.702 101.285C197.762 100.64 197.716 99.7173 197.563 98.5155C197.524 98.1899 197.595 97.9288 197.775 97.7322ZM183.814 109.326C183.405 109.772 183.018 109.983 182.652 109.962C182.298 109.927 181.99 109.789 181.727 109.548C181.413 109.26 181.254 108.933 181.251 108.568C181.259 108.19 181.384 107.87 181.624 107.608L182.075 107.116C180.983 105.729 180.056 104.516 179.293 103.48C178.597 102.528 178.676 101.587 179.53 100.656C180.215 99.9087 180.892 99.8416 181.56 100.455C181.704 100.587 181.81 100.696 181.876 100.781L184.599 104.364C185.209 103.62 185.628 102.821 185.855 101.968C186.095 101.102 186.102 100.252 185.877 99.4181C185.664 98.5713 185.217 97.8354 184.535 97.2104C183.709 96.4531 182.802 96.1399 181.813 96.2709C180.824 96.4018 179.831 97.0113 178.834 98.0992C177.656 99.3839 176.943 100.806 176.696 102.365C176.448 103.899 176.706 105.511 177.472 107.203C178.224 108.882 179.498 110.545 181.294 112.192C182.133 112.961 182.932 113.537 183.692 113.919C184.451 114.302 185.095 114.507 185.625 114.534C186.155 114.562 186.522 114.464 186.727 114.241C186.883 114.071 186.924 113.855 186.85 113.594C186.787 113.32 186.596 112.975 186.276 112.561L183.814 109.326ZM203.139 100.882C202.598 101.472 201.885 101.71 200.999 101.598C200.112 101.46 199.262 101.018 198.449 100.273C197.466 99.3716 196.628 98.4827 195.936 97.6063C195.23 96.718 194.557 95.7024 193.916 94.5595C193.643 94.0678 193.529 93.6258 193.575 93.2336C193.621 92.8414 193.878 92.3897 194.347 91.8785C194.612 91.5901 194.838 91.4355 195.026 91.4148C195.226 91.381 195.417 91.4482 195.601 91.6165C195.706 91.7126 195.993 92.1093 196.464 92.8064C196.829 93.3822 197.172 93.8898 197.493 94.329C198.629 95.8533 199.426 96.8258 199.885 97.2465C200.161 97.4989 200.387 97.6464 200.565 97.6891C200.73 97.7197 200.879 97.6629 201.011 97.5187C201.191 97.3221 201.217 96.8993 201.088 96.2503C200.972 95.5882 200.664 94.7267 200.165 93.6658C199.677 92.5917 198.995 91.3625 198.117 89.9781C197.82 89.5126 197.682 89.0969 197.704 88.7309C197.738 88.3518 197.953 87.946 198.35 87.5134C198.626 87.2119 198.858 87.0382 199.045 86.9924C199.218 86.9345 199.404 86.9957 199.6 87.176C199.928 87.4765 200.676 88.4638 201.843 90.1377C203.185 92.0433 204.052 93.1764 204.445 93.537C204.694 93.7654 204.939 93.8933 205.179 93.9206C205.406 93.936 205.598 93.8584 205.754 93.688C205.995 93.4259 206.12 92.9736 206.13 92.3312C206.139 91.6636 206.059 90.6978 205.891 89.4337C205.852 89.1082 205.922 88.8471 206.103 88.6504C206.259 88.48 206.458 88.4211 206.699 88.4735C206.953 88.5129 207.217 88.6588 207.492 88.9112C208.017 89.392 208.309 89.8892 208.369 90.4027C208.547 91.6034 208.558 92.7358 208.403 93.7999C208.259 94.8509 207.809 95.7893 207.052 96.6152C206.475 97.2444 205.806 97.4873 205.044 97.3441C204.295 97.1877 203.481 96.7069 202.603 95.9015C203.29 96.9417 203.671 97.907 203.748 98.7975C203.811 99.6759 203.608 100.371 203.139 100.882ZM210.909 92.4091C210.452 92.9072 209.865 93.0207 209.149 92.7497C208.444 92.4655 207.515 91.7945 206.361 90.7367C204.657 89.1741 203.261 87.4471 202.172 85.5557C201.9 85.0892 201.799 84.6467 201.869 84.2283C201.938 83.7847 202.195 83.3204 202.639 82.8354C202.88 82.5733 203.081 82.4198 203.243 82.375C203.404 82.3303 203.577 82.392 203.76 82.5603C203.97 82.7526 204.352 83.2837 204.906 84.1534C205.31 84.7653 205.672 85.2909 205.994 85.7301C206.315 86.1694 206.74 86.6797 207.268 87.261C206.538 85.7947 206.065 84.4683 205.85 83.2817C205.635 82.0952 205.611 81.1081 205.778 80.3204C205.957 79.5196 206.245 78.9029 206.642 78.4704C207.423 77.6183 208.24 77.5829 209.092 78.3643C209.603 78.833 210.395 79.8247 211.468 81.3391C212.38 82.6339 213.019 83.4496 213.387 83.7862C213.911 84.267 214.347 84.3173 214.696 83.9372C214.936 83.675 215.061 83.2227 215.071 82.5803C215.08 81.9128 215.001 80.9469 214.833 79.6829C214.793 79.3573 214.864 79.0962 215.044 78.8995C215.2 78.7291 215.399 78.6702 215.641 78.7227C215.894 78.762 216.159 78.9079 216.434 79.1604C216.958 79.6412 217.25 80.1383 217.31 80.6518C217.488 81.8525 217.499 82.985 217.344 84.0491C217.201 85.1 216.751 86.0385 215.993 86.8643C215.38 87.5328 214.727 87.8632 214.035 87.8554C213.329 87.8356 212.609 87.4892 211.875 86.816C211.508 86.4795 210.937 85.7867 210.161 84.7377C209.492 83.8101 209 83.202 208.685 82.9135C208.475 82.7212 208.304 82.6971 208.172 82.8413C208.016 83.0117 208.016 83.4586 208.173 84.1818C208.33 84.88 208.618 85.7235 209.038 86.7123C209.471 87.688 209.997 88.6408 210.616 89.5706C211.1 90.2798 211.363 90.8348 211.406 91.2358C211.447 91.6116 211.281 92.0027 210.909 92.4091ZM219.853 82.6547C219.397 83.1528 218.81 83.2663 218.093 82.9952C217.389 82.7111 216.46 82.0401 215.306 80.9823C213.602 79.4197 212.206 77.6927 211.117 75.8013C210.845 75.3348 210.744 74.8923 210.814 74.4738C210.883 74.0303 211.139 73.566 211.584 73.081C211.825 72.8188 212.026 72.6654 212.187 72.6206C212.349 72.5758 212.522 72.6376 212.705 72.8059C212.915 72.9982 213.297 73.5292 213.85 74.399C214.254 75.0109 214.617 75.5365 214.938 75.9757C215.259 76.415 215.684 76.9252 216.213 77.5066C215.482 76.0403 215.009 74.7138 214.794 73.5273C214.579 72.3408 214.556 71.3537 214.723 70.566C214.902 69.7652 215.19 69.1485 215.587 68.7159C216.368 67.8639 217.185 67.8285 218.037 68.6098C218.548 69.0786 219.34 70.0702 220.413 71.5847C221.325 72.8795 221.964 73.6952 222.331 74.0317C222.856 74.5125 223.292 74.5629 223.641 74.1827C223.881 73.9206 224.006 73.4683 224.016 72.8259C224.025 72.1583 223.945 71.1925 223.777 69.9284C223.738 69.6029 223.809 69.3418 223.989 69.1451C224.145 68.9747 224.344 68.9158 224.585 68.9682C224.839 69.0076 225.103 69.1535 225.379 69.4059C225.903 69.8867 226.195 70.3839 226.255 70.8974C226.433 72.0981 226.444 73.2305 226.289 74.2946C226.146 75.3456 225.695 76.284 224.938 77.1099C224.325 77.7784 223.672 78.1088 222.979 78.101C222.274 78.0812 221.554 77.7347 220.82 77.0616C220.453 76.7251 219.881 76.0323 219.106 74.9833C218.436 74.0556 217.944 73.4476 217.63 73.1591C217.42 72.9668 217.249 72.9427 217.117 73.0869C216.96 73.2573 216.961 73.7041 217.118 74.4274C217.274 75.1256 217.562 75.9691 217.983 76.9579C218.415 77.9336 218.941 78.8864 219.561 79.8162C220.044 80.5254 220.308 81.0804 220.35 81.4814C220.392 81.8572 220.226 82.2483 219.853 82.6547ZM219.321 62.0383C218.816 62.5888 218.313 62.8875 217.812 62.9344C217.297 62.9693 216.81 62.7764 216.352 62.3557C215.893 61.935 215.675 61.4094 215.698 60.779C215.72 60.1235 215.977 59.5271 216.47 58.9896C216.915 58.5046 217.394 58.2195 217.906 58.1344C218.418 58.0493 218.891 58.2051 219.323 58.6017C219.848 59.0825 220.111 59.6376 220.113 60.2669C220.102 60.8842 219.838 61.4746 219.321 62.0383ZM229.736 71.8778C228.954 72.7298 228.082 73.076 227.118 72.9163C226.167 72.7436 225.193 72.2004 224.197 71.2869C223.607 70.746 222.919 69.9827 222.134 68.9971C221.347 67.9864 220.663 66.9964 220.079 66.0272C219.768 65.5246 219.624 65.1029 219.647 64.762C219.67 64.4212 219.88 64.0344 220.276 63.6019C220.889 62.9333 221.419 62.8034 221.864 63.2121C222.192 63.5126 222.838 64.3343 223.803 65.6772C224.956 67.314 225.788 68.3668 226.3 68.8356C226.693 69.1962 227.043 69.4202 227.348 69.5077C227.654 69.5951 227.921 69.5143 228.15 69.2653C228.366 69.0293 228.473 68.5841 228.47 67.9297C228.466 67.2753 228.381 66.3286 228.214 65.0896C228.175 64.7641 228.246 64.503 228.426 64.3063C228.582 64.1359 228.781 64.077 229.023 64.1294C229.276 64.1688 229.54 64.3147 229.816 64.5671C230.34 65.0479 230.632 65.5451 230.692 66.0586C231.088 68.8108 230.769 70.7505 229.736 71.8778ZM233.235 68.0614C232.779 68.5596 232.192 68.6731 231.475 68.402C230.771 68.1178 229.841 67.4469 228.688 66.3891C226.984 64.8265 225.587 63.0995 224.498 61.2081C224.226 60.7415 224.125 60.2991 224.195 59.8806C224.264 59.4371 224.521 58.9728 224.966 58.4878C225.206 58.2256 225.407 58.0721 225.569 58.0274C225.731 57.9826 225.903 58.0444 226.087 58.2127C226.297 58.405 226.678 58.936 227.232 59.8058C227.636 60.4177 227.999 60.9432 228.32 61.3825C228.641 61.8217 229.066 62.332 229.595 62.9133C228.864 61.447 228.391 60.1206 228.176 58.9341C227.961 57.7476 227.937 56.7605 228.105 55.9728C228.284 55.172 228.572 54.5553 228.969 54.1227C229.75 53.2707 230.567 53.2353 231.419 54.0166C231.93 54.4854 232.722 55.477 233.794 56.9915C234.706 58.2863 235.346 59.102 235.713 59.4385C236.237 59.9193 236.674 59.9697 237.022 59.5895C237.263 59.3273 237.388 58.8751 237.398 58.2327C237.407 57.5651 237.327 56.5993 237.159 55.3352C237.12 55.0096 237.19 54.7485 237.371 54.5519C237.527 54.3815 237.726 54.3225 237.967 54.375C238.221 54.4144 238.485 54.5603 238.76 54.8127C239.285 55.2935 239.577 55.7907 239.637 56.3042C239.815 57.5049 239.826 58.6373 239.671 59.7014C239.527 60.7524 239.077 61.6908 238.32 62.5166C237.707 63.1852 237.054 63.5155 236.361 63.5078C235.655 63.488 234.936 63.1415 234.202 62.4684C233.834 62.1318 233.263 61.4391 232.488 60.3901C231.818 59.4624 231.326 58.8543 231.011 58.5659C230.802 58.3735 230.631 58.3495 230.499 58.4937C230.342 58.6641 230.343 59.1109 230.5 59.8342C230.656 60.5324 230.944 61.3758 231.365 62.3647C231.797 63.3404 232.323 64.2931 232.942 65.223C233.426 65.9321 233.689 66.4872 233.732 66.8882C233.773 67.264 233.608 67.6551 233.235 68.0614ZM238.4 45.1403C238.7 44.8126 238.963 44.6312 239.188 44.5963C239.412 44.5363 239.668 44.6385 239.957 44.9029C240.114 45.0472 240.233 45.1679 240.312 45.2651C240.671 45.6902 241.569 46.8157 243.008 48.6415C243.968 49.8839 244.607 50.6996 244.926 51.0886C247.851 54.6879 249.9 57.8091 251.072 60.4521C252.269 63.0941 252.218 65.1229 250.92 66.5386C250.307 67.2071 249.598 67.5588 248.794 67.5936C248.003 67.6405 247.273 67.3574 246.605 66.7443C245.674 65.8909 245.008 64.6043 244.606 62.8846C244.218 61.1769 244.169 58.5985 244.46 55.1495L243.801 54.3283C243.951 54.8757 243.956 55.4231 243.816 55.9704C243.675 56.4926 243.442 56.9307 243.118 57.2846C242.372 58.0973 241.482 58.4757 240.448 58.4198C239.413 58.3639 238.417 57.8972 237.46 57.0198C236.412 56.0581 235.644 54.9081 235.159 53.5697C234.659 52.2192 234.495 50.8858 234.664 49.5693C234.833 48.2277 235.332 47.1046 236.161 46.2002C236.426 45.9118 236.659 45.7758 236.861 45.7922C237.062 45.7835 237.337 45.8786 237.685 46.0775C237.861 45.7804 238.099 45.468 238.4 45.1403ZM241.781 54.7557C242.057 54.4542 242.138 53.9975 242.023 53.3857C241.909 52.7739 241.565 52.0964 240.991 51.3534L238.206 47.641C237.726 48.1905 237.479 48.8809 237.465 49.7123C237.438 50.5317 237.625 51.3796 238.028 52.2559C238.431 53.1321 239 53.9069 239.734 54.58C240.14 54.9526 240.514 55.1504 240.855 55.1734C241.208 55.1833 241.516 55.0441 241.781 54.7557ZM249.211 64.5734C249.511 64.2457 249.455 63.518 249.041 62.3905C248.639 61.2498 247.754 59.7021 246.385 57.7473C246.325 59.55 246.438 60.9927 246.724 62.0754C247.01 63.1582 247.415 63.94 247.939 64.4208C248.162 64.6251 248.382 64.7541 248.598 64.8076C248.826 64.8481 249.031 64.77 249.211 64.5734Z" fill="#18181B"/>
</g>
<path d="M128.461 153.321L132.053 154.348C132.546 154.494 133.277 154.345 133.691 154.034L136.1 152.143C137.641 150.936 138.976 151.549 139.07 153.516L139.214 156.847C139.238 157.4 139.653 158.086 140.152 158.366L142.757 159.839C144.811 160.999 144.642 162.516 142.382 163.193L139.228 164.143C138.657 164.31 138.08 164.939 137.963 165.522L137.289 168.747C136.802 171.049 135.314 171.357 133.98 169.41L132.288 166.942C131.941 166.479 131.221 166.125 130.669 166.149L127.337 166.293C125.378 166.378 124.652 165.101 125.713 163.453L127.388 160.89C127.671 160.458 127.748 159.709 127.56 159.23L126.226 155.741C125.515 153.851 126.508 152.768 128.461 153.321V153.321ZM123.014 160.206L118.209 165.446C117.88 165.804 117.311 165.829 116.953 165.5C116.595 165.172 116.57 164.603 116.899 164.245L121.704 159.005C122.032 158.647 122.601 158.622 122.959 158.951C123.317 159.279 123.342 159.848 123.014 160.206ZM132.838 174.038L130.435 176.658C130.107 177.016 129.538 177.04 129.18 176.712C128.822 176.384 128.797 175.814 129.125 175.456L131.528 172.836C131.856 172.478 132.425 172.454 132.783 172.782C133.141 173.11 133.166 173.68 132.838 174.038ZM125.123 170.179L124.322 171.052C123.994 171.41 123.424 171.435 123.066 171.106C122.708 170.778 122.684 170.209 123.012 169.851L123.813 168.977C124.141 168.619 124.71 168.595 125.068 168.923C125.426 169.251 125.451 169.82 125.123 170.179Z" fill="black"/>
<defs>
<filter id="filter0_d_133_191" x="132.681" y="35.9811" width="125.12" height="131.759" filterUnits="userSpaceOnUse" color-interpolation-filters="sRGB">
<feFlood flood-opacity="0" result="BackgroundImageFix"/>
<feColorMatrix in="SourceAlpha" type="matrix" values="0 0 0 0 0 0 0 0 0 0 0 0 0 0 0 0 0 0 127 0" result="hardAlpha"/>
<feOffset dy="0.555786"/>
<feGaussianBlur stdDeviation="0.555786"/>
<feComposite in2="hardAlpha" operator="out"/>
<feColorMatrix type="matrix" values="0 0 0 0 0 0 0 0 0 0 0 0 0 0 0 0 0 0 0.1 0"/>
<feBlend mode="normal" in2="BackgroundImageFix" result="effect1_dropShadow_133_191"/>
<feBlend mode="normal" in="SourceGraphic" in2="effect1_dropShadow_133_191" result="shape"/>
</filter>
<linearGradient id="paint0_linear_133_191" x1="108.5" y1="185.5" x2="12" y2="281.5" gradientUnits="userSpaceOnUse">
<stop stop-color="#FF512F"/>
<stop offset="1" stop-color="#DD2476"/>
</linearGradient>
<linearGradient id="paint1_linear_133_191" x1="334.789" y1="-78.6328" x2="79.9531" y2="243.75" gradientUnits="userSpaceOnUse">
<stop stop-color="#A3A3A3" stop-opacity="0.07"/>
<stop offset="0.640849" stop-color="#A3A3A3"/>
</linearGradient>
</defs>
</svg>
