<svg width="393" height="393" viewBox="0 0 393 393" fill="none" xmlns="http://www.w3.org/2000/svg">
<path d="M196.5 249.757C169.754 329.291 63.709 329.291 63.709 329.291C63.709 329.291 63.709 223.246 143.243 196.5L196.5 249.757Z" fill="url(#paint0_linear_133_191)"/>
<path d="M283.39 179.153V278.324C283.344 281.564 282.019 284.654 279.705 286.921L230.12 336.66C228.547 338.231 226.577 339.346 224.419 339.886C222.262 340.425 219.999 340.368 217.872 339.722C215.744 339.076 213.832 337.864 212.339 336.217C210.846 334.569 209.829 332.547 209.395 330.366L196.5 266.043L283.39 179.153Z" fill="#212121"/>
<path d="M213.848 109.61H164.262H114.677C111.437 109.656 108.347 110.981 106.08 113.294L56.3406 162.88C54.7693 164.453 53.6545 166.423 53.1152 168.58C52.5759 170.738 52.6324 173.001 53.2785 175.128C53.9246 177.256 55.1362 179.168 56.784 180.661C58.4318 182.154 60.454 183.171 62.6347 183.605L126.958 196.5L213.848 109.61Z" fill="#212121"/>
<path d="M194.197 249.757C167.451 329.291 61.4062 329.291 61.4062 329.291C61.4062 329.291 61.4062 223.246 140.94 196.5" stroke="#131313" stroke-width="6.76642" stroke-linecap="round" stroke-linejoin="round"/>
<path d="M300.737 161.805L196.5 266.042L126.958 196.5L231.195 92.2626C270.648 52.8091 310.102 53.2697 326.989 55.7259C329.594 56.0736 332.013 57.2691 333.872 59.1279C335.731 60.9868 336.926 63.4057 337.274 66.0115C339.73 82.8982 340.191 122.352 300.737 161.805Z" fill="url(#paint1_linear_133_191)" stroke="#131313" stroke-width="6.14062" stroke-linecap="round" stroke-linejoin="round"/>
<path d="M283.39 179.153V278.324C283.344 281.564 282.019 284.654 279.705 286.921L230.12 336.66C228.547 338.231 226.577 339.346 224.419 339.886C222.262 340.425 219.999 340.368 217.872 339.722C215.744 339.076 213.832 337.864 212.339 336.217C210.846 334.569 209.829 332.547 209.395 330.366L196.5 266.043" stroke="#131313" stroke-width="6.14062" stroke-linecap="round" stroke-linejoin="round"/>
<path d="M213.848 109.61H114.677C111.437 109.656 108.347 110.981 106.08 113.294L56.3406 162.88C54.7693 164.453 53.6545 166.423 53.1152 168.58C52.5759 170.738 52.6324 173.001 53.2785 175.128C53.9246 177.256 55.1362 179.168 56.784 180.661C58.4318 182.154 60.454 183.171 62.6347 183.605L126.958 196.5" stroke="#131313" stroke-width="6.14062" stroke-linecap="round" stroke-linejoin="round"/>
<g filter="url(#filter0_d_133_191)">
<path d="M240.121 167.984C240.464 167.611 240.83 167.353 241.221 167.21C241.611 167.061 242.001 167.033 242.392 167.126C242.786 167.216 243.159 167.422 243.509 167.743C243.86 168.065 244.097 168.418 244.221 168.803C244.344 169.181 244.349 169.571 244.234 169.973C244.119 170.368 243.89 170.753 243.547 171.126L242.569 172.193L239.143 169.051L240.121 167.984ZM243.179 170.788C243.584 170.346 243.778 169.901 243.758 169.455C243.736 169.006 243.513 168.588 243.09 168.2C242.664 167.81 242.223 167.623 241.768 167.639C241.315 167.653 240.888 167.879 240.485 168.318L239.917 168.937L242.611 171.407L243.179 170.788ZM243.104 165.462L244.249 166.512L245.394 165.263L245.763 165.602L244.618 166.85L245.798 167.932L247.078 166.536L247.447 166.874L245.756 168.717L242.325 165.571L244.015 163.728L244.384 164.066L243.104 165.462ZM247.237 160.224L249.478 164.659L249.005 165.175L244.393 163.326L244.83 162.849L248.772 164.481L246.805 160.696L247.237 160.224ZM248.461 159.62L249.606 160.67L250.751 159.421L251.12 159.759L249.975 161.008L251.155 162.09L252.435 160.694L252.804 161.032L251.113 162.875L247.682 159.729L249.373 157.886L249.741 158.224L248.461 159.62ZM253.471 159.574L254.571 158.375L254.934 158.708L253.424 160.355L249.998 157.213L250.408 156.766L253.471 159.574ZM256.829 156.711C256.537 157.029 256.198 157.252 255.81 157.379C255.419 157.503 255.02 157.52 254.613 157.43C254.206 157.335 253.835 157.134 253.501 156.827C253.167 156.521 252.936 156.17 252.809 155.776C252.681 155.376 252.664 154.977 252.757 154.579C252.847 154.179 253.037 153.82 253.329 153.502C253.623 153.181 253.966 152.958 254.357 152.834C254.745 152.708 255.141 152.69 255.545 152.783C255.948 152.876 256.319 153.077 256.656 153.386C256.994 153.696 257.226 154.048 257.354 154.442C257.481 154.836 257.5 155.233 257.41 155.634C257.317 156.031 257.123 156.39 256.829 156.711ZM256.44 156.355C256.66 156.116 256.801 155.85 256.864 155.558C256.93 155.263 256.909 154.966 256.802 154.669C256.697 154.368 256.509 154.093 256.237 153.843C255.962 153.591 255.672 153.427 255.366 153.352C255.061 153.271 254.765 153.275 254.479 153.363C254.194 153.45 253.94 153.616 253.717 153.858C253.495 154.101 253.352 154.368 253.289 154.66C253.226 154.953 253.247 155.249 253.351 155.55C253.455 155.844 253.645 156.118 253.92 156.37C254.192 156.619 254.481 156.785 254.787 156.866C255.095 156.944 255.393 156.939 255.678 156.851C255.967 156.76 256.221 156.595 256.44 156.355ZM258.591 149.856C258.876 150.117 259.023 150.434 259.033 150.805C259.042 151.169 258.864 151.551 258.497 151.951L257.893 152.61L259.324 153.922L258.913 154.369L255.487 151.227L256.501 150.121C256.856 149.734 257.218 149.527 257.589 149.498C257.962 149.466 258.296 149.586 258.591 149.856ZM258.129 151.613C258.357 151.364 258.471 151.131 258.471 150.914C258.471 150.697 258.371 150.496 258.171 150.313C257.749 149.926 257.315 149.974 256.87 150.459L256.266 151.118L257.525 152.272L258.129 151.613ZM258.872 148.267L260.017 149.317L261.162 148.068L261.53 148.407L260.386 149.655L261.565 150.737L262.845 149.341L263.214 149.679L261.524 151.522L258.093 148.376L259.783 146.533L260.152 146.871L258.872 148.267ZM265.489 147.198L263.34 146.729L262.844 147.27L264.245 148.555L263.835 149.002L260.409 145.86L261.423 144.754C261.66 144.495 261.904 144.318 262.155 144.222C262.409 144.123 262.652 144.098 262.884 144.148C263.115 144.198 263.328 144.311 263.521 144.489C263.757 144.705 263.902 144.965 263.956 145.268C264.013 145.567 263.947 145.88 263.756 146.206L265.98 146.662L265.489 147.198ZM262.485 146.941L263.089 146.282C263.312 146.04 263.419 145.804 263.413 145.574C263.403 145.342 263.298 145.134 263.098 144.951C262.894 144.765 262.682 144.681 262.459 144.7C262.239 144.716 262.017 144.847 261.792 145.092L261.187 145.751L262.485 146.941ZM268.874 141.977L267.504 143.471L268.013 144.445L267.581 144.917L265.31 140.555L265.783 140.039L270.321 141.928L269.888 142.4L268.874 141.977ZM268.393 141.771L266.095 140.804L267.257 143.01L268.393 141.771ZM268.947 139.983C268.613 139.676 268.382 139.326 268.255 138.932C268.125 138.534 268.103 138.137 268.189 137.74C268.279 137.34 268.47 136.981 268.761 136.663C269.104 136.289 269.493 136.046 269.929 135.932C270.364 135.819 270.806 135.85 271.254 136.026L270.763 136.562C270.469 136.468 270.184 136.46 269.908 136.538C269.634 136.612 269.383 136.774 269.154 137.023C268.935 137.263 268.794 137.528 268.731 137.821C268.668 138.113 268.69 138.408 268.798 138.705C268.902 139 269.091 139.273 269.367 139.525C269.639 139.775 269.927 139.94 270.233 140.021C270.535 140.1 270.829 140.095 271.115 140.007C271.401 139.919 271.653 139.755 271.873 139.516C272.101 139.267 272.242 139.004 272.297 138.728C272.35 138.446 272.318 138.162 272.198 137.878L272.69 137.342C272.9 137.771 272.968 138.207 272.893 138.651C272.814 139.091 272.604 139.499 272.261 139.872C271.97 140.19 271.63 140.412 271.242 140.539C270.854 140.66 270.458 140.674 270.054 140.581C269.651 140.489 269.282 140.289 268.947 139.983ZM275.393 134.868L274.023 136.362L274.533 137.336L274.1 137.808L271.829 133.445L272.302 132.929L276.84 134.819L276.408 135.291L275.393 134.868ZM274.912 134.662L272.614 133.695L273.776 135.901L274.912 134.662ZM274.887 130.071C275.23 129.697 275.596 129.439 275.987 129.296C276.377 129.147 276.767 129.119 277.159 129.212C277.553 129.302 277.925 129.508 278.276 129.83C278.626 130.151 278.863 130.504 278.987 130.889C279.111 131.268 279.115 131.658 279 132.059C278.885 132.455 278.656 132.839 278.314 133.213L277.335 134.279L273.909 131.137L274.887 130.071ZM277.945 132.874C278.351 132.432 278.544 131.988 278.524 131.542C278.502 131.093 278.279 130.674 277.856 130.287C277.43 129.896 276.99 129.709 276.534 129.726C276.081 129.739 275.654 129.965 275.251 130.404L274.683 131.024L277.377 133.494L277.945 132.874ZM277.87 127.548L279.016 128.598L280.16 127.35L280.529 127.688L279.384 128.937L280.564 130.018L281.844 128.622L282.213 128.96L280.522 130.804L277.091 127.657L278.782 125.814L279.15 126.152L277.87 127.548ZM282.619 121.689L286.02 124.808L285.61 125.256L283.074 122.93L284.573 126.386L284.285 126.701L280.702 125.506L283.244 127.836L282.833 128.284L279.432 125.164L279.874 124.683L283.839 126.002L282.181 122.166L282.619 121.689ZM285.489 118.509L286.6 121.581L287.892 122.767L287.482 123.214L286.189 122.028L283.028 121.193L283.484 120.696L285.994 121.442L285.034 119.005L285.489 118.509Z" fill="#18181B"/>
<path d="M204.542 203.788C203.845 204.548 202.992 205.347 201.984 206.183C201.437 206.648 200.969 206.882 200.579 206.886C200.189 206.89 199.77 206.663 199.322 206.204C198.109 204.922 196.708 203.24 195.12 201.156C193.518 199.06 192.055 196.958 190.73 194.851C190.487 194.458 190.426 194.065 190.547 193.669C190.668 193.274 190.933 192.853 191.342 192.407C192.075 191.608 192.665 191.412 193.11 191.821C193.294 191.989 193.468 192.221 193.631 192.516C194.368 193.818 195.464 195.451 196.921 197.415C198.365 199.366 199.821 201.147 201.288 202.758C201.688 202.401 202.116 201.973 202.573 201.475C204.676 199.181 205.55 196.834 205.194 194.432C204.851 192.018 203.519 189.746 201.199 187.619C199.639 186.188 198.024 185.528 196.355 185.638C194.685 185.748 193.105 186.616 191.615 188.242C190.653 189.29 189.861 190.483 189.24 191.819C188.63 193.142 188.215 194.462 187.995 195.781C187.957 196.06 187.847 196.297 187.667 196.494C187.463 196.717 187.209 196.81 186.905 196.772C186.588 196.723 186.292 196.572 186.017 196.32C185.702 196.031 185.495 195.745 185.394 195.459C185.281 195.162 185.253 194.811 185.311 194.406C185.524 192.936 186.032 191.448 186.836 189.94C187.626 188.421 188.538 187.097 189.572 185.97C191.038 184.371 192.588 183.246 194.221 182.596C195.842 181.935 197.478 181.782 199.13 182.138C200.782 182.495 202.368 183.37 203.888 184.765C205.868 186.58 207.237 188.56 207.997 190.704C208.744 192.837 208.833 195.03 208.263 197.282C207.694 199.535 206.453 201.704 204.542 203.788ZM218.485 179.583C218.641 179.413 218.84 179.354 219.081 179.406C219.335 179.446 219.599 179.592 219.875 179.844C220.399 180.325 220.691 180.822 220.751 181.335C220.896 182.361 220.809 183.548 220.49 184.897C220.183 186.232 219.566 187.404 218.641 188.413C217.379 189.789 216.025 190.515 214.581 190.59C213.137 190.665 211.766 190.108 210.468 188.918C209.563 188.089 208.899 187.129 208.474 186.04C208.036 184.939 207.894 183.843 208.048 182.754C208.215 181.652 208.689 180.675 209.47 179.823C210.167 179.062 210.955 178.663 211.835 178.625C212.701 178.575 213.521 178.904 214.295 179.614C215.199 180.443 215.678 181.486 215.733 182.742C215.786 183.974 215.294 185.537 214.255 187.432C215.159 187.658 216.031 187.311 216.873 186.394C217.414 185.804 217.824 184.949 218.102 183.829C218.38 182.684 218.437 181.53 218.273 180.366C218.234 180.041 218.305 179.78 218.485 179.583ZM211.09 181.924C210.646 182.409 210.549 183.08 210.8 183.938C211.063 184.782 211.594 185.571 212.394 186.304L212.433 186.341C212.959 185.399 213.243 184.537 213.284 183.755C213.326 182.972 213.104 182.359 212.619 181.914C212.37 181.686 212.107 181.578 211.831 181.59C211.554 181.576 211.307 181.688 211.09 181.924ZM224.076 182.486C223.571 183.036 222.971 183.282 222.277 183.224C221.569 183.154 220.72 182.738 219.73 181.975C217.751 180.45 216.073 179.056 214.696 177.794L214.008 177.163C213.588 176.753 213.394 176.358 213.428 175.979C213.462 175.6 213.684 175.188 214.092 174.742C214.405 174.401 214.712 174.224 215.013 174.211C215.314 174.173 215.641 174.316 215.995 174.641C217.502 176.023 219.546 177.728 222.126 179.757C221.673 178.304 221.233 177.007 220.806 175.868C220.378 174.703 219.725 173.271 218.845 171.572C218.584 171.067 218.496 170.637 218.582 170.28C218.654 169.912 218.852 169.551 219.177 169.197C219.838 168.476 220.398 168.326 220.857 168.747C221.014 168.891 221.182 169.142 221.361 169.499C222.865 172.833 223.945 175.669 224.6 178.007C224.926 179.151 225.035 180.059 224.925 180.731C224.816 181.402 224.533 181.987 224.076 182.486ZM246.775 148.732C246.931 148.562 247.13 148.503 247.371 148.555C247.625 148.595 247.889 148.741 248.165 148.993C248.676 149.462 248.968 149.959 249.041 150.484C249.224 151.811 249.231 152.987 249.062 154.014C248.879 155.029 248.385 155.976 247.58 156.854C246.798 157.706 245.902 158.223 244.89 158.406C243.891 158.575 242.587 158.417 240.98 157.933C239.692 157.548 238.724 157.288 238.076 157.152C237.415 157.005 236.879 156.971 236.467 157.052C236.067 157.12 235.685 157.313 235.321 157.63C235.549 157.935 236.276 158.879 237.502 160.463C238.061 161.169 238.401 161.601 238.521 161.759C239.201 162.624 239.576 163.451 239.648 164.241C239.707 165.018 239.37 165.807 238.637 166.607C237.831 167.485 236.861 168.031 235.724 168.243C234.587 168.431 233.391 168.288 232.137 167.813C230.87 167.327 229.646 166.543 228.467 165.461C226.264 163.442 224.712 161.319 223.81 159.092C222.92 156.852 222.687 154.659 223.11 152.514C223.532 150.343 224.573 148.353 226.231 146.544C227.385 145.286 228.543 144.405 229.704 143.901C230.866 143.398 231.967 143.249 233.008 143.456C234.061 143.65 235.007 144.131 235.846 144.9C236.58 145.574 237.139 146.412 237.522 147.415C237.905 148.392 238.046 149.475 237.946 150.663C237.847 151.85 237.471 153.062 236.82 154.299C237.567 153.826 238.287 153.594 238.98 153.601C239.673 153.609 240.542 153.779 241.589 154.111C242.712 154.466 243.619 154.634 244.311 154.617C245.014 154.586 245.583 154.335 246.015 153.863C246.4 153.444 246.629 152.918 246.702 152.285C246.762 151.64 246.716 150.717 246.563 149.515C246.524 149.19 246.595 148.929 246.775 148.732ZM232.814 160.326C232.405 160.772 232.018 160.983 231.652 160.962C231.298 160.927 230.99 160.789 230.727 160.548C230.413 160.26 230.254 159.933 230.251 159.568C230.259 159.19 230.384 158.87 230.624 158.608L231.075 158.116C229.983 156.729 229.056 155.516 228.293 154.48C227.597 153.528 227.676 152.587 228.53 151.656C229.215 150.909 229.892 150.842 230.56 151.455C230.704 151.587 230.81 151.696 230.876 151.781L233.599 155.364C234.209 154.62 234.628 153.821 234.855 152.968C235.095 152.102 235.102 151.252 234.877 150.418C234.664 149.571 234.217 148.835 233.535 148.21C232.709 147.453 231.802 147.14 230.813 147.271C229.824 147.402 228.831 148.011 227.834 149.099C226.656 150.384 225.943 151.806 225.696 153.365C225.448 154.899 225.706 156.511 226.472 158.203C227.224 159.882 228.498 161.545 230.294 163.192C231.133 163.961 231.932 164.537 232.692 164.919C233.451 165.302 234.095 165.507 234.625 165.534C235.155 165.562 235.522 165.464 235.727 165.241C235.883 165.071 235.924 164.855 235.85 164.594C235.787 164.32 235.596 163.975 235.276 163.561L232.814 160.326ZM252.139 151.882C251.598 152.472 250.885 152.71 249.999 152.598C249.112 152.46 248.262 152.018 247.449 151.273C246.466 150.372 245.628 149.483 244.936 148.606C244.23 147.718 243.557 146.702 242.916 145.559C242.643 145.068 242.529 144.626 242.575 144.234C242.621 143.841 242.878 143.39 243.347 142.878C243.612 142.59 243.838 142.436 244.026 142.415C244.226 142.381 244.417 142.448 244.601 142.616C244.706 142.713 244.993 143.109 245.464 143.806C245.829 144.382 246.172 144.89 246.493 145.329C247.629 146.853 248.426 147.826 248.885 148.246C249.161 148.499 249.387 148.646 249.565 148.689C249.73 148.72 249.879 148.663 250.011 148.519C250.191 148.322 250.217 147.899 250.088 147.25C249.972 146.588 249.664 145.727 249.165 144.666C248.677 143.592 247.995 142.362 247.117 140.978C246.82 140.513 246.682 140.097 246.704 139.731C246.738 139.352 246.953 138.946 247.35 138.513C247.626 138.212 247.858 138.038 248.045 137.992C248.218 137.934 248.404 137.996 248.6 138.176C248.928 138.477 249.676 139.464 250.843 141.138C252.185 143.043 253.052 144.176 253.445 144.537C253.694 144.765 253.939 144.893 254.179 144.921C254.406 144.936 254.598 144.858 254.754 144.688C254.995 144.426 255.12 143.974 255.13 143.331C255.139 142.664 255.059 141.698 254.891 140.434C254.852 140.108 254.922 139.847 255.103 139.65C255.259 139.48 255.458 139.421 255.699 139.474C255.953 139.513 256.217 139.659 256.492 139.911C257.017 140.392 257.309 140.889 257.369 141.403C257.547 142.603 257.558 143.736 257.403 144.8C257.259 145.851 256.809 146.789 256.052 147.615C255.475 148.244 254.806 148.487 254.044 148.344C253.295 148.188 252.481 147.707 251.603 146.902C252.29 147.942 252.671 148.907 252.748 149.797C252.811 150.676 252.608 151.371 252.139 151.882ZM259.909 143.409C259.452 143.907 258.865 144.021 258.149 143.75C257.444 143.465 256.515 142.794 255.361 141.737C253.657 140.174 252.261 138.447 251.172 136.556C250.9 136.089 250.799 135.647 250.869 135.228C250.938 134.785 251.195 134.32 251.639 133.835C251.88 133.573 252.081 133.42 252.243 133.375C252.404 133.33 252.577 133.392 252.76 133.56C252.97 133.753 253.352 134.284 253.906 135.153C254.31 135.765 254.672 136.291 254.994 136.73C255.315 137.169 255.74 137.68 256.268 138.261C255.538 136.795 255.065 135.468 254.85 134.282C254.635 133.095 254.611 132.108 254.778 131.32C254.957 130.52 255.245 129.903 255.642 129.47C256.423 128.618 257.24 128.583 258.092 129.364C258.603 129.833 259.395 130.825 260.468 132.339C261.38 133.634 262.019 134.45 262.387 134.786C262.911 135.267 263.347 135.317 263.696 134.937C263.936 134.675 264.061 134.223 264.071 133.58C264.08 132.913 264.001 131.947 263.833 130.683C263.793 130.357 263.864 130.096 264.044 129.9C264.2 129.729 264.399 129.67 264.641 129.723C264.894 129.762 265.159 129.908 265.434 130.16C265.958 130.641 266.25 131.138 266.31 131.652C266.488 132.853 266.499 133.985 266.344 135.049C266.201 136.1 265.751 137.038 264.993 137.864C264.38 138.533 263.727 138.863 263.035 138.855C262.329 138.836 261.609 138.489 260.875 137.816C260.508 137.479 259.937 136.787 259.161 135.738C258.492 134.81 258 134.202 257.685 133.913C257.475 133.721 257.304 133.697 257.172 133.841C257.016 134.012 257.016 134.459 257.173 135.182C257.33 135.88 257.618 136.723 258.038 137.712C258.471 138.688 258.997 139.641 259.616 140.571C260.1 141.28 260.363 141.835 260.406 142.236C260.447 142.612 260.281 143.003 259.909 143.409ZM268.853 133.655C268.397 134.153 267.81 134.266 267.093 133.995C266.389 133.711 265.46 133.04 264.306 131.982C262.602 130.42 261.206 128.693 260.117 126.801C259.845 126.335 259.744 125.892 259.814 125.474C259.883 125.03 260.139 124.566 260.584 124.081C260.825 123.819 261.026 123.665 261.187 123.621C261.349 123.576 261.522 123.638 261.705 123.806C261.915 123.998 262.297 124.529 262.85 125.399C263.254 126.011 263.617 126.536 263.938 126.976C264.259 127.415 264.684 127.925 265.213 128.507C264.482 127.04 264.009 125.714 263.794 124.527C263.579 123.341 263.556 122.354 263.723 121.566C263.902 120.765 264.19 120.149 264.587 119.716C265.368 118.864 266.185 118.829 267.037 119.61C267.548 120.079 268.34 121.07 269.413 122.585C270.325 123.879 270.964 124.695 271.331 125.032C271.856 125.513 272.292 125.563 272.641 125.183C272.881 124.921 273.006 124.468 273.016 123.826C273.025 123.158 272.945 122.193 272.777 120.928C272.738 120.603 272.809 120.342 272.989 120.145C273.145 119.975 273.344 119.916 273.585 119.968C273.839 120.008 274.103 120.154 274.379 120.406C274.903 120.887 275.195 121.384 275.255 121.897C275.433 123.098 275.444 124.231 275.289 125.295C275.146 126.346 274.695 127.284 273.938 128.11C273.325 128.778 272.672 129.109 271.979 129.101C271.274 129.081 270.554 128.735 269.82 128.062C269.453 127.725 268.881 127.032 268.106 125.983C267.436 125.056 266.944 124.448 266.63 124.159C266.42 123.967 266.249 123.943 266.117 124.087C265.96 124.257 265.961 124.704 266.118 125.427C266.274 126.126 266.562 126.969 266.983 127.958C267.415 128.934 267.941 129.886 268.561 130.816C269.044 131.525 269.308 132.08 269.35 132.481C269.392 132.857 269.226 133.248 268.853 133.655ZM268.321 113.038C267.816 113.589 267.313 113.888 266.812 113.934C266.297 113.969 265.81 113.776 265.352 113.356C264.893 112.935 264.675 112.409 264.698 111.779C264.72 111.124 264.977 110.527 265.47 109.99C265.915 109.505 266.394 109.22 266.906 109.134C267.418 109.049 267.891 109.205 268.323 109.602C268.848 110.083 269.111 110.638 269.113 111.267C269.102 111.884 268.838 112.475 268.321 113.038ZM278.736 122.878C277.954 123.73 277.082 124.076 276.118 123.916C275.167 123.744 274.193 123.2 273.197 122.287C272.607 121.746 271.919 120.983 271.134 119.997C270.347 118.986 269.663 117.996 269.079 117.027C268.768 116.525 268.624 116.103 268.647 115.762C268.67 115.421 268.88 115.034 269.276 114.602C269.889 113.933 270.419 113.803 270.864 114.212C271.192 114.513 271.838 115.334 272.803 116.677C273.956 118.314 274.788 119.367 275.3 119.836C275.693 120.196 276.043 120.42 276.348 120.508C276.654 120.595 276.921 120.514 277.15 120.265C277.366 120.029 277.473 119.584 277.47 118.93C277.466 118.275 277.381 117.329 277.214 116.09C277.175 115.764 277.246 115.503 277.426 115.306C277.582 115.136 277.781 115.077 278.023 115.129C278.276 115.169 278.54 115.315 278.816 115.567C279.34 116.048 279.632 116.545 279.692 117.059C280.088 119.811 279.769 121.75 278.736 122.878ZM282.235 119.061C281.779 119.56 281.192 119.673 280.475 119.402C279.771 119.118 278.841 118.447 277.688 117.389C275.984 115.826 274.587 114.099 273.498 112.208C273.226 111.742 273.125 111.299 273.195 110.881C273.264 110.437 273.521 109.973 273.966 109.488C274.206 109.226 274.407 109.072 274.569 109.027C274.731 108.983 274.903 109.044 275.087 109.213C275.297 109.405 275.678 109.936 276.232 110.806C276.636 111.418 276.999 111.943 277.32 112.382C277.641 112.822 278.066 113.332 278.595 113.913C277.864 112.447 277.391 111.121 277.176 109.934C276.961 108.748 276.937 107.76 277.105 106.973C277.284 106.172 277.572 105.555 277.969 105.123C278.75 104.271 279.567 104.235 280.419 105.017C280.93 105.485 281.722 106.477 282.794 107.991C283.706 109.286 284.346 110.102 284.713 110.439C285.237 110.919 285.674 110.97 286.022 110.59C286.263 110.327 286.388 109.875 286.398 109.233C286.407 108.565 286.327 107.599 286.159 106.335C286.12 106.01 286.19 105.749 286.371 105.552C286.527 105.381 286.726 105.323 286.967 105.375C287.221 105.414 287.485 105.56 287.76 105.813C288.285 106.294 288.577 106.791 288.637 107.304C288.815 108.505 288.826 109.637 288.671 110.701C288.527 111.752 288.077 112.691 287.32 113.517C286.707 114.185 286.054 114.516 285.361 114.508C284.655 114.488 283.936 114.142 283.202 113.468C282.834 113.132 282.263 112.439 281.488 111.39C280.818 110.462 280.326 109.854 280.011 109.566C279.802 109.374 279.631 109.349 279.499 109.494C279.342 109.664 279.343 110.111 279.5 110.834C279.656 111.532 279.944 112.376 280.365 113.365C280.797 114.34 281.323 115.293 281.942 116.223C282.426 116.932 282.689 117.487 282.732 117.888C282.773 118.264 282.608 118.655 282.235 119.061ZM287.4 96.1403C287.7 95.8126 287.963 95.6312 288.188 95.5963C288.412 95.5363 288.668 95.6385 288.957 95.9029C289.114 96.0472 289.233 96.1679 289.312 96.2651C289.671 96.6902 290.569 97.8157 292.008 99.6415C292.968 100.884 293.607 101.7 293.926 102.089C296.851 105.688 298.9 108.809 300.072 111.452C301.269 114.094 301.218 116.123 299.92 117.539C299.307 118.207 298.598 118.559 297.794 118.594C297.003 118.64 296.273 118.357 295.605 117.744C294.674 116.891 294.008 115.604 293.606 113.885C293.218 112.177 293.169 109.599 293.46 106.149L292.801 105.328C292.951 105.876 292.956 106.423 292.816 106.97C292.675 107.493 292.442 107.931 292.118 108.285C291.372 109.097 290.482 109.476 289.448 109.42C288.413 109.364 287.417 108.897 286.46 108.02C285.412 107.058 284.644 105.908 284.159 104.57C283.659 103.219 283.495 101.886 283.664 100.569C283.833 99.2277 284.332 98.1046 285.161 97.2002C285.426 96.9118 285.659 96.7758 285.861 96.7922C286.062 96.7835 286.337 96.8786 286.685 97.0775C286.861 96.7804 287.099 96.468 287.4 96.1403ZM290.781 105.756C291.057 105.454 291.138 104.998 291.023 104.386C290.909 103.774 290.565 103.096 289.991 102.353L287.206 98.641C286.726 99.1905 286.479 99.8809 286.465 100.712C286.438 101.532 286.625 102.38 287.028 103.256C287.431 104.132 288 104.907 288.734 105.58C289.14 105.953 289.514 106.15 289.855 106.173C290.208 106.183 290.516 106.044 290.781 105.756ZM298.211 115.573C298.511 115.246 298.455 114.518 298.041 113.39C297.639 112.25 296.754 110.702 295.385 108.747C295.325 110.55 295.438 111.993 295.724 113.075C296.01 114.158 296.415 114.94 296.939 115.421C297.162 115.625 297.382 115.754 297.598 115.808C297.826 115.848 298.031 115.77 298.211 115.573Z" fill="#18181B"/>
</g>
<path d="M177.461 204.321L181.053 205.348C181.546 205.494 182.277 205.345 182.691 205.034L185.1 203.143C186.641 201.936 187.976 202.549 188.07 204.516L188.214 207.847C188.238 208.4 188.653 209.086 189.152 209.366L191.757 210.839C193.811 211.999 193.642 213.516 191.382 214.193L188.228 215.143C187.657 215.31 187.08 215.939 186.963 216.522L186.289 219.747C185.802 222.049 184.314 222.357 182.98 220.41L181.288 217.942C180.941 217.479 180.221 217.125 179.669 217.149L176.337 217.293C174.378 217.378 173.652 216.101 174.713 214.453L176.388 211.89C176.671 211.458 176.748 210.709 176.56 210.23L175.226 206.741C174.515 204.851 175.508 203.768 177.461 204.321V204.321ZM172.014 211.206L167.209 216.446C166.88 216.804 166.311 216.829 165.953 216.5C165.595 216.172 165.57 215.603 165.899 215.245L170.704 210.005C171.032 209.647 171.601 209.622 171.959 209.951C172.317 210.279 172.342 210.848 172.014 211.206ZM181.838 225.038L179.435 227.658C179.107 228.016 178.538 228.04 178.18 227.712C177.822 227.384 177.797 226.814 178.125 226.456L180.528 223.836C180.856 223.478 181.425 223.454 181.783 223.782C182.141 224.11 182.166 224.68 181.838 225.038ZM174.123 221.179L173.322 222.052C172.994 222.41 172.424 222.435 172.066 222.106C171.708 221.778 171.684 221.209 172.012 220.851L172.813 219.977C173.141 219.619 173.71 219.595 174.068 219.923C174.426 220.251 174.451 220.82 174.123 221.179Z" fill="black"/>
<defs>
<filter id="filter0_d_133_191" x="181.681" y="86.9811" width="125.12" height="131.759" filterUnits="userSpaceOnUse" color-interpolation-filters="sRGB">
<feFlood flood-opacity="0" result="BackgroundImageFix"/>
<feColorMatrix in="SourceAlpha" type="matrix" values="0 0 0 0 0 0 0 0 0 0 0 0 0 0 0 0 0 0 127 0" result="hardAlpha"/>
<feOffset dy="0.555786"/>
<feGaussianBlur stdDeviation="0.555786"/>
<feComposite in2="hardAlpha" operator="out"/>
<feColorMatrix type="matrix" values="0 0 0 0 0 0 0 0 0 0 0 0 0 0 0 0 0 0 0.1 0"/>
<feBlend mode="normal" in2="BackgroundImageFix" result="effect1_dropShadow_133_191"/>
<feBlend mode="normal" in="SourceGraphic" in2="effect1_dropShadow_133_191" result="shape"/>
</filter>
<linearGradient id="paint0_linear_133_191" x1="130.104" y1="196.5" x2="130.104" y2="329.291" gradientUnits="userSpaceOnUse">
<stop stop-color="#FDE047"/>
<stop offset="1" stop-color="#F17C11"/>
</linearGradient>
<linearGradient id="paint1_linear_133_191" x1="383.789" y1="-27.6328" x2="128.953" y2="294.75" gradientUnits="userSpaceOnUse">
<stop stop-color="#A3A3A3" stop-opacity="0.07"/>
<stop offset="0.640849" stop-color="#A3A3A3"/>
</linearGradient>
</defs>
</svg>
