<svg width="48" height="46" viewBox="0 0 48 46" fill="none" xmlns="http://www.w3.org/2000/svg">
<path d="M45.8655 38.1475C46.0455 38.1475 46.184 38.2306 46.2809 38.3967C46.3917 38.5629 46.4471 38.7914 46.4471 39.0821C46.4471 39.6221 46.3155 40.0514 46.0524 40.3698C45.3878 41.1729 44.7163 41.796 44.0378 42.2391C43.3594 42.6683 42.5563 42.8829 41.6286 42.8829C40.7286 42.8829 39.9601 42.6406 39.3232 42.156C38.7001 41.6714 38.1048 40.8406 37.5371 39.6637C37.0801 38.7221 36.7201 38.0298 36.4571 37.5867C36.194 37.1298 35.9309 36.8044 35.6678 36.6106C35.4186 36.4167 35.1071 36.2991 34.7332 36.2575C34.6778 36.5483 34.5186 37.4621 34.2555 38.9991C34.1448 39.6914 34.0755 40.1137 34.0478 40.266C33.9094 41.1106 33.6324 41.7614 33.2171 42.2183C32.8017 42.6614 32.1717 42.8829 31.3271 42.8829C30.3994 42.8829 29.5755 42.6129 28.8555 42.0729C28.1494 41.5191 27.6024 40.7575 27.2148 39.7883C26.8271 38.8052 26.6332 37.6906 26.6332 36.4444C26.6332 34.1183 27.0348 32.1106 27.8378 30.4214C28.6548 28.7321 29.7901 27.4444 31.244 26.5583C32.7117 25.6583 34.4009 25.2083 36.3117 25.2083C37.6409 25.2083 38.7555 25.4091 39.6555 25.8106C40.5555 26.2121 41.2201 26.766 41.6494 27.4721C42.0924 28.1783 42.314 28.9744 42.314 29.8606C42.314 30.636 42.1271 31.3975 41.7532 32.1452C41.3932 32.8791 40.8463 33.5298 40.1124 34.0975C39.3786 34.6652 38.4855 35.0875 37.4332 35.3644C38.0978 35.5444 38.6101 35.8352 38.9701 36.2367C39.3301 36.6383 39.6901 37.2267 40.0501 38.0021C40.4378 38.8329 40.8186 39.4421 41.1924 39.8298C41.5801 40.2175 42.0232 40.4114 42.5217 40.4114C42.9648 40.4114 43.3871 40.266 43.7886 39.9752C44.1901 39.6706 44.6955 39.1583 45.3048 38.4383C45.4709 38.2444 45.6578 38.1475 45.8655 38.1475ZM31.8671 36.2367C31.3963 36.2367 31.0709 36.126 30.8909 35.9044C30.7248 35.6829 30.6417 35.4337 30.6417 35.1567C30.6417 34.8244 30.7455 34.5614 30.9532 34.3675C31.1748 34.1737 31.424 34.0767 31.7009 34.0767H32.2201C32.4417 32.7198 32.6494 31.5498 32.8432 30.5667C33.0232 29.6667 33.6048 29.2167 34.5878 29.2167C35.3771 29.2167 35.7717 29.5698 35.7717 30.276C35.7717 30.4283 35.7648 30.546 35.7509 30.6291L35.1278 34.0767C35.8755 34.0352 36.554 33.8552 37.1632 33.5367C37.7863 33.2183 38.2778 32.7752 38.6378 32.2075C39.0117 31.6398 39.1986 30.996 39.1986 30.276C39.1986 29.4037 38.9009 28.7183 38.3055 28.2198C37.7101 27.7214 36.8378 27.4721 35.6886 27.4721C34.3317 27.4721 33.1409 27.8114 32.1163 28.4898C31.1055 29.1544 30.3163 30.1514 29.7486 31.4806C29.1809 32.796 28.8971 34.4021 28.8971 36.2991C28.8971 37.1852 28.9871 37.9467 29.1671 38.5837C29.3471 39.2206 29.5686 39.6983 29.8317 40.0167C30.0948 40.3352 30.344 40.4944 30.5794 40.4944C30.7594 40.4944 30.9048 40.4044 31.0155 40.2244C31.1401 40.0444 31.2371 39.7537 31.3063 39.3521L31.8671 36.2367Z" fill="white"/>
<path d="M46.2809 38.3967L45.9072 38.6148L45.9137 38.626L45.9209 38.6368L46.2809 38.3967ZM46.0524 40.3698L46.3858 40.6457L46.386 40.6454L46.0524 40.3698ZM44.0378 42.2391L44.2692 42.6048L44.2744 42.6013L44.0378 42.2391ZM39.3232 42.156L39.0575 42.4975L39.0612 42.5003L39.3232 42.156ZM37.5371 39.6637L37.9268 39.4757L37.9263 39.4748L37.5371 39.6637ZM36.4571 37.5867L36.082 37.8027L36.085 37.8077L36.4571 37.5867ZM35.6678 36.6106L35.4021 36.9523L35.4112 36.9589L35.6678 36.6106ZM34.7332 36.2575L34.781 35.8275L34.3831 35.7833L34.3082 36.1766L34.7332 36.2575ZM34.2555 38.9991L33.829 38.926L33.8283 38.9307L34.2555 38.9991ZM34.0478 40.266L33.6221 40.1886L33.6208 40.196L34.0478 40.266ZM33.2171 42.2183L33.5328 42.5143L33.5372 42.5093L33.2171 42.2183ZM28.8555 42.0729L28.5884 42.4134L28.5959 42.4191L28.8555 42.0729ZM27.2148 39.7883L26.8122 39.947L26.813 39.949L27.2148 39.7883ZM27.8378 30.4214L27.4483 30.233L27.447 30.2356L27.8378 30.4214ZM31.244 26.5583L31.4692 26.9278L31.4702 26.9271L31.244 26.5583ZM41.6494 27.4721L41.2796 27.6969L41.2828 27.7021L41.6494 27.4721ZM41.7532 32.1452L41.3662 31.9517L41.3647 31.9546L41.7532 32.1452ZM40.1124 34.0975L40.3772 34.4398L40.3772 34.4398L40.1124 34.0975ZM37.4332 35.3644L37.3231 34.946L35.7558 35.3584L37.3201 35.7821L37.4332 35.3644ZM38.9701 36.2367L39.2923 35.9479L39.2923 35.9479L38.9701 36.2367ZM40.0501 38.0021L39.6577 38.1843L39.658 38.1851L40.0501 38.0021ZM41.1924 39.8298L40.8809 40.1302L40.8865 40.1358L41.1924 39.8298ZM43.7886 39.9752L44.0424 40.3257L44.0501 40.3199L43.7886 39.9752ZM45.3048 38.4383L44.9762 38.1567L44.9744 38.1588L45.3048 38.4383ZM31.8671 36.2367L32.2929 36.3134L32.3846 35.8041H31.8671V36.2367ZM30.8909 35.9044L30.5448 36.1641L30.5498 36.1708L30.5551 36.1773L30.8909 35.9044ZM30.9532 34.3675L30.6681 34.0417L30.658 34.0512L30.9532 34.3675ZM32.2201 34.0767V34.5094H32.5879L32.6472 34.1465L32.2201 34.0767ZM32.8432 30.5667L32.4189 30.4819L32.4187 30.483L32.8432 30.5667ZM35.7509 30.6291L36.1767 30.706L36.1777 30.7002L35.7509 30.6291ZM35.1278 34.0767L34.702 33.9998L34.6046 34.5392L35.1518 34.5088L35.1278 34.0767ZM37.1632 33.5367L36.9663 33.1514L36.9628 33.1533L37.1632 33.5367ZM38.6378 32.2075L38.2764 31.9695L38.2724 31.9758L38.6378 32.2075ZM38.3055 28.2198L38.5833 27.8881L38.5833 27.8881L38.3055 28.2198ZM32.1163 28.4898L32.354 28.8514L32.3552 28.8506L32.1163 28.4898ZM29.7486 31.4806L30.1459 31.652L30.1465 31.6505L29.7486 31.4806ZM29.1671 38.5837L28.7507 38.7013L28.7507 38.7013L29.1671 38.5837ZM29.8317 40.0167L29.4981 40.2923L29.4981 40.2923L29.8317 40.0167ZM31.0155 40.2244L30.6598 39.9781L30.6531 39.9877L30.647 39.9977L31.0155 40.2244ZM31.3063 39.3521L30.8804 39.2755L30.8799 39.2786L31.3063 39.3521ZM45.8655 38.5802C45.8771 38.5802 45.8825 38.5815 45.8835 38.5818C45.8842 38.582 45.8831 38.5817 45.8817 38.5809C45.8776 38.5784 45.8884 38.5826 45.9072 38.6148L46.6547 38.1787C46.4867 37.8908 46.2119 37.7148 45.8655 37.7148V38.5802ZM45.9209 38.6368C45.9672 38.7063 46.0144 38.8398 46.0144 39.0821H46.8798C46.8798 38.7429 46.8161 38.4195 46.6409 38.1567L45.9209 38.6368ZM46.0144 39.0821C46.0144 39.5528 45.9004 39.8744 45.7189 40.0942L46.386 40.6454C46.7306 40.2283 46.8798 39.6914 46.8798 39.0821H46.0144ZM45.7191 40.094C45.0747 40.8726 44.4346 41.4632 43.8012 41.8768L44.2744 42.6013C44.998 42.1288 45.701 41.4732 46.3858 40.6457L45.7191 40.094ZM43.8065 41.8734C43.2075 42.2524 42.4874 42.4502 41.6286 42.4502V43.3156C42.6252 43.3156 43.5113 43.0842 44.2692 42.6047L43.8065 41.8734ZM41.6286 42.4502C40.8109 42.4502 40.1375 42.2319 39.5852 41.8116L39.0612 42.5003C39.7827 43.0493 40.6463 43.3156 41.6286 43.3156V42.4502ZM39.5889 41.8144C39.0421 41.3892 38.4822 40.6272 37.9268 39.4757L37.1473 39.8517C37.7273 41.054 38.3582 41.9536 39.0576 42.4975L39.5889 41.8144ZM37.9263 39.4748C37.4683 38.531 37.1019 37.8252 36.8291 37.3658L36.085 37.8077C36.3384 38.2344 36.6919 38.9133 37.1478 39.8526L37.9263 39.4748ZM36.832 37.3708C36.5553 36.8901 36.2563 36.5068 35.9245 36.2623L35.4112 36.9589C35.6055 37.1021 35.8327 37.3695 36.0821 37.8026L36.832 37.3708ZM35.9335 36.269C35.61 36.0175 35.2189 35.8761 34.781 35.8275L34.6854 36.6876C34.9952 36.722 35.2272 36.816 35.4022 36.9521L35.9335 36.269ZM34.3082 36.1766C34.2518 36.4723 34.0917 37.3913 33.829 38.9261L34.682 39.0721C34.9455 37.5329 35.1038 36.6242 35.1583 36.3385L34.3082 36.1766ZM33.8283 38.9307C33.7172 39.6251 33.6488 40.0419 33.6221 40.1886L34.4735 40.3434C34.5023 40.1854 34.5723 39.7577 34.6828 39.0674L33.8283 38.9307ZM33.6208 40.196C33.4909 40.9888 33.2383 41.5517 32.8969 41.9272L33.5372 42.5093C34.0266 41.971 34.3279 41.2324 34.4748 40.336L33.6208 40.196ZM32.9014 41.9223C32.5957 42.2484 32.1001 42.4502 31.3271 42.4502V43.3156C32.2432 43.3156 33.0076 43.0743 33.5327 42.5142L32.9014 41.9223ZM31.3271 42.4502C30.4899 42.4502 29.7578 42.2087 29.1151 41.7267L28.5959 42.4191C29.3932 43.0171 30.3088 43.3156 31.3271 43.3156V42.4502ZM29.1226 41.7324C28.4855 41.2328 27.9806 40.5377 27.6165 39.6276L26.813 39.949C27.2243 40.9773 27.8132 41.8053 28.5885 42.4134L29.1226 41.7324ZM27.6173 39.6295C27.2527 38.7052 27.0659 37.6458 27.0659 36.4444H26.2005C26.2005 37.7354 26.4014 38.9052 26.8122 39.947L27.6173 39.6295ZM27.0659 36.4444C27.0659 34.1673 27.459 32.226 28.2286 30.6071L27.447 30.2356C26.6105 31.9952 26.2005 34.0693 26.2005 36.4444H27.0659ZM28.2274 30.6097C29.0119 28.9875 30.0936 27.7662 31.4692 26.9278L31.0188 26.1888C29.4867 27.1226 28.2976 28.4768 27.4483 30.233L28.2274 30.6097ZM31.4702 26.9271C32.8625 26.0734 34.4717 25.641 36.3117 25.641V24.7756C34.3301 24.7756 32.5609 25.2432 31.0178 26.1894L31.4702 26.9271ZM36.3117 25.641C37.6002 25.641 38.6505 25.836 39.4792 26.2057L39.8318 25.4154C38.8606 24.9821 37.6816 24.7756 36.3117 24.7756V25.641ZM39.4792 26.2057C40.3147 26.5785 40.9043 27.0794 41.2796 27.6969L42.0191 27.2474C41.536 26.4526 40.7963 25.8458 39.8318 25.4154L39.4792 26.2057ZM41.2828 27.7021C41.6799 28.3349 41.8813 29.0504 41.8813 29.8606H42.7467C42.7467 28.8984 42.505 28.0216 42.0159 27.2422L41.2828 27.7021ZM41.8813 29.8606C41.8813 30.5636 41.7124 31.2593 41.3662 31.9517L42.1402 32.3387C42.5417 31.5357 42.7467 30.7083 42.7467 29.8606H41.8813ZM41.3647 31.9546C41.0376 32.6216 40.5364 33.2225 39.8477 33.7553L40.3772 34.4398C41.1562 33.8371 41.7489 33.1365 42.1417 32.3358L41.3647 31.9546ZM39.8477 33.7553C39.167 34.2819 38.3288 34.6813 37.3231 34.946L37.5433 35.7829C38.6422 35.4937 39.5902 35.0486 40.3772 34.4398L39.8477 33.7553ZM37.3201 35.7821C37.9262 35.9462 38.3573 36.2014 38.648 36.5256L39.2923 35.9479C38.863 35.469 38.2695 35.1426 37.5463 34.9468L37.3201 35.7821ZM38.648 36.5256C38.9677 36.8823 39.3065 37.4279 39.6577 38.1843L40.4426 37.8199C40.0738 37.0256 39.6925 36.3943 39.2923 35.9479L38.648 36.5256ZM39.658 38.1851C40.0538 39.0332 40.4587 39.6922 40.881 40.1302L41.5039 39.5295C41.1785 39.1921 40.8218 38.6325 40.4422 37.8192L39.658 38.1851ZM40.8865 40.1358C41.3464 40.5957 41.8964 40.8441 42.5217 40.8441V39.9787C42.15 39.9787 41.8139 39.8393 41.4984 39.5239L40.8865 40.1358ZM42.5217 40.8441C43.0666 40.8441 43.5762 40.6632 44.0424 40.3257L43.5348 39.6248C43.1979 39.8687 42.8629 39.9787 42.5217 39.9787V40.8441ZM44.0501 40.3199C44.49 39.9862 45.0198 39.4449 45.6351 38.7178L44.9744 38.1588C44.3712 38.8717 43.8903 39.355 43.5271 39.6305L44.0501 40.3199ZM45.6333 38.7199C45.7378 38.598 45.8126 38.5802 45.8655 38.5802V37.7148C45.5031 37.7148 45.2041 37.8909 44.9762 38.1567L45.6333 38.7199ZM31.8671 35.8041C31.4435 35.8041 31.2836 35.7016 31.2267 35.6316L30.5551 36.1773C30.8582 36.5504 31.3491 36.6694 31.8671 36.6694V35.8041ZM31.2371 35.6448C31.1271 35.4982 31.0744 35.34 31.0744 35.1567H30.209C30.209 35.5273 30.3224 35.8676 30.5448 36.1641L31.2371 35.6448ZM31.0744 35.1567C31.0744 34.9222 31.1434 34.7818 31.2484 34.6838L30.658 34.0512C30.3476 34.3409 30.209 34.7267 30.209 35.1567H31.0744ZM31.2381 34.6931C31.3862 34.5636 31.5358 34.5094 31.7009 34.5094V33.6441C31.3122 33.6441 30.9633 33.7837 30.6683 34.0419L31.2381 34.6931ZM31.7009 34.5094H32.2201V33.6441H31.7009V34.5094ZM32.6472 34.1465C32.8682 32.7926 33.0751 31.6275 33.2677 30.6505L32.4187 30.483C32.2237 31.4721 32.0151 32.647 31.7931 34.007L32.6472 34.1465ZM33.2675 30.6516C33.3423 30.2775 33.4898 30.043 33.6792 29.8964C33.8721 29.7471 34.16 29.6494 34.5878 29.6494V28.7841C34.0326 28.7841 33.5382 28.9113 33.1496 29.212C32.7574 29.5155 32.5241 29.9559 32.4189 30.4819L33.2675 30.6516ZM34.5878 29.6494C34.9269 29.6494 35.1004 29.7263 35.1872 29.804C35.2649 29.8735 35.339 30.0028 35.339 30.276H36.2044C36.2044 29.843 36.0812 29.4427 35.7642 29.1591C35.4564 28.8837 35.038 28.7841 34.5878 28.7841V29.6494ZM35.339 30.276C35.339 30.4202 35.3321 30.51 35.3241 30.5579L36.1777 30.7002C36.1974 30.582 36.2044 30.4363 36.2044 30.276H35.339ZM35.3251 30.5521L34.702 33.9998L35.5536 34.1537L36.1767 30.706L35.3251 30.5521ZM35.1518 34.5088C35.9556 34.4641 36.695 34.2697 37.3637 33.9202L36.9628 33.1533C36.4129 33.4407 35.7955 33.6063 35.1038 33.6447L35.1518 34.5088ZM37.3601 33.922C38.0491 33.5699 38.6001 33.075 39.0032 32.4392L38.2724 31.9758C37.9556 32.4754 37.5234 32.8667 36.9663 33.1515L37.3601 33.922ZM38.9992 32.4455C39.4224 31.8029 39.6313 31.0753 39.6313 30.276H38.7659C38.7659 30.9167 38.601 31.4768 38.2765 31.9695L38.9992 32.4455ZM39.6313 30.276C39.6313 29.2934 39.2897 28.4795 38.5833 27.8881L38.0278 28.5516C38.5121 28.9571 38.7659 29.514 38.7659 30.276H39.6313ZM38.5833 27.8881C37.8802 27.2994 36.8922 27.0394 35.6886 27.0394V27.9048C36.7835 27.9048 37.5401 28.1433 38.0278 28.5516L38.5833 27.8881ZM35.6886 27.0394C34.2559 27.0394 32.9802 27.3988 31.8774 28.1291L32.3552 28.8506C33.3016 28.2239 34.4074 27.9048 35.6886 27.9048V27.0394ZM31.8786 28.1283C30.7839 28.8481 29.9452 29.9187 29.3507 31.3106L30.1465 31.6505C30.6874 30.384 31.4272 29.4608 32.354 28.8514L31.8786 28.1283ZM29.3513 31.3091C28.754 32.6932 28.4644 34.3613 28.4644 36.2991H29.3298C29.3298 34.443 29.6078 32.8988 30.1459 31.652L29.3513 31.3091ZM28.4644 36.2991C28.4644 37.2125 28.5569 38.0157 28.7507 38.7013L29.5834 38.466C29.4172 37.8778 29.3298 37.158 29.3298 36.2991H28.4644ZM28.7507 38.7013C28.9383 39.3653 29.1806 39.908 29.4981 40.2923L30.1653 39.7412C29.9566 39.4886 29.7558 39.0759 29.5834 38.466L28.7507 38.7013ZM29.4981 40.2923C29.7843 40.6388 30.1444 40.9271 30.5794 40.9271V40.0617C30.5435 40.0617 30.4052 40.0316 30.1653 39.7412L29.4981 40.2923ZM30.5794 40.9271C30.938 40.9271 31.2106 40.733 31.384 40.4512L30.647 39.9977C30.6188 40.0436 30.5992 40.0569 30.5957 40.059C30.5938 40.0602 30.5931 40.0604 30.5925 40.0605C30.5918 40.0607 30.588 40.0617 30.5794 40.0617V40.9271ZM31.3713 40.4707C31.5507 40.2116 31.6604 39.8448 31.7327 39.4256L30.8799 39.2786C30.8137 39.6625 30.7296 39.8773 30.6598 39.9781L31.3713 40.4707ZM31.7321 39.4288L32.2929 36.3134L31.4412 36.1601L30.8804 39.2755L31.7321 39.4288Z" fill="url(#paint0_radial_2_493)"/>
<path d="M45.8655 38.1475C46.0455 38.1475 46.184 38.2306 46.2809 38.3967C46.3917 38.5629 46.4471 38.7914 46.4471 39.0821C46.4471 39.6221 46.3155 40.0514 46.0524 40.3698C45.3878 41.1729 44.7163 41.796 44.0378 42.2391C43.3594 42.6683 42.5563 42.8829 41.6286 42.8829C40.7286 42.8829 39.9601 42.6406 39.3232 42.156C38.7001 41.6714 38.1048 40.8406 37.5371 39.6637C37.0801 38.7221 36.7201 38.0298 36.4571 37.5867C36.194 37.1298 35.9309 36.8044 35.6678 36.6106C35.4186 36.4167 35.1071 36.2991 34.7332 36.2575C34.6778 36.5483 34.5186 37.4621 34.2555 38.9991C34.1448 39.6914 34.0755 40.1137 34.0478 40.266C33.9094 41.1106 33.6324 41.7614 33.2171 42.2183C32.8017 42.6614 32.1717 42.8829 31.3271 42.8829C30.3994 42.8829 29.5755 42.6129 28.8555 42.0729C28.1494 41.5191 27.6024 40.7575 27.2148 39.7883C26.8271 38.8052 26.6332 37.6906 26.6332 36.4444C26.6332 34.1183 27.0348 32.1106 27.8378 30.4214C28.6548 28.7321 29.7901 27.4444 31.244 26.5583C32.7117 25.6583 34.4009 25.2083 36.3117 25.2083C37.6409 25.2083 38.7555 25.4091 39.6555 25.8106C40.5555 26.2121 41.2201 26.766 41.6494 27.4721C42.0924 28.1783 42.314 28.9744 42.314 29.8606C42.314 30.636 42.1271 31.3975 41.7532 32.1452C41.3932 32.8791 40.8463 33.5298 40.1124 34.0975C39.3786 34.6652 38.4855 35.0875 37.4332 35.3644C38.0978 35.5444 38.6101 35.8352 38.9701 36.2367C39.3301 36.6383 39.6901 37.2267 40.0501 38.0021C40.4378 38.8329 40.8186 39.4421 41.1924 39.8298C41.5801 40.2175 42.0232 40.4114 42.5217 40.4114C42.9648 40.4114 43.3871 40.266 43.7886 39.9752C44.1901 39.6706 44.6955 39.1583 45.3048 38.4383C45.4709 38.2444 45.6578 38.1475 45.8655 38.1475ZM31.8671 36.2367C31.3963 36.2367 31.0709 36.126 30.8909 35.9044C30.7248 35.6829 30.6417 35.4337 30.6417 35.1567C30.6417 34.8244 30.7455 34.5614 30.9532 34.3675C31.1748 34.1737 31.424 34.0767 31.7009 34.0767H32.2201C32.4417 32.7198 32.6494 31.5498 32.8432 30.5667C33.0232 29.6667 33.6048 29.2167 34.5878 29.2167C35.3771 29.2167 35.7717 29.5698 35.7717 30.276C35.7717 30.4283 35.7648 30.546 35.7509 30.6291L35.1278 34.0767C35.8755 34.0352 36.554 33.8552 37.1632 33.5367C37.7863 33.2183 38.2778 32.7752 38.6378 32.2075C39.0117 31.6398 39.1986 30.996 39.1986 30.276C39.1986 29.4037 38.9009 28.7183 38.3055 28.2198C37.7101 27.7214 36.8378 27.4721 35.6886 27.4721C34.3317 27.4721 33.1409 27.8114 32.1163 28.4898C31.1055 29.1544 30.3163 30.1514 29.7486 31.4806C29.1809 32.796 28.8971 34.4021 28.8971 36.2991C28.8971 37.1852 28.9871 37.9467 29.1671 38.5837C29.3471 39.2206 29.5686 39.6983 29.8317 40.0167C30.0948 40.3352 30.344 40.4944 30.5794 40.4944C30.7594 40.4944 30.9048 40.4044 31.0155 40.2244C31.1401 40.0444 31.2371 39.7537 31.3063 39.3521L31.8671 36.2367Z" fill="white"/>
<path d="M46.2809 38.3967L45.9072 38.6148L45.9137 38.626L45.9209 38.6368L46.2809 38.3967ZM46.0524 40.3698L46.3858 40.6457L46.386 40.6454L46.0524 40.3698ZM44.0378 42.2391L44.2692 42.6048L44.2744 42.6013L44.0378 42.2391ZM39.3232 42.156L39.0575 42.4975L39.0612 42.5003L39.3232 42.156ZM37.5371 39.6637L37.9268 39.4757L37.9263 39.4748L37.5371 39.6637ZM36.4571 37.5867L36.082 37.8027L36.085 37.8077L36.4571 37.5867ZM35.6678 36.6106L35.4021 36.9523L35.4112 36.9589L35.6678 36.6106ZM34.7332 36.2575L34.781 35.8275L34.3831 35.7833L34.3082 36.1766L34.7332 36.2575ZM34.2555 38.9991L33.829 38.926L33.8283 38.9307L34.2555 38.9991ZM34.0478 40.266L33.6221 40.1886L33.6208 40.196L34.0478 40.266ZM33.2171 42.2183L33.5328 42.5143L33.5372 42.5093L33.2171 42.2183ZM28.8555 42.0729L28.5884 42.4134L28.5959 42.4191L28.8555 42.0729ZM27.2148 39.7883L26.8122 39.947L26.813 39.949L27.2148 39.7883ZM27.8378 30.4214L27.4483 30.233L27.447 30.2356L27.8378 30.4214ZM31.244 26.5583L31.4692 26.9278L31.4702 26.9271L31.244 26.5583ZM41.6494 27.4721L41.2796 27.6969L41.2828 27.7021L41.6494 27.4721ZM41.7532 32.1452L41.3662 31.9517L41.3647 31.9546L41.7532 32.1452ZM40.1124 34.0975L40.3772 34.4398L40.3772 34.4398L40.1124 34.0975ZM37.4332 35.3644L37.3231 34.946L35.7558 35.3584L37.3201 35.7821L37.4332 35.3644ZM38.9701 36.2367L39.2923 35.9479L39.2923 35.9479L38.9701 36.2367ZM40.0501 38.0021L39.6577 38.1843L39.658 38.1851L40.0501 38.0021ZM41.1924 39.8298L40.8809 40.1302L40.8865 40.1358L41.1924 39.8298ZM43.7886 39.9752L44.0424 40.3257L44.0501 40.3199L43.7886 39.9752ZM45.3048 38.4383L44.9762 38.1567L44.9744 38.1588L45.3048 38.4383ZM31.8671 36.2367L32.2929 36.3134L32.3846 35.8041H31.8671V36.2367ZM30.8909 35.9044L30.5448 36.1641L30.5498 36.1708L30.5551 36.1773L30.8909 35.9044ZM30.9532 34.3675L30.6681 34.0417L30.658 34.0512L30.9532 34.3675ZM32.2201 34.0767V34.5094H32.5879L32.6472 34.1465L32.2201 34.0767ZM32.8432 30.5667L32.4189 30.4819L32.4187 30.483L32.8432 30.5667ZM35.7509 30.6291L36.1767 30.706L36.1777 30.7002L35.7509 30.6291ZM35.1278 34.0767L34.702 33.9998L34.6046 34.5392L35.1518 34.5088L35.1278 34.0767ZM37.1632 33.5367L36.9663 33.1514L36.9628 33.1533L37.1632 33.5367ZM38.6378 32.2075L38.2764 31.9695L38.2724 31.9758L38.6378 32.2075ZM38.3055 28.2198L38.5833 27.8881L38.5833 27.8881L38.3055 28.2198ZM32.1163 28.4898L32.354 28.8514L32.3552 28.8506L32.1163 28.4898ZM29.7486 31.4806L30.1459 31.652L30.1465 31.6505L29.7486 31.4806ZM29.1671 38.5837L28.7507 38.7013L28.7507 38.7013L29.1671 38.5837ZM29.8317 40.0167L29.4981 40.2923L29.4981 40.2923L29.8317 40.0167ZM31.0155 40.2244L30.6598 39.9781L30.6531 39.9877L30.647 39.9977L31.0155 40.2244ZM31.3063 39.3521L30.8804 39.2755L30.8799 39.2786L31.3063 39.3521ZM45.8655 38.5802C45.8771 38.5802 45.8825 38.5815 45.8835 38.5818C45.8842 38.582 45.8831 38.5817 45.8817 38.5809C45.8776 38.5784 45.8884 38.5826 45.9072 38.6148L46.6547 38.1787C46.4867 37.8908 46.2119 37.7148 45.8655 37.7148V38.5802ZM45.9209 38.6368C45.9672 38.7063 46.0144 38.8398 46.0144 39.0821H46.8798C46.8798 38.7429 46.8161 38.4195 46.6409 38.1567L45.9209 38.6368ZM46.0144 39.0821C46.0144 39.5528 45.9004 39.8744 45.7189 40.0942L46.386 40.6454C46.7306 40.2283 46.8798 39.6914 46.8798 39.0821H46.0144ZM45.7191 40.094C45.0747 40.8726 44.4346 41.4632 43.8012 41.8768L44.2744 42.6013C44.998 42.1288 45.701 41.4732 46.3858 40.6457L45.7191 40.094ZM43.8065 41.8734C43.2075 42.2524 42.4874 42.4502 41.6286 42.4502V43.3156C42.6252 43.3156 43.5113 43.0842 44.2692 42.6047L43.8065 41.8734ZM41.6286 42.4502C40.8109 42.4502 40.1375 42.2319 39.5852 41.8116L39.0612 42.5003C39.7827 43.0493 40.6463 43.3156 41.6286 43.3156V42.4502ZM39.5889 41.8144C39.0421 41.3892 38.4822 40.6272 37.9268 39.4757L37.1473 39.8517C37.7273 41.054 38.3582 41.9536 39.0576 42.4975L39.5889 41.8144ZM37.9263 39.4748C37.4683 38.531 37.1019 37.8252 36.8291 37.3658L36.085 37.8077C36.3384 38.2344 36.6919 38.9133 37.1478 39.8526L37.9263 39.4748ZM36.832 37.3708C36.5553 36.8901 36.2563 36.5068 35.9245 36.2623L35.4112 36.9589C35.6055 37.1021 35.8327 37.3695 36.0821 37.8026L36.832 37.3708ZM35.9335 36.269C35.61 36.0175 35.2189 35.8761 34.781 35.8275L34.6854 36.6876C34.9952 36.722 35.2272 36.816 35.4022 36.9521L35.9335 36.269ZM34.3082 36.1766C34.2518 36.4723 34.0917 37.3913 33.829 38.9261L34.682 39.0721C34.9455 37.5329 35.1038 36.6242 35.1583 36.3385L34.3082 36.1766ZM33.8283 38.9307C33.7172 39.6251 33.6488 40.0419 33.6221 40.1886L34.4735 40.3434C34.5023 40.1854 34.5723 39.7577 34.6828 39.0674L33.8283 38.9307ZM33.6208 40.196C33.4909 40.9888 33.2383 41.5517 32.8969 41.9272L33.5372 42.5093C34.0266 41.971 34.3279 41.2324 34.4748 40.336L33.6208 40.196ZM32.9014 41.9223C32.5957 42.2484 32.1001 42.4502 31.3271 42.4502V43.3156C32.2432 43.3156 33.0076 43.0743 33.5327 42.5142L32.9014 41.9223ZM31.3271 42.4502C30.4899 42.4502 29.7578 42.2087 29.1151 41.7267L28.5959 42.4191C29.3932 43.0171 30.3088 43.3156 31.3271 43.3156V42.4502ZM29.1226 41.7324C28.4855 41.2328 27.9806 40.5377 27.6165 39.6276L26.813 39.949C27.2243 40.9773 27.8132 41.8053 28.5885 42.4134L29.1226 41.7324ZM27.6173 39.6295C27.2527 38.7052 27.0659 37.6458 27.0659 36.4444H26.2005C26.2005 37.7354 26.4014 38.9052 26.8122 39.947L27.6173 39.6295ZM27.0659 36.4444C27.0659 34.1673 27.459 32.226 28.2286 30.6071L27.447 30.2356C26.6105 31.9952 26.2005 34.0693 26.2005 36.4444H27.0659ZM28.2274 30.6097C29.0119 28.9875 30.0936 27.7662 31.4692 26.9278L31.0188 26.1888C29.4867 27.1226 28.2976 28.4768 27.4483 30.233L28.2274 30.6097ZM31.4702 26.9271C32.8625 26.0734 34.4717 25.641 36.3117 25.641V24.7756C34.3301 24.7756 32.5609 25.2432 31.0178 26.1894L31.4702 26.9271ZM36.3117 25.641C37.6002 25.641 38.6505 25.836 39.4792 26.2057L39.8318 25.4154C38.8606 24.9821 37.6816 24.7756 36.3117 24.7756V25.641ZM39.4792 26.2057C40.3147 26.5785 40.9043 27.0794 41.2796 27.6969L42.0191 27.2474C41.536 26.4526 40.7963 25.8458 39.8318 25.4154L39.4792 26.2057ZM41.2828 27.7021C41.6799 28.3349 41.8813 29.0504 41.8813 29.8606H42.7467C42.7467 28.8984 42.505 28.0216 42.0159 27.2422L41.2828 27.7021ZM41.8813 29.8606C41.8813 30.5636 41.7124 31.2593 41.3662 31.9517L42.1402 32.3387C42.5417 31.5357 42.7467 30.7083 42.7467 29.8606H41.8813ZM41.3647 31.9546C41.0376 32.6216 40.5364 33.2225 39.8477 33.7553L40.3772 34.4398C41.1562 33.8371 41.7489 33.1365 42.1417 32.3358L41.3647 31.9546ZM39.8477 33.7553C39.167 34.2819 38.3288 34.6813 37.3231 34.946L37.5433 35.7829C38.6422 35.4937 39.5902 35.0486 40.3772 34.4398L39.8477 33.7553ZM37.3201 35.7821C37.9262 35.9462 38.3573 36.2014 38.648 36.5256L39.2923 35.9479C38.863 35.469 38.2695 35.1426 37.5463 34.9468L37.3201 35.7821ZM38.648 36.5256C38.9677 36.8823 39.3065 37.4279 39.6577 38.1843L40.4426 37.8199C40.0738 37.0256 39.6925 36.3943 39.2923 35.9479L38.648 36.5256ZM39.658 38.1851C40.0538 39.0332 40.4587 39.6922 40.881 40.1302L41.5039 39.5295C41.1785 39.1921 40.8218 38.6325 40.4422 37.8192L39.658 38.1851ZM40.8865 40.1358C41.3464 40.5957 41.8964 40.8441 42.5217 40.8441V39.9787C42.15 39.9787 41.8139 39.8393 41.4984 39.5239L40.8865 40.1358ZM42.5217 40.8441C43.0666 40.8441 43.5762 40.6632 44.0424 40.3257L43.5348 39.6248C43.1979 39.8687 42.8629 39.9787 42.5217 39.9787V40.8441ZM44.0501 40.3199C44.49 39.9862 45.0198 39.4449 45.6351 38.7178L44.9744 38.1588C44.3712 38.8717 43.8903 39.355 43.5271 39.6305L44.0501 40.3199ZM45.6333 38.7199C45.7378 38.598 45.8126 38.5802 45.8655 38.5802V37.7148C45.5031 37.7148 45.2041 37.8909 44.9762 38.1567L45.6333 38.7199ZM31.8671 35.8041C31.4435 35.8041 31.2836 35.7016 31.2267 35.6316L30.5551 36.1773C30.8582 36.5504 31.3491 36.6694 31.8671 36.6694V35.8041ZM31.2371 35.6448C31.1271 35.4982 31.0744 35.34 31.0744 35.1567H30.209C30.209 35.5273 30.3224 35.8676 30.5448 36.1641L31.2371 35.6448ZM31.0744 35.1567C31.0744 34.9222 31.1434 34.7818 31.2484 34.6838L30.658 34.0512C30.3476 34.3409 30.209 34.7267 30.209 35.1567H31.0744ZM31.2381 34.6931C31.3862 34.5636 31.5358 34.5094 31.7009 34.5094V33.6441C31.3122 33.6441 30.9633 33.7837 30.6683 34.0419L31.2381 34.6931ZM31.7009 34.5094H32.2201V33.6441H31.7009V34.5094ZM32.6472 34.1465C32.8682 32.7926 33.0751 31.6275 33.2677 30.6505L32.4187 30.483C32.2237 31.4721 32.0151 32.647 31.7931 34.007L32.6472 34.1465ZM33.2675 30.6516C33.3423 30.2775 33.4898 30.043 33.6792 29.8964C33.8721 29.7471 34.16 29.6494 34.5878 29.6494V28.7841C34.0326 28.7841 33.5382 28.9113 33.1496 29.212C32.7574 29.5155 32.5241 29.9559 32.4189 30.4819L33.2675 30.6516ZM34.5878 29.6494C34.9269 29.6494 35.1004 29.7263 35.1872 29.804C35.2649 29.8735 35.339 30.0028 35.339 30.276H36.2044C36.2044 29.843 36.0812 29.4427 35.7642 29.1591C35.4564 28.8837 35.038 28.7841 34.5878 28.7841V29.6494ZM35.339 30.276C35.339 30.4202 35.3321 30.51 35.3241 30.5579L36.1777 30.7002C36.1974 30.582 36.2044 30.4363 36.2044 30.276H35.339ZM35.3251 30.5521L34.702 33.9998L35.5536 34.1537L36.1767 30.706L35.3251 30.5521ZM35.1518 34.5088C35.9556 34.4641 36.695 34.2697 37.3637 33.9202L36.9628 33.1533C36.4129 33.4407 35.7955 33.6063 35.1038 33.6447L35.1518 34.5088ZM37.3601 33.922C38.0491 33.5699 38.6001 33.075 39.0032 32.4392L38.2724 31.9758C37.9556 32.4754 37.5234 32.8667 36.9663 33.1515L37.3601 33.922ZM38.9992 32.4455C39.4224 31.8029 39.6313 31.0753 39.6313 30.276H38.7659C38.7659 30.9167 38.601 31.4768 38.2765 31.9695L38.9992 32.4455ZM39.6313 30.276C39.6313 29.2934 39.2897 28.4795 38.5833 27.8881L38.0278 28.5516C38.5121 28.9571 38.7659 29.514 38.7659 30.276H39.6313ZM38.5833 27.8881C37.8802 27.2994 36.8922 27.0394 35.6886 27.0394V27.9048C36.7835 27.9048 37.5401 28.1433 38.0278 28.5516L38.5833 27.8881ZM35.6886 27.0394C34.2559 27.0394 32.9802 27.3988 31.8774 28.1291L32.3552 28.8506C33.3016 28.2239 34.4074 27.9048 35.6886 27.9048V27.0394ZM31.8786 28.1283C30.7839 28.8481 29.9452 29.9187 29.3507 31.3106L30.1465 31.6505C30.6874 30.384 31.4272 29.4608 32.354 28.8514L31.8786 28.1283ZM29.3513 31.3091C28.754 32.6932 28.4644 34.3613 28.4644 36.2991H29.3298C29.3298 34.443 29.6078 32.8988 30.1459 31.652L29.3513 31.3091ZM28.4644 36.2991C28.4644 37.2125 28.5569 38.0157 28.7507 38.7013L29.5834 38.466C29.4172 37.8778 29.3298 37.158 29.3298 36.2991H28.4644ZM28.7507 38.7013C28.9383 39.3653 29.1806 39.908 29.4981 40.2923L30.1653 39.7412C29.9566 39.4886 29.7558 39.0759 29.5834 38.466L28.7507 38.7013ZM29.4981 40.2923C29.7843 40.6388 30.1444 40.9271 30.5794 40.9271V40.0617C30.5435 40.0617 30.4052 40.0316 30.1653 39.7412L29.4981 40.2923ZM30.5794 40.9271C30.938 40.9271 31.2106 40.733 31.384 40.4512L30.647 39.9977C30.6188 40.0436 30.5992 40.0569 30.5957 40.059C30.5938 40.0602 30.5931 40.0604 30.5925 40.0605C30.5918 40.0607 30.588 40.0617 30.5794 40.0617V40.9271ZM31.3713 40.4707C31.5507 40.2116 31.6604 39.8448 31.7327 39.4256L30.8799 39.2786C30.8137 39.6625 30.7296 39.8773 30.6598 39.9781L31.3713 40.4707ZM31.7321 39.4288L32.2929 36.3134L31.4412 36.1601L30.8804 39.2755L31.7321 39.4288Z" fill="url(#paint1_radial_2_493)"/>
<path d="M23.0788 27.6038C22.2758 27.6038 21.3688 27.5346 20.3581 27.3962C19.8042 27.3269 19.4235 27.1815 19.2158 26.96C19.0081 26.7385 18.9181 26.3785 18.9458 25.88C19.0427 24.5092 19.2711 22.82 19.6311 20.8123C19.9911 18.7908 20.4273 16.8454 20.9396 14.9762C21.0365 14.63 21.2304 14.3877 21.5211 14.2492C21.8119 14.1108 22.1927 14.0415 22.6635 14.0415C23.5081 14.0415 23.9304 14.2769 23.9304 14.7477C23.9304 14.9415 23.8888 15.1631 23.8058 15.4123C23.4458 16.52 23.0858 18.0085 22.7258 19.8777C22.3658 21.7331 22.1096 23.5054 21.9573 25.1946C22.3727 25.2362 22.8435 25.2569 23.3696 25.2569C25.7927 25.2569 27.5996 24.5231 28.7904 23.0554C29.995 21.5877 30.5973 19.6285 30.5973 17.1777C30.5973 15.53 30.1265 14.2562 29.185 13.3562C28.2435 12.4562 26.9142 12.0062 25.1973 12.0062C24.0896 12.0062 22.9888 12.1792 21.895 12.5254C20.815 12.8715 19.8388 13.3285 18.9665 13.8962C18.7865 14.0208 18.5927 14.0831 18.385 14.0831C18.1496 14.0831 17.9627 13.9862 17.8242 13.7923C17.6858 13.5846 17.6165 13.3354 17.6165 13.0446C17.6165 12.7123 17.6719 12.4423 17.7827 12.2346C17.8935 12.0131 18.0804 11.8123 18.3435 11.6323C19.2988 10.9815 20.4204 10.49 21.7081 10.1577C22.9958 9.81154 24.235 9.63846 25.4258 9.63846C27.115 9.63846 28.5758 9.93616 29.8081 10.5315C31.0404 11.1131 31.9888 11.9715 32.6535 13.1069C33.3181 14.2423 33.6504 15.6131 33.6504 17.2192C33.6504 19.31 33.235 21.1377 32.4042 22.7023C31.5735 24.2531 30.3619 25.4577 28.7696 26.3162C27.1773 27.1746 25.2804 27.6038 23.0788 27.6038Z" fill="white"/>
<path d="M20.3581 27.3962L20.4168 26.9674L20.4117 26.9668L20.3581 27.3962ZM19.2158 26.96L18.9001 27.2559L18.9001 27.2559L19.2158 26.96ZM18.9458 25.88L18.5141 25.8495L18.5137 25.856L18.9458 25.88ZM19.6311 20.8123L20.057 20.8887L20.0571 20.8882L19.6311 20.8123ZM20.9396 14.9762L20.5229 14.8595L20.5223 14.8618L20.9396 14.9762ZM23.8058 15.4123L23.3953 15.2755L23.3943 15.2786L23.8058 15.4123ZM22.7258 19.8777L23.1505 19.9601L23.1506 19.9595L22.7258 19.8777ZM21.9573 25.1946L21.5264 25.1558L21.4879 25.5825L21.9142 25.6252L21.9573 25.1946ZM28.7904 23.0554L28.4559 22.7809L28.4544 22.7828L28.7904 23.0554ZM29.185 13.3562L29.484 13.0434L29.484 13.0434L29.185 13.3562ZM21.895 12.5254L21.7644 12.1129L21.7629 12.1133L21.895 12.5254ZM18.9665 13.8962L18.7304 13.5334L18.7202 13.5404L18.9665 13.8962ZM17.8242 13.7923L17.464 14.0324L17.4721 14.0438L17.8242 13.7923ZM17.7827 12.2346L18.1646 12.4383L18.1697 12.4281L17.7827 12.2346ZM18.3435 11.6323L18.0999 11.2747L18.0991 11.2752L18.3435 11.6323ZM21.7081 10.1577L21.8162 10.5767L21.8204 10.5756L21.7081 10.1577ZM29.8081 10.5315L29.6198 10.9212L29.6234 10.9228L29.8081 10.5315ZM32.6535 13.1069L33.0269 12.8883L33.0269 12.8883L32.6535 13.1069ZM32.4042 22.7023L32.7856 22.9066L32.7864 22.9052L32.4042 22.7023ZM28.7696 26.3162L28.5643 25.9353L28.5643 25.9353L28.7696 26.3162ZM23.0788 27.1712C22.2998 27.1712 21.413 27.1039 20.4168 26.9675L20.2993 27.8248C21.3246 27.9653 22.2517 28.0365 23.0788 28.0365V27.1712ZM20.4117 26.9668C19.8841 26.9008 19.6321 26.7714 19.5314 26.6641L18.9001 27.2559C19.2148 27.5916 19.7244 27.753 20.3044 27.8255L20.4117 26.9668ZM19.5314 26.6641C19.4437 26.5705 19.3526 26.3572 19.3778 25.904L18.5137 25.856C18.4835 26.3997 18.5724 26.9064 18.9001 27.2559L19.5314 26.6641ZM19.3774 25.9105C19.4728 24.5605 19.6986 22.8877 20.057 20.8887L19.2052 20.7359C18.8437 22.7523 18.6125 24.4579 18.5141 25.8495L19.3774 25.9105ZM20.0571 20.8882C20.415 18.8788 20.8483 16.9463 21.3569 15.0905L20.5223 14.8618C20.0063 16.7444 19.5673 18.7027 19.2052 20.7364L20.0571 20.8882ZM21.3563 15.0928C21.4239 14.8514 21.5431 14.718 21.7072 14.6399L21.3351 13.8586C20.9176 14.0574 20.6492 14.4086 20.5229 14.8595L21.3563 15.0928ZM21.7072 14.6399C21.9193 14.5389 22.2297 14.4742 22.6635 14.4742V13.6088C22.1557 13.6088 21.7045 13.6827 21.3351 13.8586L21.7072 14.6399ZM22.6635 14.4742C23.0597 14.4742 23.288 14.5319 23.403 14.596C23.454 14.6244 23.4724 14.6483 23.4798 14.6608C23.487 14.6728 23.4977 14.6967 23.4977 14.7477H24.3631C24.3631 14.5633 24.321 14.3813 24.2225 14.2167C24.1244 14.0526 23.9845 13.9294 23.8243 13.8401C23.517 13.6689 23.1118 13.6088 22.6635 13.6088V14.4742ZM23.4977 14.7477C23.4977 14.8818 23.4685 15.0558 23.3953 15.2755L24.2162 15.5491C24.3092 15.2704 24.3631 15.0013 24.3631 14.7477H23.4977ZM23.3943 15.2786C23.0264 16.4105 22.6624 17.9186 22.3009 19.7959L23.1506 19.9595C23.5091 18.0984 23.8651 16.6295 24.2173 15.546L23.3943 15.2786ZM22.301 19.7953C21.9385 21.6635 21.6801 23.4504 21.5264 25.1558L22.3882 25.2335C22.5391 23.5604 22.793 21.8027 23.1505 19.9601L22.301 19.7953ZM21.9142 25.6252C22.347 25.6684 22.8326 25.6896 23.3696 25.6896V24.8242C22.8543 24.8242 22.3983 24.8039 22.0004 24.7641L21.9142 25.6252ZM23.3696 25.6896C25.8832 25.6896 27.8313 24.9243 29.1264 23.328L28.4544 22.7828C27.368 24.1218 25.7022 24.8242 23.3696 24.8242V25.6896ZM29.1248 23.3299C30.4095 21.7647 31.03 19.699 31.03 17.1777H30.1646C30.1646 19.5579 29.5805 21.4107 28.4559 22.7809L29.1248 23.3299ZM31.03 17.1777C31.03 15.445 30.5322 14.0454 29.484 13.0434L28.886 13.6689C29.7208 14.4669 30.1646 15.615 30.1646 17.1777H31.03ZM29.484 13.0434C28.4389 12.0444 26.9891 11.5735 25.1973 11.5735V12.4388C26.8394 12.4388 28.048 12.8679 28.886 13.6689L29.484 13.0434ZM25.1973 11.5735C24.0437 11.5735 22.899 11.7538 21.7644 12.1129L22.0255 12.9379C23.0787 12.6046 24.1355 12.4388 25.1973 12.4388V11.5735ZM21.7629 12.1133C20.6495 12.4702 19.6379 12.943 18.7305 13.5335L19.2025 14.2588C20.0398 13.7139 20.9805 13.2729 22.0271 12.9374L21.7629 12.1133ZM18.7202 13.5404C18.6085 13.6178 18.4998 13.6504 18.385 13.6504V14.5158C18.6856 14.5158 18.9646 14.4238 19.2128 14.2519L18.7202 13.5404ZM18.385 13.6504C18.2913 13.6504 18.2347 13.6226 18.1763 13.5408L17.4721 14.0438C17.6906 14.3497 18.0079 14.5158 18.385 14.5158V13.6504ZM18.1842 13.5523C18.1006 13.4268 18.0492 13.2644 18.0492 13.0446H17.1838C17.1838 13.4064 17.2709 13.7424 17.4642 14.0323L18.1842 13.5523ZM18.0492 13.0446C18.0492 12.7558 18.098 12.5628 18.1645 12.4382L17.4009 12.031C17.2458 12.3218 17.1838 12.6688 17.1838 13.0446H18.0492ZM18.1697 12.4281C18.2395 12.2886 18.3684 12.1395 18.5878 11.9894L18.0991 11.2752C17.7923 11.4851 17.5474 11.7376 17.3957 12.0411L18.1697 12.4281ZM18.587 11.9899C19.4955 11.3712 20.5697 10.8983 21.8162 10.5767L21.5999 9.73873C20.2711 10.0817 19.1022 10.5919 18.0999 11.2747L18.587 11.9899ZM21.8204 10.5756C23.0758 10.2381 24.2771 10.0712 25.4258 10.0712V9.20577C24.1928 9.20577 22.9158 9.38499 21.5957 9.73984L21.8204 10.5756ZM25.4258 10.0712C27.0647 10.0712 28.4583 10.36 29.6198 10.9211L29.9963 10.1419C28.6932 9.51234 27.1652 9.20577 25.4258 9.20577V10.0712ZM29.6234 10.9228C30.7798 11.4686 31.6611 12.2682 32.28 13.3255L33.0269 12.8883C32.3165 11.6749 31.3009 10.7576 29.9927 10.1402L29.6234 10.9228ZM32.28 13.3255C32.8981 14.3814 33.2177 15.673 33.2177 17.2192H34.0831C34.0831 15.5532 33.738 14.1032 33.0269 12.8883L32.28 13.3255ZM33.2177 17.2192C33.2177 19.252 32.8141 21.0076 32.0221 22.4994L32.7864 22.9052C33.6558 21.2678 34.0831 19.368 34.0831 17.2192H33.2177ZM32.0228 22.498C31.2333 23.9717 30.0841 25.1159 28.5643 25.9353L28.9749 26.697C30.6398 25.7995 31.9136 24.5345 32.7856 22.9066L32.0228 22.498ZM28.5643 25.9353C27.0474 26.7531 25.2241 27.1712 23.0788 27.1712V28.0365C25.3366 28.0365 27.3072 27.5961 28.9749 26.697L28.5643 25.9353Z" fill="url(#paint2_radial_2_493)"/>
<path d="M23.0788 27.6038C22.2758 27.6038 21.3688 27.5346 20.3581 27.3962C19.8042 27.3269 19.4235 27.1815 19.2158 26.96C19.0081 26.7385 18.9181 26.3785 18.9458 25.88C19.0427 24.5092 19.2711 22.82 19.6311 20.8123C19.9911 18.7908 20.4273 16.8454 20.9396 14.9762C21.0365 14.63 21.2304 14.3877 21.5211 14.2492C21.8119 14.1108 22.1927 14.0415 22.6635 14.0415C23.5081 14.0415 23.9304 14.2769 23.9304 14.7477C23.9304 14.9415 23.8888 15.1631 23.8058 15.4123C23.4458 16.52 23.0858 18.0085 22.7258 19.8777C22.3658 21.7331 22.1096 23.5054 21.9573 25.1946C22.3727 25.2362 22.8435 25.2569 23.3696 25.2569C25.7927 25.2569 27.5996 24.5231 28.7904 23.0554C29.995 21.5877 30.5973 19.6285 30.5973 17.1777C30.5973 15.53 30.1265 14.2562 29.185 13.3562C28.2435 12.4562 26.9142 12.0062 25.1973 12.0062C24.0896 12.0062 22.9888 12.1792 21.895 12.5254C20.815 12.8715 19.8388 13.3285 18.9665 13.8962C18.7865 14.0208 18.5927 14.0831 18.385 14.0831C18.1496 14.0831 17.9627 13.9862 17.8242 13.7923C17.6858 13.5846 17.6165 13.3354 17.6165 13.0446C17.6165 12.7123 17.6719 12.4423 17.7827 12.2346C17.8935 12.0131 18.0804 11.8123 18.3435 11.6323C19.2988 10.9815 20.4204 10.49 21.7081 10.1577C22.9958 9.81154 24.235 9.63846 25.4258 9.63846C27.115 9.63846 28.5758 9.93616 29.8081 10.5315C31.0404 11.1131 31.9888 11.9715 32.6535 13.1069C33.3181 14.2423 33.6504 15.6131 33.6504 17.2192C33.6504 19.31 33.235 21.1377 32.4042 22.7023C31.5735 24.2531 30.3619 25.4577 28.7696 26.3162C27.1773 27.1746 25.2804 27.6038 23.0788 27.6038Z" fill="white"/>
<path d="M20.3581 27.3962L20.4168 26.9674L20.4117 26.9668L20.3581 27.3962ZM19.2158 26.96L18.9001 27.2559L18.9001 27.2559L19.2158 26.96ZM18.9458 25.88L18.5141 25.8495L18.5137 25.856L18.9458 25.88ZM19.6311 20.8123L20.057 20.8887L20.0571 20.8882L19.6311 20.8123ZM20.9396 14.9762L20.5229 14.8595L20.5223 14.8618L20.9396 14.9762ZM23.8058 15.4123L23.3953 15.2755L23.3943 15.2786L23.8058 15.4123ZM22.7258 19.8777L23.1505 19.9601L23.1506 19.9595L22.7258 19.8777ZM21.9573 25.1946L21.5264 25.1558L21.4879 25.5825L21.9142 25.6252L21.9573 25.1946ZM28.7904 23.0554L28.4559 22.7809L28.4544 22.7828L28.7904 23.0554ZM29.185 13.3562L29.484 13.0434L29.484 13.0434L29.185 13.3562ZM21.895 12.5254L21.7644 12.1129L21.7629 12.1133L21.895 12.5254ZM18.9665 13.8962L18.7304 13.5334L18.7202 13.5404L18.9665 13.8962ZM17.8242 13.7923L17.464 14.0324L17.4721 14.0438L17.8242 13.7923ZM17.7827 12.2346L18.1646 12.4383L18.1697 12.4281L17.7827 12.2346ZM18.3435 11.6323L18.0999 11.2747L18.0991 11.2752L18.3435 11.6323ZM21.7081 10.1577L21.8162 10.5767L21.8204 10.5756L21.7081 10.1577ZM29.8081 10.5315L29.6198 10.9212L29.6234 10.9228L29.8081 10.5315ZM32.6535 13.1069L33.0269 12.8883L33.0269 12.8883L32.6535 13.1069ZM32.4042 22.7023L32.7856 22.9066L32.7864 22.9052L32.4042 22.7023ZM28.7696 26.3162L28.5643 25.9353L28.5643 25.9353L28.7696 26.3162ZM23.0788 27.1712C22.2998 27.1712 21.413 27.1039 20.4168 26.9675L20.2993 27.8248C21.3246 27.9653 22.2517 28.0365 23.0788 28.0365V27.1712ZM20.4117 26.9668C19.8841 26.9008 19.6321 26.7714 19.5314 26.6641L18.9001 27.2559C19.2148 27.5916 19.7244 27.753 20.3044 27.8255L20.4117 26.9668ZM19.5314 26.6641C19.4437 26.5705 19.3526 26.3572 19.3778 25.904L18.5137 25.856C18.4835 26.3997 18.5724 26.9064 18.9001 27.2559L19.5314 26.6641ZM19.3774 25.9105C19.4728 24.5605 19.6986 22.8877 20.057 20.8887L19.2052 20.7359C18.8437 22.7523 18.6125 24.4579 18.5141 25.8495L19.3774 25.9105ZM20.0571 20.8882C20.415 18.8788 20.8483 16.9463 21.3569 15.0905L20.5223 14.8618C20.0063 16.7444 19.5673 18.7027 19.2052 20.7364L20.0571 20.8882ZM21.3563 15.0928C21.4239 14.8514 21.5431 14.718 21.7072 14.6399L21.3351 13.8586C20.9176 14.0574 20.6492 14.4086 20.5229 14.8595L21.3563 15.0928ZM21.7072 14.6399C21.9193 14.5389 22.2297 14.4742 22.6635 14.4742V13.6088C22.1557 13.6088 21.7045 13.6827 21.3351 13.8586L21.7072 14.6399ZM22.6635 14.4742C23.0597 14.4742 23.288 14.5319 23.403 14.596C23.454 14.6244 23.4724 14.6483 23.4798 14.6608C23.487 14.6728 23.4977 14.6967 23.4977 14.7477H24.3631C24.3631 14.5633 24.321 14.3813 24.2225 14.2167C24.1244 14.0526 23.9845 13.9294 23.8243 13.8401C23.517 13.6689 23.1118 13.6088 22.6635 13.6088V14.4742ZM23.4977 14.7477C23.4977 14.8818 23.4685 15.0558 23.3953 15.2755L24.2162 15.5491C24.3092 15.2704 24.3631 15.0013 24.3631 14.7477H23.4977ZM23.3943 15.2786C23.0264 16.4105 22.6624 17.9186 22.3009 19.7959L23.1506 19.9595C23.5091 18.0984 23.8651 16.6295 24.2173 15.546L23.3943 15.2786ZM22.301 19.7953C21.9385 21.6635 21.6801 23.4504 21.5264 25.1558L22.3882 25.2335C22.5391 23.5604 22.793 21.8027 23.1505 19.9601L22.301 19.7953ZM21.9142 25.6252C22.347 25.6684 22.8326 25.6896 23.3696 25.6896V24.8242C22.8543 24.8242 22.3983 24.8039 22.0004 24.7641L21.9142 25.6252ZM23.3696 25.6896C25.8832 25.6896 27.8313 24.9243 29.1264 23.328L28.4544 22.7828C27.368 24.1218 25.7022 24.8242 23.3696 24.8242V25.6896ZM29.1248 23.3299C30.4095 21.7647 31.03 19.699 31.03 17.1777H30.1646C30.1646 19.5579 29.5805 21.4107 28.4559 22.7809L29.1248 23.3299ZM31.03 17.1777C31.03 15.445 30.5322 14.0454 29.484 13.0434L28.886 13.6689C29.7208 14.4669 30.1646 15.615 30.1646 17.1777H31.03ZM29.484 13.0434C28.4389 12.0444 26.9891 11.5735 25.1973 11.5735V12.4388C26.8394 12.4388 28.048 12.8679 28.886 13.6689L29.484 13.0434ZM25.1973 11.5735C24.0437 11.5735 22.899 11.7538 21.7644 12.1129L22.0255 12.9379C23.0787 12.6046 24.1355 12.4388 25.1973 12.4388V11.5735ZM21.7629 12.1133C20.6495 12.4702 19.6379 12.943 18.7305 13.5335L19.2025 14.2588C20.0398 13.7139 20.9805 13.2729 22.0271 12.9374L21.7629 12.1133ZM18.7202 13.5404C18.6085 13.6178 18.4998 13.6504 18.385 13.6504V14.5158C18.6856 14.5158 18.9646 14.4238 19.2128 14.2519L18.7202 13.5404ZM18.385 13.6504C18.2913 13.6504 18.2347 13.6226 18.1763 13.5408L17.4721 14.0438C17.6906 14.3497 18.0079 14.5158 18.385 14.5158V13.6504ZM18.1842 13.5523C18.1006 13.4268 18.0492 13.2644 18.0492 13.0446H17.1838C17.1838 13.4064 17.2709 13.7424 17.4642 14.0323L18.1842 13.5523ZM18.0492 13.0446C18.0492 12.7558 18.098 12.5628 18.1645 12.4382L17.4009 12.031C17.2458 12.3218 17.1838 12.6688 17.1838 13.0446H18.0492ZM18.1697 12.4281C18.2395 12.2886 18.3684 12.1395 18.5878 11.9894L18.0991 11.2752C17.7923 11.4851 17.5474 11.7376 17.3957 12.0411L18.1697 12.4281ZM18.587 11.9899C19.4955 11.3712 20.5697 10.8983 21.8162 10.5767L21.5999 9.73873C20.2711 10.0817 19.1022 10.5919 18.0999 11.2747L18.587 11.9899ZM21.8204 10.5756C23.0758 10.2381 24.2771 10.0712 25.4258 10.0712V9.20577C24.1928 9.20577 22.9158 9.38499 21.5957 9.73984L21.8204 10.5756ZM25.4258 10.0712C27.0647 10.0712 28.4583 10.36 29.6198 10.9211L29.9963 10.1419C28.6932 9.51234 27.1652 9.20577 25.4258 9.20577V10.0712ZM29.6234 10.9228C30.7798 11.4686 31.6611 12.2682 32.28 13.3255L33.0269 12.8883C32.3165 11.6749 31.3009 10.7576 29.9927 10.1402L29.6234 10.9228ZM32.28 13.3255C32.8981 14.3814 33.2177 15.673 33.2177 17.2192H34.0831C34.0831 15.5532 33.738 14.1032 33.0269 12.8883L32.28 13.3255ZM33.2177 17.2192C33.2177 19.252 32.8141 21.0076 32.0221 22.4994L32.7864 22.9052C33.6558 21.2678 34.0831 19.368 34.0831 17.2192H33.2177ZM32.0228 22.498C31.2333 23.9717 30.0841 25.1159 28.5643 25.9353L28.9749 26.697C30.6398 25.7995 31.9136 24.5345 32.7856 22.9066L32.0228 22.498ZM28.5643 25.9353C27.0474 26.7531 25.2241 27.1712 23.0788 27.1712V28.0365C25.3366 28.0365 27.3072 27.5961 28.9749 26.697L28.5643 25.9353Z" fill="url(#paint3_radial_2_493)"/>
<path d="M15.4681 27.4472L16.9435 30.398C17.1423 30.8061 17.676 31.1933 18.1259 31.277L20.7942 31.7165C22.4998 31.999 22.8974 33.2337 21.6732 34.4685L19.5909 36.5508C19.2456 36.8961 19.0468 37.5762 19.1619 38.068L19.7583 40.6421C20.2292 42.6721 19.1409 43.4673 17.3516 42.4L14.8508 40.9142C14.4008 40.6421 13.6474 40.6421 13.1975 40.9142L10.6966 42.4C8.90732 43.4569 7.81909 42.6721 8.28996 40.6421L8.8864 38.068C8.98057 37.5658 8.78176 36.8856 8.43645 36.5403L6.35415 34.458C5.12989 33.2337 5.52751 31.999 7.23311 31.706L9.90139 31.2665C10.3513 31.1933 10.885 30.7957 11.0838 30.3876L12.5592 27.4368C13.3649 25.8463 14.6624 25.8463 15.4681 27.4472V27.4472ZM7.73538 28.0112H1.45709C1.02807 28.0112 0.672302 27.6555 0.672302 27.2265C0.672302 26.7974 1.02807 26.4417 1.45709 26.4417H7.73538C8.16439 26.4417 8.52016 26.7974 8.52016 27.2265C8.52016 27.6555 8.16439 28.0112 7.73538 28.0112ZM4.59623 42.6606H1.45709C1.02807 42.6606 0.672302 42.3048 0.672302 41.8758C0.672302 41.4468 1.02807 41.091 1.45709 41.091H4.59623C5.02525 41.091 5.38102 41.4468 5.38102 41.8758C5.38102 42.3048 5.02525 42.6606 4.59623 42.6606ZM2.50347 35.3359H1.45709C1.02807 35.3359 0.672302 34.9801 0.672302 34.5511C0.672302 34.1221 1.02807 33.7663 1.45709 33.7663H2.50347C2.93249 33.7663 3.28826 34.1221 3.28826 34.5511C3.28826 34.9801 2.93249 35.3359 2.50347 35.3359Z" fill="white"/>
<defs>
<radialGradient id="paint0_radial_2_493" cx="0" cy="0" r="1" gradientUnits="userSpaceOnUse" gradientTransform="translate(28.3914 27.5) rotate(65.3189) scale(19.8097 14.7609)">
<stop stop-color="#FDE047"/>
<stop offset="0.544351" stop-opacity="0"/>
</radialGradient>
<radialGradient id="paint1_radial_2_493" cx="0" cy="0" r="1" gradientUnits="userSpaceOnUse" gradientTransform="translate(28.3914 27.5) rotate(65.3189) scale(19.8097 14.7609)">
<stop stop-color="#FDE047"/>
<stop offset="0.544351" stop-opacity="0"/>
</radialGradient>
<radialGradient id="paint2_radial_2_493" cx="0" cy="0" r="1" gradientUnits="userSpaceOnUse" gradientTransform="translate(19.5824 12.2209) rotate(65.3189) scale(19.8097 14.7609)">
<stop stop-color="#FDE047"/>
<stop offset="0.544351" stop-opacity="0"/>
</radialGradient>
<radialGradient id="paint3_radial_2_493" cx="0" cy="0" r="1" gradientUnits="userSpaceOnUse" gradientTransform="translate(19.5824 12.2209) rotate(65.3189) scale(19.8097 14.7609)">
<stop stop-color="#FDE047"/>
<stop offset="0.544351" stop-opacity="0"/>
</radialGradient>
</defs>
</svg>
