<svg width="48" height="46" viewBox="0 0 48 46" fill="none" xmlns="http://www.w3.org/2000/svg">
<path d="M44.9717 38.2623C45.1473 38.2623 45.2823 38.3433 45.3769 38.5054C45.4849 38.6675 45.5389 38.8903 45.5389 39.1739C45.5389 39.7006 45.4106 40.1192 45.154 40.4298C44.5058 41.2131 43.8509 41.8208 43.1891 42.2529C42.5274 42.6716 41.7441 42.8809 40.8393 42.8809C39.9615 42.8809 39.212 42.6446 38.5908 42.1719C37.9831 41.6992 37.4024 40.889 36.8487 39.7411C36.4031 38.8228 36.052 38.1475 35.7954 37.7154C35.5388 37.2697 35.2822 36.9524 35.0256 36.7633C34.7825 36.5742 34.4787 36.4595 34.114 36.4189C34.06 36.7025 33.9047 37.5938 33.6481 39.0928C33.5401 39.7681 33.4726 40.18 33.4456 40.3285C33.3105 41.1523 33.0404 41.787 32.6353 42.2327C32.2302 42.6648 31.6157 42.8809 30.7919 42.8809C29.8871 42.8809 29.0836 42.6175 28.3813 42.0909C27.6926 41.5507 27.1592 40.8079 26.7811 39.8626C26.4029 38.9038 26.2139 37.8167 26.2139 36.6013C26.2139 34.3325 26.6055 32.3743 27.3888 30.7268C28.1855 29.0792 29.2929 27.8233 30.7109 26.959C32.1424 26.0812 33.7899 25.6423 35.6536 25.6423C36.95 25.6423 38.0371 25.8381 38.9149 26.2297C39.7927 26.6214 40.4409 27.1615 40.8596 27.8503C41.2917 28.539 41.5078 29.3155 41.5078 30.1798C41.5078 30.9361 41.3255 31.6788 40.9609 32.4081C40.6098 33.1238 40.0763 33.7585 39.3606 34.3122C38.6448 34.8659 37.7738 35.2778 36.7474 35.5479C37.3957 35.7235 37.8953 36.0071 38.2464 36.3987C38.5976 36.7903 38.9487 37.3643 39.2998 38.1205C39.6779 38.9308 40.0493 39.525 40.4139 39.9031C40.7921 40.2813 41.2242 40.4703 41.7104 40.4703C42.1425 40.4703 42.5544 40.3285 42.946 40.0449C43.3377 39.7478 43.8306 39.2482 44.4248 38.5459C44.5869 38.3568 44.7692 38.2623 44.9717 38.2623ZM31.3186 36.3987C30.8594 36.3987 30.5421 36.2906 30.3665 36.0746C30.2045 35.8585 30.1234 35.6154 30.1234 35.3453C30.1234 35.0212 30.2247 34.7646 30.4273 34.5756C30.6434 34.3865 30.8864 34.292 31.1565 34.292H31.663C31.879 32.9685 32.0816 31.8274 32.2707 30.8686C32.4462 29.9908 33.0134 29.5519 33.9722 29.5519C34.742 29.5519 35.1269 29.8962 35.1269 30.585C35.1269 30.7335 35.1201 30.8483 35.1066 30.9293L34.4989 34.292C35.2282 34.2515 35.8899 34.0759 36.4841 33.7653C37.0918 33.4547 37.5712 33.0225 37.9223 32.4688C38.287 31.9152 38.4693 31.2872 38.4693 30.585C38.4693 29.7342 38.1789 29.0657 37.5982 28.5795C37.0175 28.0934 36.1667 27.8503 35.0459 27.8503C33.7224 27.8503 32.561 28.1811 31.5617 28.8429C30.5758 29.4911 29.8061 30.4634 29.2524 31.7599C28.6987 33.0428 28.4219 34.6093 28.4219 36.4595C28.4219 37.3237 28.5096 38.0665 28.6852 38.6877C28.8608 39.3089 29.0768 39.7748 29.3334 40.0854C29.59 40.396 29.8331 40.5513 30.0627 40.5513C30.2382 40.5513 30.38 40.4636 30.4881 40.288C30.6096 40.1124 30.7041 39.8288 30.7717 39.4372L31.3186 36.3987Z" fill="#18181B"/>
<path d="M45.3769 38.5054L45.1943 38.6119L45.2013 38.6224L45.3769 38.5054ZM45.154 40.4298L45.3166 40.5643L45.3167 40.5642L45.154 40.4298ZM43.1891 42.2529L43.302 42.4313L43.3045 42.4296L43.1891 42.2529ZM38.5908 42.1719L38.4613 42.3385L38.463 42.3398L38.5908 42.1719ZM36.8487 39.7411L37.0388 39.6494L37.0386 39.6489L36.8487 39.7411ZM35.7954 37.7154L35.6125 37.8207L35.6139 37.8231L35.7954 37.7154ZM35.0256 36.7633L34.896 36.9299L34.9004 36.9332L35.0256 36.7633ZM34.114 36.4189L34.1373 36.2092L33.9433 36.1877L33.9068 36.3795L34.114 36.4189ZM33.6481 39.0928L33.4401 39.0572L33.4398 39.0595L33.6481 39.0928ZM33.4456 40.3285L33.2379 40.2908L33.2373 40.2944L33.4456 40.3285ZM32.6353 42.2327L32.7892 42.377L32.7914 42.3746L32.6353 42.2327ZM28.3813 42.0909L28.2511 42.2569L28.2547 42.2597L28.3813 42.0909ZM26.7811 39.8626L26.5848 39.94L26.5851 39.941L26.7811 39.8626ZM27.3888 30.7268L27.1988 30.6349L27.1982 30.6362L27.3888 30.7268ZM30.7109 26.959L30.8207 27.1392L30.8212 27.1389L30.7109 26.959ZM40.8596 27.8503L40.6793 27.9599L40.6808 27.9624L40.8596 27.8503ZM40.9609 32.4081L40.7721 32.3137L40.7714 32.3151L40.9609 32.4081ZM39.3606 34.3122L39.4897 34.4791L39.4897 34.4791L39.3606 34.3122ZM36.7474 35.5479L36.6937 35.3438L35.9294 35.545L36.6923 35.7516L36.7474 35.5479ZM38.2464 36.3987L38.4036 36.2578L38.4036 36.2578L38.2464 36.3987ZM39.2998 38.1205L39.1084 38.2094L39.1086 38.2098L39.2998 38.1205ZM40.4139 39.9031L40.262 40.0496L40.2647 40.0523L40.4139 39.9031ZM42.946 40.0449L43.0698 40.2159L43.0736 40.213L42.946 40.0449ZM44.4248 38.5459L44.2646 38.4086L44.2637 38.4096L44.4248 38.5459ZM31.3186 36.3987L31.5263 36.4361L31.571 36.1877H31.3186V36.3987ZM30.3665 36.0746L30.1976 36.2013L30.2028 36.2076L30.3665 36.0746ZM30.4273 34.5756L30.2883 34.4167L30.2833 34.4213L30.4273 34.5756ZM31.663 34.292V34.503H31.8423L31.8712 34.326L31.663 34.292ZM32.2707 30.8686L32.0638 30.8272L32.0636 30.8277L32.2707 30.8686ZM35.1066 30.9293L35.3143 30.9669L35.3148 30.964L35.1066 30.9293ZM34.4989 34.292L34.2913 34.2544L34.2437 34.5175L34.5106 34.5027L34.4989 34.292ZM36.4841 33.7653L36.3881 33.5774L36.3863 33.5783L36.4841 33.7653ZM37.9223 32.4688L37.7461 32.3528L37.7441 32.3558L37.9223 32.4688ZM37.5982 28.5795L37.7337 28.4177L37.7337 28.4177L37.5982 28.5795ZM31.5617 28.8429L31.6776 29.0192L31.6782 29.0188L31.5617 28.8429ZM29.2524 31.7599L29.4461 31.8435L29.4464 31.8427L29.2524 31.7599ZM28.6852 38.6877L28.4821 38.7451L28.4821 38.7451L28.6852 38.6877ZM29.3334 40.0854L29.1707 40.2198L29.1707 40.2198L29.3334 40.0854ZM30.4881 40.288L30.3143 40.1677L30.3084 40.1774L30.4881 40.288ZM30.7717 39.4372L30.564 39.3998L30.5637 39.4014L30.7717 39.4372ZM44.9717 38.4733C45.0662 38.4733 45.1347 38.5091 45.1946 38.6117L45.5591 38.3991C45.43 38.1776 45.2284 38.0513 44.9717 38.0513V38.4733ZM45.2013 38.6224C45.2779 38.7374 45.3279 38.9139 45.3279 39.1739H45.7499C45.7499 38.8667 45.6919 38.5975 45.5524 38.3884L45.2013 38.6224ZM45.3279 39.1739C45.3279 39.6668 45.2082 40.0329 44.9914 40.2954L45.3167 40.5642C45.6131 40.2055 45.7499 39.7344 45.7499 39.1739H45.3279ZM44.9915 40.2953C44.3531 41.0666 43.7135 41.6585 43.0738 42.0763L43.3045 42.4296C43.9882 41.9831 44.6585 41.3595 45.3166 40.5643L44.9915 40.2953ZM43.0763 42.0746C42.4533 42.4687 41.7105 42.6699 40.8393 42.6699V43.0919C41.7777 43.0919 42.6015 42.8744 43.3019 42.4312L43.0763 42.0746ZM40.8393 42.6699C40.0016 42.6699 39.2985 42.4452 38.7186 42.004L38.463 42.3398C39.1255 42.8439 39.9214 43.0919 40.8393 43.0919V42.6699ZM38.7204 42.0053C38.1499 41.5616 37.5865 40.7849 37.0388 39.6494L36.6587 39.8327C37.2183 40.993 37.8163 41.8368 38.4613 42.3385L38.7204 42.0053ZM37.0386 39.6489C36.5924 38.7296 36.2381 38.0478 35.9768 37.6077L35.6139 37.8231C35.8658 38.2473 36.2138 38.916 36.6589 39.8332L37.0386 39.6489ZM35.9782 37.6101C35.715 37.1528 35.4409 36.8072 35.1508 36.5934L34.9004 36.9332C35.1235 37.0975 35.3626 37.3866 35.6125 37.8207L35.9782 37.6101ZM35.1552 36.5967C34.8759 36.3795 34.5332 36.2532 34.1373 36.2092L34.0907 36.6287C34.4241 36.6657 34.6892 36.769 34.8961 36.9299L35.1552 36.5967ZM33.9068 36.3795C33.8523 36.6655 33.6966 37.5593 33.4402 39.0572L33.8561 39.1285C34.1129 37.6284 34.2678 36.7396 34.3213 36.4584L33.9068 36.3795ZM33.4398 39.0595C33.3316 39.7357 33.2645 40.145 33.238 40.2908L33.6532 40.3663C33.6807 40.215 33.7486 39.8004 33.8565 39.1262L33.4398 39.0595ZM33.2373 40.2944C33.1064 41.0929 32.8482 41.6848 32.4792 42.0907L32.7914 42.3746C33.2326 41.8893 33.5146 41.2117 33.6538 40.3627L33.2373 40.2944ZM32.4814 42.0883C32.1297 42.4634 31.5808 42.6699 30.7919 42.6699V43.0919C31.6506 43.0919 32.3306 42.8662 32.7892 42.377L32.4814 42.0883ZM30.7919 42.6699C29.9313 42.6699 29.1725 42.4205 28.508 41.9221L28.2547 42.2597C28.9947 42.8146 29.843 43.0919 30.7919 43.0919V42.6699ZM28.5116 41.9248C27.8565 41.4111 27.3436 40.7008 26.977 39.7842L26.5851 39.941C26.9748 40.9151 27.5287 41.6903 28.2511 42.2569L28.5116 41.9248ZM26.9773 39.7852C26.6105 38.855 26.4249 37.7948 26.4249 36.6013H26.0029C26.0029 37.8385 26.1953 38.9526 26.5848 39.94L26.9773 39.7852ZM26.4249 36.6013C26.4249 34.3564 26.8124 32.4306 27.5793 30.8174L27.1982 30.6362C26.3986 32.3181 26.0029 34.3086 26.0029 36.6013H26.4249ZM27.5787 30.8186C28.3597 29.2037 29.4409 27.9802 30.8207 27.1392L30.6011 26.7788C29.1449 27.6663 28.0114 28.9547 27.1988 30.6349L27.5787 30.8186ZM30.8212 27.1389C32.2159 26.2836 33.8245 25.8533 35.6536 25.8533V25.4313C33.7554 25.4313 32.0688 25.8788 30.6006 26.7791L30.8212 27.1389ZM35.6536 25.8533C36.9301 25.8533 37.9859 26.0463 38.829 26.4224L39.0009 26.037C38.0884 25.6299 36.9699 25.4313 35.6536 25.4313V25.8533ZM38.829 26.4224C39.6753 26.8 40.2869 27.3144 40.6793 27.9599L41.0399 27.7407C40.595 27.0087 39.9102 26.4427 39.0009 26.037L38.829 26.4224ZM40.6808 27.9624C41.0906 28.6154 41.2968 29.3526 41.2968 30.1798H41.7188C41.7188 29.2785 41.4929 28.4626 41.0383 27.7381L40.6808 27.9624ZM41.2968 30.1798C41.2968 30.9008 41.1233 31.6114 40.7721 32.3137L41.1496 32.5024C41.5277 31.7462 41.7188 30.9714 41.7188 30.1798H41.2968ZM40.7714 32.3151C40.4363 32.9983 39.9252 33.6087 39.2315 34.1453L39.4897 34.4791C40.2275 33.9084 40.7832 33.2494 41.1503 32.501L40.7714 32.3151ZM39.2315 34.1453C38.5416 34.679 37.6974 35.0797 36.6937 35.3438L36.8011 35.752C37.8502 35.4759 38.748 35.0529 39.4897 34.4791L39.2315 34.1453ZM36.6923 35.7516C37.312 35.9194 37.772 36.1856 38.0893 36.5395L38.4036 36.2578C38.0186 35.8285 37.4794 35.5275 36.8026 35.3442L36.6923 35.7516ZM38.0893 36.5395C38.4208 36.9093 38.7616 37.4624 39.1084 38.2094L39.4912 38.0317C39.1358 37.2662 38.7743 36.6713 38.4036 36.2578L38.0893 36.5395ZM39.1086 38.2098C39.4907 39.0285 39.8738 39.647 40.262 40.0496L40.5658 39.7567C40.2248 39.403 39.8652 38.8331 39.491 38.0313L39.1086 38.2098ZM40.2647 40.0523C40.6781 40.4657 41.1624 40.6813 41.7104 40.6813V40.2593C41.286 40.2593 40.906 40.0968 40.5631 39.7539L40.2647 40.0523ZM41.7104 40.6813C42.1922 40.6813 42.6466 40.5223 43.0698 40.2158L42.8223 39.874C42.4622 40.1348 42.0928 40.2593 41.7104 40.2593V40.6813ZM43.0736 40.213C43.4839 39.9017 43.9887 39.3879 44.5859 38.6822L44.2637 38.4096C43.6725 39.1084 43.1914 39.5939 42.8185 39.8768L43.0736 40.213ZM44.585 38.6832C44.717 38.5293 44.8446 38.4733 44.9717 38.4733V38.0513C44.6937 38.0513 44.4567 38.1844 44.2646 38.4086L44.585 38.6832ZM31.3186 36.1877C30.8825 36.1877 30.6458 36.0837 30.5303 35.9415L30.2028 36.2076C30.4384 36.4976 30.8364 36.6097 31.3186 36.6097V36.1877ZM30.5353 35.948C30.4007 35.7684 30.3344 35.5698 30.3344 35.3453H29.9124C29.9124 35.6611 30.0083 35.9486 30.1977 36.2012L30.5353 35.948ZM30.3344 35.3453C30.3344 35.0689 30.4188 34.8721 30.5713 34.7298L30.2833 34.4213C30.0307 34.6571 29.9124 34.9736 29.9124 35.3453H30.3344ZM30.5662 34.7344C30.7465 34.5767 30.941 34.503 31.1565 34.503V34.081C30.8319 34.081 30.5402 34.1963 30.2883 34.4168L30.5662 34.7344ZM31.1565 34.503H31.663V34.081H31.1565V34.503ZM31.8712 34.326C32.087 33.004 32.2892 31.8653 32.4777 30.9094L32.0636 30.8277C31.874 31.7895 31.671 32.933 31.4547 34.258L31.8712 34.326ZM32.4776 30.9099C32.558 30.5081 32.7227 30.2291 32.9569 30.0479C33.1928 29.8654 33.5239 29.7629 33.9722 29.7629V29.3408C33.4618 29.3408 33.0299 29.4578 32.6986 29.7142C32.3656 29.9719 32.1589 30.3512 32.0638 30.8272L32.4776 30.9099ZM33.9722 29.7629C34.33 29.7629 34.559 29.8434 34.6975 29.9674C34.8316 30.0874 34.9159 30.2796 34.9159 30.585H35.3379C35.3379 30.2016 35.2297 29.8773 34.9789 29.6529C34.7326 29.4325 34.3842 29.3408 33.9722 29.3408V29.7629ZM34.9159 30.585C34.9159 30.7296 34.9091 30.8308 34.8985 30.8946L35.3148 30.964C35.3311 30.8658 35.3379 30.7374 35.3379 30.585H34.9159ZM34.899 30.8918L34.2913 34.2544L34.7066 34.3295L35.3143 30.9669L34.899 30.8918ZM34.5106 34.5027C35.2672 34.4606 35.9587 34.278 36.5819 33.9523L36.3863 33.5783C35.8211 33.8737 35.1891 34.0423 34.4872 34.0813L34.5106 34.5027ZM36.5801 33.9532C37.22 33.6261 37.7284 33.1687 38.1005 32.5819L37.7441 32.3558C37.4141 32.8763 36.9636 33.2832 36.3881 33.5774L36.5801 33.9532ZM38.0986 32.5849C38.4873 31.9947 38.6803 31.3259 38.6803 30.585H38.2583C38.2583 31.2485 38.0867 31.8356 37.7461 32.3528L38.0986 32.5849ZM38.6803 30.585C38.6803 29.6804 38.3685 28.9492 37.7337 28.4177L37.4628 28.7413C37.9893 29.1821 38.2583 29.788 38.2583 30.585H38.6803ZM37.7337 28.4177C37.1005 27.8876 36.1932 27.6393 35.0459 27.6393V28.0613C36.1402 28.0613 36.9346 28.2991 37.4628 28.7413L37.7337 28.4177ZM35.0459 27.6393C33.6855 27.6393 32.4826 27.98 31.4452 28.6669L31.6782 29.0188C32.6394 28.3823 33.7594 28.0613 35.0459 28.0613V27.6393ZM31.4457 28.6666C30.419 29.3417 29.6251 30.3499 29.0583 31.677L29.4464 31.8427C29.9871 30.5769 30.7327 29.6405 31.6776 29.0192L31.4457 28.6666ZM29.0587 31.6762C28.4905 32.9926 28.2109 34.5894 28.2109 36.4595H28.6329C28.6329 34.6292 28.9069 33.0929 29.4461 31.8435L29.0587 31.6762ZM28.2109 36.4595C28.2109 37.337 28.2999 38.1001 28.4821 38.7451L28.8883 38.6303C28.7194 38.0329 28.6329 37.3105 28.6329 36.4595H28.2109ZM28.4821 38.7451C28.6614 39.3795 28.8876 39.8771 29.1707 40.2198L29.4961 39.951C29.2661 39.6726 29.0601 39.2384 28.8883 38.6303L28.4821 38.7451ZM29.1707 40.2198C29.4386 40.5441 29.7358 40.7624 30.0627 40.7624V40.3403C29.9304 40.3403 29.7414 40.248 29.4961 39.951L29.1707 40.2198ZM30.0627 40.7624C30.3253 40.7624 30.5292 40.6238 30.6678 40.3986L30.3084 40.1774C30.2309 40.3033 30.1511 40.3403 30.0627 40.3403V40.7624ZM30.6616 40.4081C30.8098 40.194 30.9106 39.8733 30.9796 39.4731L30.5637 39.4014C30.4977 39.7844 30.4094 40.0309 30.3146 40.1679L30.6616 40.4081ZM30.9793 39.4746L31.5263 36.4361L31.1109 36.3613L30.564 39.3998L30.9793 39.4746Z" fill="url(#paint0_radial_8_722)"/>
<path d="M44.9717 38.2623C45.1473 38.2623 45.2823 38.3433 45.3769 38.5054C45.4849 38.6675 45.5389 38.8903 45.5389 39.1739C45.5389 39.7006 45.4106 40.1192 45.154 40.4298C44.5058 41.2131 43.8509 41.8208 43.1891 42.2529C42.5274 42.6716 41.7441 42.8809 40.8393 42.8809C39.9615 42.8809 39.212 42.6446 38.5908 42.1719C37.9831 41.6992 37.4024 40.889 36.8487 39.7411C36.4031 38.8228 36.052 38.1475 35.7954 37.7154C35.5388 37.2697 35.2822 36.9524 35.0256 36.7633C34.7825 36.5742 34.4787 36.4595 34.114 36.4189C34.06 36.7025 33.9047 37.5938 33.6481 39.0928C33.5401 39.7681 33.4726 40.18 33.4456 40.3285C33.3105 41.1523 33.0404 41.787 32.6353 42.2327C32.2302 42.6648 31.6157 42.8809 30.7919 42.8809C29.8871 42.8809 29.0836 42.6175 28.3813 42.0909C27.6926 41.5507 27.1592 40.8079 26.7811 39.8626C26.4029 38.9038 26.2139 37.8167 26.2139 36.6013C26.2139 34.3325 26.6055 32.3743 27.3888 30.7268C28.1855 29.0792 29.2929 27.8233 30.7109 26.959C32.1424 26.0812 33.7899 25.6423 35.6536 25.6423C36.95 25.6423 38.0371 25.8381 38.9149 26.2297C39.7927 26.6214 40.4409 27.1615 40.8596 27.8503C41.2917 28.539 41.5078 29.3155 41.5078 30.1798C41.5078 30.9361 41.3255 31.6788 40.9609 32.4081C40.6098 33.1238 40.0763 33.7585 39.3606 34.3122C38.6448 34.8659 37.7738 35.2778 36.7474 35.5479C37.3957 35.7235 37.8953 36.0071 38.2464 36.3987C38.5976 36.7903 38.9487 37.3643 39.2998 38.1205C39.6779 38.9308 40.0493 39.525 40.4139 39.9031C40.7921 40.2813 41.2242 40.4703 41.7104 40.4703C42.1425 40.4703 42.5544 40.3285 42.946 40.0449C43.3377 39.7478 43.8306 39.2482 44.4248 38.5459C44.5869 38.3568 44.7692 38.2623 44.9717 38.2623ZM31.3186 36.3987C30.8594 36.3987 30.5421 36.2906 30.3665 36.0746C30.2045 35.8585 30.1234 35.6154 30.1234 35.3453C30.1234 35.0212 30.2247 34.7646 30.4273 34.5756C30.6434 34.3865 30.8864 34.292 31.1565 34.292H31.663C31.879 32.9685 32.0816 31.8274 32.2707 30.8686C32.4462 29.9908 33.0134 29.5519 33.9722 29.5519C34.742 29.5519 35.1269 29.8962 35.1269 30.585C35.1269 30.7335 35.1201 30.8483 35.1066 30.9293L34.4989 34.292C35.2282 34.2515 35.8899 34.0759 36.4841 33.7653C37.0918 33.4547 37.5712 33.0225 37.9223 32.4688C38.287 31.9152 38.4693 31.2872 38.4693 30.585C38.4693 29.7342 38.1789 29.0657 37.5982 28.5795C37.0175 28.0934 36.1667 27.8503 35.0459 27.8503C33.7224 27.8503 32.561 28.1811 31.5617 28.8429C30.5758 29.4911 29.8061 30.4634 29.2524 31.7599C28.6987 33.0428 28.4219 34.6093 28.4219 36.4595C28.4219 37.3237 28.5096 38.0665 28.6852 38.6877C28.8608 39.3089 29.0768 39.7748 29.3334 40.0854C29.59 40.396 29.8331 40.5513 30.0627 40.5513C30.2382 40.5513 30.38 40.4636 30.4881 40.288C30.6096 40.1124 30.7041 39.8288 30.7717 39.4372L31.3186 36.3987Z" fill="#18181B"/>
<path d="M45.3769 38.5054L45.1943 38.6119L45.2013 38.6224L45.3769 38.5054ZM45.154 40.4298L45.3166 40.5643L45.3167 40.5642L45.154 40.4298ZM43.1891 42.2529L43.302 42.4313L43.3045 42.4296L43.1891 42.2529ZM38.5908 42.1719L38.4613 42.3385L38.463 42.3398L38.5908 42.1719ZM36.8487 39.7411L37.0388 39.6494L37.0386 39.6489L36.8487 39.7411ZM35.7954 37.7154L35.6125 37.8207L35.6139 37.8231L35.7954 37.7154ZM35.0256 36.7633L34.896 36.9299L34.9004 36.9332L35.0256 36.7633ZM34.114 36.4189L34.1373 36.2092L33.9433 36.1877L33.9068 36.3795L34.114 36.4189ZM33.6481 39.0928L33.4401 39.0572L33.4398 39.0595L33.6481 39.0928ZM33.4456 40.3285L33.2379 40.2908L33.2373 40.2944L33.4456 40.3285ZM32.6353 42.2327L32.7892 42.377L32.7914 42.3746L32.6353 42.2327ZM28.3813 42.0909L28.2511 42.2569L28.2547 42.2597L28.3813 42.0909ZM26.7811 39.8626L26.5848 39.94L26.5851 39.941L26.7811 39.8626ZM27.3888 30.7268L27.1988 30.6349L27.1982 30.6362L27.3888 30.7268ZM30.7109 26.959L30.8207 27.1392L30.8212 27.1389L30.7109 26.959ZM40.8596 27.8503L40.6793 27.9599L40.6808 27.9624L40.8596 27.8503ZM40.9609 32.4081L40.7721 32.3137L40.7714 32.3151L40.9609 32.4081ZM39.3606 34.3122L39.4897 34.4791L39.4897 34.4791L39.3606 34.3122ZM36.7474 35.5479L36.6937 35.3438L35.9294 35.545L36.6923 35.7516L36.7474 35.5479ZM38.2464 36.3987L38.4036 36.2578L38.4036 36.2578L38.2464 36.3987ZM39.2998 38.1205L39.1084 38.2094L39.1086 38.2098L39.2998 38.1205ZM40.4139 39.9031L40.262 40.0496L40.2647 40.0523L40.4139 39.9031ZM42.946 40.0449L43.0698 40.2159L43.0736 40.213L42.946 40.0449ZM44.4248 38.5459L44.2646 38.4086L44.2637 38.4096L44.4248 38.5459ZM31.3186 36.3987L31.5263 36.4361L31.571 36.1877H31.3186V36.3987ZM30.3665 36.0746L30.1976 36.2013L30.2028 36.2076L30.3665 36.0746ZM30.4273 34.5756L30.2883 34.4167L30.2833 34.4213L30.4273 34.5756ZM31.663 34.292V34.503H31.8423L31.8712 34.326L31.663 34.292ZM32.2707 30.8686L32.0638 30.8272L32.0636 30.8277L32.2707 30.8686ZM35.1066 30.9293L35.3143 30.9669L35.3148 30.964L35.1066 30.9293ZM34.4989 34.292L34.2913 34.2544L34.2437 34.5175L34.5106 34.5027L34.4989 34.292ZM36.4841 33.7653L36.3881 33.5774L36.3863 33.5783L36.4841 33.7653ZM37.9223 32.4688L37.7461 32.3528L37.7441 32.3558L37.9223 32.4688ZM37.5982 28.5795L37.7337 28.4177L37.7337 28.4177L37.5982 28.5795ZM31.5617 28.8429L31.6776 29.0192L31.6782 29.0188L31.5617 28.8429ZM29.2524 31.7599L29.4461 31.8435L29.4464 31.8427L29.2524 31.7599ZM28.6852 38.6877L28.4821 38.7451L28.4821 38.7451L28.6852 38.6877ZM29.3334 40.0854L29.1707 40.2198L29.1707 40.2198L29.3334 40.0854ZM30.4881 40.288L30.3143 40.1677L30.3084 40.1774L30.4881 40.288ZM30.7717 39.4372L30.564 39.3998L30.5637 39.4014L30.7717 39.4372ZM44.9717 38.4733C45.0662 38.4733 45.1347 38.5091 45.1946 38.6117L45.5591 38.3991C45.43 38.1776 45.2284 38.0513 44.9717 38.0513V38.4733ZM45.2013 38.6224C45.2779 38.7374 45.3279 38.9139 45.3279 39.1739H45.7499C45.7499 38.8667 45.6919 38.5975 45.5524 38.3884L45.2013 38.6224ZM45.3279 39.1739C45.3279 39.6668 45.2082 40.0329 44.9914 40.2954L45.3167 40.5642C45.6131 40.2055 45.7499 39.7344 45.7499 39.1739H45.3279ZM44.9915 40.2953C44.3531 41.0666 43.7135 41.6585 43.0738 42.0763L43.3045 42.4296C43.9882 41.9831 44.6585 41.3595 45.3166 40.5643L44.9915 40.2953ZM43.0763 42.0746C42.4533 42.4687 41.7105 42.6699 40.8393 42.6699V43.0919C41.7777 43.0919 42.6015 42.8744 43.3019 42.4312L43.0763 42.0746ZM40.8393 42.6699C40.0016 42.6699 39.2985 42.4452 38.7186 42.004L38.463 42.3398C39.1255 42.8439 39.9214 43.0919 40.8393 43.0919V42.6699ZM38.7204 42.0053C38.1499 41.5616 37.5865 40.7849 37.0388 39.6494L36.6587 39.8327C37.2183 40.993 37.8163 41.8368 38.4613 42.3385L38.7204 42.0053ZM37.0386 39.6489C36.5924 38.7296 36.2381 38.0478 35.9768 37.6077L35.6139 37.8231C35.8658 38.2473 36.2138 38.916 36.6589 39.8332L37.0386 39.6489ZM35.9782 37.6101C35.715 37.1528 35.4409 36.8072 35.1508 36.5934L34.9004 36.9332C35.1235 37.0975 35.3626 37.3866 35.6125 37.8207L35.9782 37.6101ZM35.1552 36.5967C34.8759 36.3795 34.5332 36.2532 34.1373 36.2092L34.0907 36.6287C34.4241 36.6657 34.6892 36.769 34.8961 36.9299L35.1552 36.5967ZM33.9068 36.3795C33.8523 36.6655 33.6966 37.5593 33.4402 39.0572L33.8561 39.1285C34.1129 37.6284 34.2678 36.7396 34.3213 36.4584L33.9068 36.3795ZM33.4398 39.0595C33.3316 39.7357 33.2645 40.145 33.238 40.2908L33.6532 40.3663C33.6807 40.215 33.7486 39.8004 33.8565 39.1262L33.4398 39.0595ZM33.2373 40.2944C33.1064 41.0929 32.8482 41.6848 32.4792 42.0907L32.7914 42.3746C33.2326 41.8893 33.5146 41.2117 33.6538 40.3627L33.2373 40.2944ZM32.4814 42.0883C32.1297 42.4634 31.5808 42.6699 30.7919 42.6699V43.0919C31.6506 43.0919 32.3306 42.8662 32.7892 42.377L32.4814 42.0883ZM30.7919 42.6699C29.9313 42.6699 29.1725 42.4205 28.508 41.9221L28.2547 42.2597C28.9947 42.8146 29.843 43.0919 30.7919 43.0919V42.6699ZM28.5116 41.9248C27.8565 41.4111 27.3436 40.7008 26.977 39.7842L26.5851 39.941C26.9748 40.9151 27.5287 41.6903 28.2511 42.2569L28.5116 41.9248ZM26.9773 39.7852C26.6105 38.855 26.4249 37.7948 26.4249 36.6013H26.0029C26.0029 37.8385 26.1953 38.9526 26.5848 39.94L26.9773 39.7852ZM26.4249 36.6013C26.4249 34.3564 26.8124 32.4306 27.5793 30.8174L27.1982 30.6362C26.3986 32.3181 26.0029 34.3086 26.0029 36.6013H26.4249ZM27.5787 30.8186C28.3597 29.2037 29.4409 27.9802 30.8207 27.1392L30.6011 26.7788C29.1449 27.6663 28.0114 28.9547 27.1988 30.6349L27.5787 30.8186ZM30.8212 27.1389C32.2159 26.2836 33.8245 25.8533 35.6536 25.8533V25.4313C33.7554 25.4313 32.0688 25.8788 30.6006 26.7791L30.8212 27.1389ZM35.6536 25.8533C36.9301 25.8533 37.9859 26.0463 38.829 26.4224L39.0009 26.037C38.0884 25.6299 36.9699 25.4313 35.6536 25.4313V25.8533ZM38.829 26.4224C39.6753 26.8 40.2869 27.3144 40.6793 27.9599L41.0399 27.7407C40.595 27.0087 39.9102 26.4427 39.0009 26.037L38.829 26.4224ZM40.6808 27.9624C41.0906 28.6154 41.2968 29.3526 41.2968 30.1798H41.7188C41.7188 29.2785 41.4929 28.4626 41.0383 27.7381L40.6808 27.9624ZM41.2968 30.1798C41.2968 30.9008 41.1233 31.6114 40.7721 32.3137L41.1496 32.5024C41.5277 31.7462 41.7188 30.9714 41.7188 30.1798H41.2968ZM40.7714 32.3151C40.4363 32.9983 39.9252 33.6087 39.2315 34.1453L39.4897 34.4791C40.2275 33.9084 40.7832 33.2494 41.1503 32.501L40.7714 32.3151ZM39.2315 34.1453C38.5416 34.679 37.6974 35.0797 36.6937 35.3438L36.8011 35.752C37.8502 35.4759 38.748 35.0529 39.4897 34.4791L39.2315 34.1453ZM36.6923 35.7516C37.312 35.9194 37.772 36.1856 38.0893 36.5395L38.4036 36.2578C38.0186 35.8285 37.4794 35.5275 36.8026 35.3442L36.6923 35.7516ZM38.0893 36.5395C38.4208 36.9093 38.7616 37.4624 39.1084 38.2094L39.4912 38.0317C39.1358 37.2662 38.7743 36.6713 38.4036 36.2578L38.0893 36.5395ZM39.1086 38.2098C39.4907 39.0285 39.8738 39.647 40.262 40.0496L40.5658 39.7567C40.2248 39.403 39.8652 38.8331 39.491 38.0313L39.1086 38.2098ZM40.2647 40.0523C40.6781 40.4657 41.1624 40.6813 41.7104 40.6813V40.2593C41.286 40.2593 40.906 40.0968 40.5631 39.7539L40.2647 40.0523ZM41.7104 40.6813C42.1922 40.6813 42.6466 40.5223 43.0698 40.2158L42.8223 39.874C42.4622 40.1348 42.0928 40.2593 41.7104 40.2593V40.6813ZM43.0736 40.213C43.4839 39.9017 43.9887 39.3879 44.5859 38.6822L44.2637 38.4096C43.6725 39.1084 43.1914 39.5939 42.8185 39.8768L43.0736 40.213ZM44.585 38.6832C44.717 38.5293 44.8446 38.4733 44.9717 38.4733V38.0513C44.6937 38.0513 44.4567 38.1844 44.2646 38.4086L44.585 38.6832ZM31.3186 36.1877C30.8825 36.1877 30.6458 36.0837 30.5303 35.9415L30.2028 36.2076C30.4384 36.4976 30.8364 36.6097 31.3186 36.6097V36.1877ZM30.5353 35.948C30.4007 35.7684 30.3344 35.5698 30.3344 35.3453H29.9124C29.9124 35.6611 30.0083 35.9486 30.1977 36.2012L30.5353 35.948ZM30.3344 35.3453C30.3344 35.0689 30.4188 34.8721 30.5713 34.7298L30.2833 34.4213C30.0307 34.6571 29.9124 34.9736 29.9124 35.3453H30.3344ZM30.5662 34.7344C30.7465 34.5767 30.941 34.503 31.1565 34.503V34.081C30.8319 34.081 30.5402 34.1963 30.2883 34.4168L30.5662 34.7344ZM31.1565 34.503H31.663V34.081H31.1565V34.503ZM31.8712 34.326C32.087 33.004 32.2892 31.8653 32.4777 30.9094L32.0636 30.8277C31.874 31.7895 31.671 32.933 31.4547 34.258L31.8712 34.326ZM32.4776 30.9099C32.558 30.5081 32.7227 30.2291 32.9569 30.0479C33.1928 29.8654 33.5239 29.7629 33.9722 29.7629V29.3408C33.4618 29.3408 33.0299 29.4578 32.6986 29.7142C32.3656 29.9719 32.1589 30.3512 32.0638 30.8272L32.4776 30.9099ZM33.9722 29.7629C34.33 29.7629 34.559 29.8434 34.6975 29.9674C34.8316 30.0874 34.9159 30.2796 34.9159 30.585H35.3379C35.3379 30.2016 35.2297 29.8773 34.9789 29.6529C34.7326 29.4325 34.3842 29.3408 33.9722 29.3408V29.7629ZM34.9159 30.585C34.9159 30.7296 34.9091 30.8308 34.8985 30.8946L35.3148 30.964C35.3311 30.8658 35.3379 30.7374 35.3379 30.585H34.9159ZM34.899 30.8918L34.2913 34.2544L34.7066 34.3295L35.3143 30.9669L34.899 30.8918ZM34.5106 34.5027C35.2672 34.4606 35.9587 34.278 36.5819 33.9523L36.3863 33.5783C35.8211 33.8737 35.1891 34.0423 34.4872 34.0813L34.5106 34.5027ZM36.5801 33.9532C37.22 33.6261 37.7284 33.1687 38.1005 32.5819L37.7441 32.3558C37.4141 32.8763 36.9636 33.2832 36.3881 33.5774L36.5801 33.9532ZM38.0986 32.5849C38.4873 31.9947 38.6803 31.3259 38.6803 30.585H38.2583C38.2583 31.2485 38.0867 31.8356 37.7461 32.3528L38.0986 32.5849ZM38.6803 30.585C38.6803 29.6804 38.3685 28.9492 37.7337 28.4177L37.4628 28.7413C37.9893 29.1821 38.2583 29.788 38.2583 30.585H38.6803ZM37.7337 28.4177C37.1005 27.8876 36.1932 27.6393 35.0459 27.6393V28.0613C36.1402 28.0613 36.9346 28.2991 37.4628 28.7413L37.7337 28.4177ZM35.0459 27.6393C33.6855 27.6393 32.4826 27.98 31.4452 28.6669L31.6782 29.0188C32.6394 28.3823 33.7594 28.0613 35.0459 28.0613V27.6393ZM31.4457 28.6666C30.419 29.3417 29.6251 30.3499 29.0583 31.677L29.4464 31.8427C29.9871 30.5769 30.7327 29.6405 31.6776 29.0192L31.4457 28.6666ZM29.0587 31.6762C28.4905 32.9926 28.2109 34.5894 28.2109 36.4595H28.6329C28.6329 34.6292 28.9069 33.0929 29.4461 31.8435L29.0587 31.6762ZM28.2109 36.4595C28.2109 37.337 28.2999 38.1001 28.4821 38.7451L28.8883 38.6303C28.7194 38.0329 28.6329 37.3105 28.6329 36.4595H28.2109ZM28.4821 38.7451C28.6614 39.3795 28.8876 39.8771 29.1707 40.2198L29.4961 39.951C29.2661 39.6726 29.0601 39.2384 28.8883 38.6303L28.4821 38.7451ZM29.1707 40.2198C29.4386 40.5441 29.7358 40.7624 30.0627 40.7624V40.3403C29.9304 40.3403 29.7414 40.248 29.4961 39.951L29.1707 40.2198ZM30.0627 40.7624C30.3253 40.7624 30.5292 40.6238 30.6678 40.3986L30.3084 40.1774C30.2309 40.3033 30.1511 40.3403 30.0627 40.3403V40.7624ZM30.6616 40.4081C30.8098 40.194 30.9106 39.8733 30.9796 39.4731L30.5637 39.4014C30.4977 39.7844 30.4094 40.0309 30.3146 40.1679L30.6616 40.4081ZM30.9793 39.4746L31.5263 36.4361L31.1109 36.3613L30.564 39.3998L30.9793 39.4746Z" fill="url(#paint1_radial_8_722)"/>
<path d="M22.5304 27.6029C21.7471 27.6029 20.8626 27.5354 19.8767 27.4004C19.3365 27.3328 18.9652 27.191 18.7626 26.975C18.56 26.7589 18.4723 26.4078 18.4993 25.9216C18.5938 24.5847 18.8166 22.9371 19.1677 20.9789C19.5189 19.0073 19.9443 17.1099 20.4439 15.2867C20.5385 14.9491 20.7275 14.7128 21.0111 14.5778C21.2947 14.4427 21.6661 14.3752 22.1252 14.3752C22.949 14.3752 23.3609 14.6048 23.3609 15.0639C23.3609 15.253 23.3204 15.4691 23.2394 15.7121C22.8883 16.7925 22.5371 18.2443 22.186 20.0674C21.8349 21.877 21.5851 23.6056 21.4365 25.2531C21.8416 25.2936 22.3008 25.3139 22.814 25.3139C25.1773 25.3139 26.9396 24.5982 28.101 23.1667C29.2759 21.7352 29.8634 19.8243 29.8634 17.434C29.8634 15.8269 29.4042 14.5845 28.4859 13.7067C27.5676 12.8289 26.2712 12.39 24.5966 12.39C23.5162 12.39 22.4426 12.5588 21.3757 12.8964C20.3224 13.2341 19.3703 13.6797 18.5195 14.2334C18.344 14.3549 18.1549 14.4157 17.9523 14.4157C17.7227 14.4157 17.5404 14.3212 17.4054 14.1321C17.2703 13.9295 17.2028 13.6865 17.2028 13.4029C17.2028 13.0787 17.2568 12.8154 17.3649 12.6128C17.4729 12.3968 17.6552 12.2009 17.9118 12.0254C18.8436 11.3907 19.9375 10.9113 21.1934 10.5872C22.4494 10.2495 23.658 10.0807 24.8194 10.0807C26.467 10.0807 27.8917 10.3711 29.0936 10.9518C30.2955 11.519 31.2206 12.3563 31.8688 13.4636C32.517 14.571 32.8411 15.908 32.8411 17.4745C32.8411 19.5137 32.436 21.2963 31.6257 22.8223C30.8154 24.3348 29.6338 25.5097 28.0808 26.347C26.5277 27.1843 24.6776 27.6029 22.5304 27.6029Z" fill="#18181B"/>
<path d="M19.8767 27.4004L19.9054 27.1913L19.9029 27.191L19.8767 27.4004ZM18.7626 26.975L18.6087 27.1193L18.6087 27.1193L18.7626 26.975ZM18.4993 25.9216L18.2888 25.9067L18.2886 25.9099L18.4993 25.9216ZM19.1677 20.9789L19.3754 21.0162L19.3755 21.0159L19.1677 20.9789ZM20.4439 15.2867L20.2407 15.2299L20.2404 15.231L20.4439 15.2867ZM23.2394 15.7121L23.0392 15.6454L23.0387 15.6469L23.2394 15.7121ZM22.186 20.0674L22.3932 20.1076L22.3932 20.1073L22.186 20.0674ZM21.4365 25.2531L21.2264 25.2342L21.2076 25.4423L21.4155 25.4631L21.4365 25.2531ZM28.101 23.1667L27.9379 23.0328L27.9372 23.0337L28.101 23.1667ZM28.4859 13.7067L28.6317 13.5542L28.6317 13.5542L28.4859 13.7067ZM21.3757 12.8964L21.3121 12.6953L21.3113 12.6955L21.3757 12.8964ZM18.5195 14.2334L18.4044 14.0565L18.3994 14.0599L18.5195 14.2334ZM17.4054 14.1321L17.2297 14.2492L17.2337 14.2548L17.4054 14.1321ZM17.3649 12.6128L17.5511 12.7122L17.5536 12.7072L17.3649 12.6128ZM17.9118 12.0254L17.793 11.851L17.7927 11.8512L17.9118 12.0254ZM21.1934 10.5872L21.2462 10.7915L21.2482 10.7909L21.1934 10.5872ZM29.0936 10.9518L29.0018 11.1418L29.0036 11.1426L29.0936 10.9518ZM31.8688 13.4636L32.0509 13.357L32.0509 13.357L31.8688 13.4636ZM31.6257 22.8223L31.8117 22.922L31.8121 22.9213L31.6257 22.8223ZM28.0808 26.347L27.9806 26.1613L27.9806 26.1613L28.0808 26.347ZM22.5304 27.3919C21.7588 27.3919 20.8841 27.3254 19.9054 27.1913L19.8481 27.6094C20.841 27.7454 21.7354 27.8139 22.5304 27.8139V27.3919ZM19.9029 27.191C19.3755 27.1251 19.0669 26.9911 18.9165 26.8307L18.6087 27.1193C18.8634 27.391 19.2976 27.5406 19.8506 27.6097L19.9029 27.191ZM18.9165 26.8307C18.7725 26.677 18.6842 26.3974 18.7099 25.9333L18.2886 25.9099C18.2603 26.4181 18.3476 26.8408 18.6087 27.1193L18.9165 26.8307ZM18.7097 25.9365C18.8036 24.6097 19.0251 22.9701 19.3754 21.0162L18.96 20.9417C18.6082 22.9041 18.384 24.5596 18.2888 25.9067L18.7097 25.9365ZM19.3755 21.0159C19.7255 19.0502 20.1495 17.1591 20.6474 15.3425L20.2404 15.231C19.739 17.0606 19.3122 18.9643 18.96 20.9419L19.3755 21.0159ZM20.6471 15.3436C20.7273 15.0571 20.88 14.8739 21.1018 14.7683L20.9204 14.3872C20.575 14.5517 20.3496 14.8412 20.2407 15.2299L20.6471 15.3436ZM21.1018 14.7683C21.3471 14.6515 21.6841 14.5862 22.1252 14.5862V14.1642C21.6481 14.1642 21.2423 14.2339 20.9204 14.3872L21.1018 14.7683ZM22.1252 14.5862C22.5244 14.5862 22.7902 14.643 22.9493 14.7317C23.0256 14.7742 23.0732 14.8218 23.1026 14.8709C23.1318 14.9198 23.1499 14.9817 23.1499 15.0639H23.5719C23.5719 14.9166 23.5385 14.7776 23.4648 14.6543C23.3912 14.5313 23.2843 14.4353 23.1547 14.3631C22.9019 14.2221 22.5498 14.1642 22.1252 14.1642V14.5862ZM23.1499 15.0639C23.1499 15.2239 23.1154 15.4167 23.0392 15.6454L23.4396 15.7789C23.5254 15.5214 23.5719 15.2821 23.5719 15.0639H23.1499ZM23.0387 15.6469C22.6837 16.7391 22.3307 18.2004 21.9788 20.0275L22.3932 20.1073C22.7436 18.2881 23.0928 16.8459 23.44 15.7774L23.0387 15.6469ZM21.9789 20.0272C21.6265 21.843 21.3756 23.5787 21.2264 25.2342L21.6467 25.2721C21.7945 23.6324 22.0433 21.9109 22.3932 20.1076L21.9789 20.0272ZM21.4155 25.4631C21.8291 25.5045 22.2955 25.5249 22.814 25.5249V25.1029C22.3061 25.1029 21.8541 25.0828 21.4575 25.0432L21.4155 25.4631ZM22.814 25.5249C25.2214 25.5249 27.0526 24.7938 28.2649 23.2996L27.9372 23.0337C26.8267 24.4025 25.1331 25.1029 22.814 25.1029V25.5249ZM28.2641 23.3005C29.4781 21.8215 30.0744 19.8587 30.0744 17.434H29.6524C29.6524 19.7899 29.0738 21.6489 27.9379 23.0328L28.2641 23.3005ZM30.0744 17.434C30.0744 15.7855 29.6021 14.4817 28.6317 13.5542L28.3401 13.8592C29.2064 14.6873 29.6524 15.8684 29.6524 17.434H30.0744ZM28.6317 13.5542C27.6629 12.6281 26.3077 12.179 24.5966 12.179V12.601C26.2346 12.601 27.4723 13.0297 28.3401 13.8592L28.6317 13.5542ZM24.5966 12.179C23.4938 12.179 22.3988 12.3514 21.3121 12.6953L21.4394 13.0976C22.4864 12.7663 23.5386 12.601 24.5966 12.601V12.179ZM21.3113 12.6955C20.2417 13.0383 19.2723 13.4917 18.4044 14.0565L18.6346 14.4102C19.4683 13.8677 20.4031 13.4298 21.4401 13.0974L21.3113 12.6955ZM18.3994 14.0599C18.2571 14.1584 18.1096 14.2047 17.9523 14.2047V14.6267C18.2002 14.6267 18.4308 14.5515 18.6396 14.4069L18.3994 14.0599ZM17.9523 14.2047C17.7919 14.2047 17.6731 14.1439 17.5771 14.0095L17.2337 14.2548C17.4078 14.4985 17.6536 14.6267 17.9523 14.6267V14.2047ZM17.581 14.0151C17.4726 13.8526 17.4138 13.6518 17.4138 13.4029H16.9918C16.9918 13.7211 17.068 14.0065 17.2298 14.2492L17.581 14.0151ZM17.4138 13.4029C17.4138 13.1 17.4646 12.8742 17.5511 12.7121L17.1787 12.5135C17.049 12.7567 16.9918 13.0575 16.9918 13.4029H17.4138ZM17.5536 12.7072C17.6416 12.5311 17.7957 12.3605 18.031 12.1995L17.7927 11.8512C17.5148 12.0414 17.3042 12.2624 17.1761 12.5185L17.5536 12.7072ZM18.0306 12.1998C18.9395 11.5807 20.0103 11.1104 21.2462 10.7915L21.1407 10.3828C19.8647 10.7121 18.7477 11.2007 17.793 11.851L18.0306 12.1998ZM21.2482 10.7909C22.4884 10.4575 23.6786 10.2917 24.8194 10.2917V9.86972C23.6375 9.86972 22.4103 10.0415 21.1386 10.3834L21.2482 10.7909ZM24.8194 10.2917C26.4425 10.2917 27.8344 10.5778 29.0018 11.1418L29.1854 10.7618C27.949 10.1644 26.4915 9.86972 24.8194 9.86972V10.2917ZM29.0036 11.1426C30.1685 11.6923 31.0608 12.5009 31.6867 13.5702L32.0509 13.357C31.3804 12.2116 30.4226 11.3456 29.1837 10.7609L29.0036 11.1426ZM31.6867 13.5702C32.3122 14.6388 32.6301 15.9372 32.6301 17.4745H33.0521C33.0521 15.8787 32.7218 14.5032 32.0509 13.357L31.6867 13.5702ZM32.6301 17.4745C32.6301 19.4854 32.2308 21.2329 31.4394 22.7234L31.8121 22.9213C32.6412 21.3597 33.0521 19.542 33.0521 17.4745H32.6301ZM31.4397 22.7227C30.6496 24.1976 29.4983 25.343 27.9806 26.1613L28.1809 26.5327C29.7693 25.6764 30.9813 24.472 31.8117 22.922L31.4397 22.7227ZM27.9806 26.1613C26.4644 26.9787 24.6502 27.3919 22.5304 27.3919V27.8139C24.705 27.8139 26.5911 27.3898 28.1809 26.5327L27.9806 26.1613Z" fill="url(#paint2_radial_8_722)"/>
<path d="M22.5304 27.6029C21.7471 27.6029 20.8626 27.5354 19.8767 27.4004C19.3365 27.3328 18.9652 27.191 18.7626 26.975C18.56 26.7589 18.4723 26.4078 18.4993 25.9216C18.5938 24.5847 18.8166 22.9371 19.1677 20.9789C19.5189 19.0073 19.9443 17.1099 20.4439 15.2867C20.5385 14.9491 20.7275 14.7128 21.0111 14.5778C21.2947 14.4427 21.6661 14.3752 22.1252 14.3752C22.949 14.3752 23.3609 14.6048 23.3609 15.0639C23.3609 15.253 23.3204 15.4691 23.2394 15.7121C22.8883 16.7925 22.5371 18.2443 22.186 20.0674C21.8349 21.877 21.5851 23.6056 21.4365 25.2531C21.8416 25.2936 22.3008 25.3139 22.814 25.3139C25.1773 25.3139 26.9396 24.5982 28.101 23.1667C29.2759 21.7352 29.8634 19.8243 29.8634 17.434C29.8634 15.8269 29.4042 14.5845 28.4859 13.7067C27.5676 12.8289 26.2712 12.39 24.5966 12.39C23.5162 12.39 22.4426 12.5588 21.3757 12.8964C20.3224 13.2341 19.3703 13.6797 18.5195 14.2334C18.344 14.3549 18.1549 14.4157 17.9523 14.4157C17.7227 14.4157 17.5404 14.3212 17.4054 14.1321C17.2703 13.9295 17.2028 13.6865 17.2028 13.4029C17.2028 13.0787 17.2568 12.8154 17.3649 12.6128C17.4729 12.3968 17.6552 12.2009 17.9118 12.0254C18.8436 11.3907 19.9375 10.9113 21.1934 10.5872C22.4494 10.2495 23.658 10.0807 24.8194 10.0807C26.467 10.0807 27.8917 10.3711 29.0936 10.9518C30.2955 11.519 31.2206 12.3563 31.8688 13.4636C32.517 14.571 32.8411 15.908 32.8411 17.4745C32.8411 19.5137 32.436 21.2963 31.6257 22.8223C30.8154 24.3348 29.6338 25.5097 28.0808 26.347C26.5277 27.1843 24.6776 27.6029 22.5304 27.6029Z" fill="#18181B"/>
<path d="M19.8767 27.4004L19.9054 27.1913L19.9029 27.191L19.8767 27.4004ZM18.7626 26.975L18.6087 27.1193L18.6087 27.1193L18.7626 26.975ZM18.4993 25.9216L18.2888 25.9067L18.2886 25.9099L18.4993 25.9216ZM19.1677 20.9789L19.3754 21.0162L19.3755 21.0159L19.1677 20.9789ZM20.4439 15.2867L20.2407 15.2299L20.2404 15.231L20.4439 15.2867ZM23.2394 15.7121L23.0392 15.6454L23.0387 15.6469L23.2394 15.7121ZM22.186 20.0674L22.3932 20.1076L22.3932 20.1073L22.186 20.0674ZM21.4365 25.2531L21.2264 25.2342L21.2076 25.4423L21.4155 25.4631L21.4365 25.2531ZM28.101 23.1667L27.9379 23.0328L27.9372 23.0337L28.101 23.1667ZM28.4859 13.7067L28.6317 13.5542L28.6317 13.5542L28.4859 13.7067ZM21.3757 12.8964L21.3121 12.6953L21.3113 12.6955L21.3757 12.8964ZM18.5195 14.2334L18.4044 14.0565L18.3994 14.0599L18.5195 14.2334ZM17.4054 14.1321L17.2297 14.2492L17.2337 14.2548L17.4054 14.1321ZM17.3649 12.6128L17.5511 12.7122L17.5536 12.7072L17.3649 12.6128ZM17.9118 12.0254L17.793 11.851L17.7927 11.8512L17.9118 12.0254ZM21.1934 10.5872L21.2462 10.7915L21.2482 10.7909L21.1934 10.5872ZM29.0936 10.9518L29.0018 11.1418L29.0036 11.1426L29.0936 10.9518ZM31.8688 13.4636L32.0509 13.357L32.0509 13.357L31.8688 13.4636ZM31.6257 22.8223L31.8117 22.922L31.8121 22.9213L31.6257 22.8223ZM28.0808 26.347L27.9806 26.1613L27.9806 26.1613L28.0808 26.347ZM22.5304 27.3919C21.7588 27.3919 20.8841 27.3254 19.9054 27.1913L19.8481 27.6094C20.841 27.7454 21.7354 27.8139 22.5304 27.8139V27.3919ZM19.9029 27.191C19.3755 27.1251 19.0669 26.9911 18.9165 26.8307L18.6087 27.1193C18.8634 27.391 19.2976 27.5406 19.8506 27.6097L19.9029 27.191ZM18.9165 26.8307C18.7725 26.677 18.6842 26.3974 18.7099 25.9333L18.2886 25.9099C18.2603 26.4181 18.3476 26.8408 18.6087 27.1193L18.9165 26.8307ZM18.7097 25.9365C18.8036 24.6097 19.0251 22.9701 19.3754 21.0162L18.96 20.9417C18.6082 22.9041 18.384 24.5596 18.2888 25.9067L18.7097 25.9365ZM19.3755 21.0159C19.7255 19.0502 20.1495 17.1591 20.6474 15.3425L20.2404 15.231C19.739 17.0606 19.3122 18.9643 18.96 20.9419L19.3755 21.0159ZM20.6471 15.3436C20.7273 15.0571 20.88 14.8739 21.1018 14.7683L20.9204 14.3872C20.575 14.5517 20.3496 14.8412 20.2407 15.2299L20.6471 15.3436ZM21.1018 14.7683C21.3471 14.6515 21.6841 14.5862 22.1252 14.5862V14.1642C21.6481 14.1642 21.2423 14.2339 20.9204 14.3872L21.1018 14.7683ZM22.1252 14.5862C22.5244 14.5862 22.7902 14.643 22.9493 14.7317C23.0256 14.7742 23.0732 14.8218 23.1026 14.8709C23.1318 14.9198 23.1499 14.9817 23.1499 15.0639H23.5719C23.5719 14.9166 23.5385 14.7776 23.4648 14.6543C23.3912 14.5313 23.2843 14.4353 23.1547 14.3631C22.9019 14.2221 22.5498 14.1642 22.1252 14.1642V14.5862ZM23.1499 15.0639C23.1499 15.2239 23.1154 15.4167 23.0392 15.6454L23.4396 15.7789C23.5254 15.5214 23.5719 15.2821 23.5719 15.0639H23.1499ZM23.0387 15.6469C22.6837 16.7391 22.3307 18.2004 21.9788 20.0275L22.3932 20.1073C22.7436 18.2881 23.0928 16.8459 23.44 15.7774L23.0387 15.6469ZM21.9789 20.0272C21.6265 21.843 21.3756 23.5787 21.2264 25.2342L21.6467 25.2721C21.7945 23.6324 22.0433 21.9109 22.3932 20.1076L21.9789 20.0272ZM21.4155 25.4631C21.8291 25.5045 22.2955 25.5249 22.814 25.5249V25.1029C22.3061 25.1029 21.8541 25.0828 21.4575 25.0432L21.4155 25.4631ZM22.814 25.5249C25.2214 25.5249 27.0526 24.7938 28.2649 23.2996L27.9372 23.0337C26.8267 24.4025 25.1331 25.1029 22.814 25.1029V25.5249ZM28.2641 23.3005C29.4781 21.8215 30.0744 19.8587 30.0744 17.434H29.6524C29.6524 19.7899 29.0738 21.6489 27.9379 23.0328L28.2641 23.3005ZM30.0744 17.434C30.0744 15.7855 29.6021 14.4817 28.6317 13.5542L28.3401 13.8592C29.2064 14.6873 29.6524 15.8684 29.6524 17.434H30.0744ZM28.6317 13.5542C27.6629 12.6281 26.3077 12.179 24.5966 12.179V12.601C26.2346 12.601 27.4723 13.0297 28.3401 13.8592L28.6317 13.5542ZM24.5966 12.179C23.4938 12.179 22.3988 12.3514 21.3121 12.6953L21.4394 13.0976C22.4864 12.7663 23.5386 12.601 24.5966 12.601V12.179ZM21.3113 12.6955C20.2417 13.0383 19.2723 13.4917 18.4044 14.0565L18.6346 14.4102C19.4683 13.8677 20.4031 13.4298 21.4401 13.0974L21.3113 12.6955ZM18.3994 14.0599C18.2571 14.1584 18.1096 14.2047 17.9523 14.2047V14.6267C18.2002 14.6267 18.4308 14.5515 18.6396 14.4069L18.3994 14.0599ZM17.9523 14.2047C17.7919 14.2047 17.6731 14.1439 17.5771 14.0095L17.2337 14.2548C17.4078 14.4985 17.6536 14.6267 17.9523 14.6267V14.2047ZM17.581 14.0151C17.4726 13.8526 17.4138 13.6518 17.4138 13.4029H16.9918C16.9918 13.7211 17.068 14.0065 17.2298 14.2492L17.581 14.0151ZM17.4138 13.4029C17.4138 13.1 17.4646 12.8742 17.5511 12.7121L17.1787 12.5135C17.049 12.7567 16.9918 13.0575 16.9918 13.4029H17.4138ZM17.5536 12.7072C17.6416 12.5311 17.7957 12.3605 18.031 12.1995L17.7927 11.8512C17.5148 12.0414 17.3042 12.2624 17.1761 12.5185L17.5536 12.7072ZM18.0306 12.1998C18.9395 11.5807 20.0103 11.1104 21.2462 10.7915L21.1407 10.3828C19.8647 10.7121 18.7477 11.2007 17.793 11.851L18.0306 12.1998ZM21.2482 10.7909C22.4884 10.4575 23.6786 10.2917 24.8194 10.2917V9.86972C23.6375 9.86972 22.4103 10.0415 21.1386 10.3834L21.2482 10.7909ZM24.8194 10.2917C26.4425 10.2917 27.8344 10.5778 29.0018 11.1418L29.1854 10.7618C27.949 10.1644 26.4915 9.86972 24.8194 9.86972V10.2917ZM29.0036 11.1426C30.1685 11.6923 31.0608 12.5009 31.6867 13.5702L32.0509 13.357C31.3804 12.2116 30.4226 11.3456 29.1837 10.7609L29.0036 11.1426ZM31.6867 13.5702C32.3122 14.6388 32.6301 15.9372 32.6301 17.4745H33.0521C33.0521 15.8787 32.7218 14.5032 32.0509 13.357L31.6867 13.5702ZM32.6301 17.4745C32.6301 19.4854 32.2308 21.2329 31.4394 22.7234L31.8121 22.9213C32.6412 21.3597 33.0521 19.542 33.0521 17.4745H32.6301ZM31.4397 22.7227C30.6496 24.1976 29.4983 25.343 27.9806 26.1613L28.1809 26.5327C29.7693 25.6764 30.9813 24.472 31.8117 22.922L31.4397 22.7227ZM27.9806 26.1613C26.4644 26.9787 24.6502 27.3919 22.5304 27.3919V27.8139C24.705 27.8139 26.5911 27.3898 28.1809 26.5327L27.9806 26.1613Z" fill="url(#paint3_radial_8_722)"/>
<path d="M15.0776 27.4469L16.5529 30.3975C16.7517 30.8055 17.2853 31.1927 17.7352 31.2764L20.4033 31.7158C22.1088 31.9983 22.5063 33.233 21.2822 34.4676L19.2 36.5498C18.8547 36.895 18.6559 37.5751 18.771 38.0669L19.3674 40.6408C19.8383 42.6706 18.7501 43.4658 16.9609 42.3986L14.4603 40.9129C14.0104 40.6408 13.257 40.6408 12.8071 40.9129L10.3064 42.3986C8.51725 43.4554 7.4291 42.6706 7.89993 40.6408L8.49633 38.0669C8.5905 37.5647 8.3917 36.8846 8.04642 36.5393L5.96427 34.4572C4.74009 33.233 5.13769 31.9983 6.84317 31.7054L9.51124 31.2659C9.96116 31.1927 10.4948 30.7951 10.6936 30.387L12.1689 27.4364C12.9745 25.8461 14.2719 25.8461 15.0776 27.4469V27.4469ZM7.34539 28.0109H1.06757C0.638581 28.0109 0.282837 27.6551 0.282837 27.2261C0.282837 26.7972 0.638581 26.4414 1.06757 26.4414H7.34539C7.77438 26.4414 8.13012 26.7972 8.13012 27.2261C8.13012 27.6551 7.77438 28.0109 7.34539 28.0109ZM4.20648 42.6591H1.06757C0.638581 42.6591 0.282837 42.3034 0.282837 41.8744C0.282837 41.4454 0.638581 41.0897 1.06757 41.0897H4.20648C4.63546 41.0897 4.99121 41.4454 4.99121 41.8744C4.99121 42.3034 4.63546 42.6591 4.20648 42.6591ZM2.11387 35.335H1.06757C0.638581 35.335 0.282837 34.9793 0.282837 34.5503C0.282837 34.1213 0.638581 33.7655 1.06757 33.7655H2.11387C2.54286 33.7655 2.8986 34.1213 2.8986 34.5503C2.8986 34.9793 2.54286 35.335 2.11387 35.335Z" fill="#18181B"/>
<defs>
<radialGradient id="paint0_radial_8_722" cx="0" cy="0" r="1" gradientUnits="userSpaceOnUse" gradientTransform="translate(28 27.4997) rotate(65.3189) scale(19.8082 14.7598)">
<stop stop-color="#FDE047"/>
<stop offset="0.544351" stop-opacity="0"/>
</radialGradient>
<radialGradient id="paint1_radial_8_722" cx="0" cy="0" r="1" gradientUnits="userSpaceOnUse" gradientTransform="translate(28 27.4997) rotate(65.3189) scale(19.8082 14.7598)">
<stop stop-color="#FDE047"/>
<stop offset="0.544351" stop-opacity="0"/>
</radialGradient>
<radialGradient id="paint2_radial_8_722" cx="0" cy="0" r="1" gradientUnits="userSpaceOnUse" gradientTransform="translate(19.1916 12.2217) rotate(65.3189) scale(19.8082 14.7598)">
<stop stop-color="#FDE047"/>
<stop offset="0.544351" stop-opacity="0"/>
</radialGradient>
<radialGradient id="paint3_radial_8_722" cx="0" cy="0" r="1" gradientUnits="userSpaceOnUse" gradientTransform="translate(19.1916 12.2217) rotate(65.3189) scale(19.8082 14.7598)">
<stop stop-color="#FDE047"/>
<stop offset="0.544351" stop-opacity="0"/>
</radialGradient>
</defs>
</svg>
